<?xml version="1.0" encoding="utf-8"?>
<!-- Generator: Adobe Illustrator 22.1.0, SVG Export Plug-In . SVG Version: 6.00 Build 0)  -->
<svg version="1.1" id="Layer_1" xmlns="http://www.w3.org/2000/svg" xmlns:xlink="http://www.w3.org/1999/xlink" x="0px" y="0px"
	 viewBox="0 0 70 70" style="enable-background:new 0 0 70 70;" xml:space="preserve">
<style type="text/css">
	.st0{fill:#F6B448;}
	.st1{fill:#F6B24D;}
	.st2{fill:#E6E6E5;}
	.st3{fill:#9E763B;}
	.st4{fill:#F0DC0A;}
	.st5{fill:#CCCCCC;}
	.st6{fill:#F5C013;}
	.st7{fill:#ECE506;}
	.st8{fill:#F5F28D;}
	.st9{fill:#FAF7DA;}
	.st10{fill:#F0E948;}
	.st11{fill:#F5C407;}
	.st12{fill:#F8F8DF;}
	.st13{fill:#F0EC46;}
	.st14{fill:#F6F3A1;}
	.st15{fill:#F7F2A2;}
	.st16{fill:#F4EE73;}
</style>
<g>
	<path class="st0" d="M63.8,58.1c-1.1,1.9-3,2.7-4.9,3.4c-2.1,0.8-4.3,1.1-6.5,1.1c-1.2-0.3-2.4,0-3.6-0.3c-3-0.7-5.8-2.1-8.6-3.4
		c-0.6-0.8-1.5-1.2-2.2-1.9c-3.1-2.2-6.2-4.2-9-6.8c-5.4-5-9.6-10.9-11.8-18.1c-0.7-2.4-0.8-4.9-1.6-7.2c0-1.5,0-3,0-4.5
		c0.9-2.6,2.1-5,3.8-7.2c0.2-0.2,0.4-0.6,0.6-0.7c2-1.2,2.2-3.2,2.6-5.2c0.1-0.7-0.2-1.7,1.1-1.8c2.1-0.2,2.6,0,3.2,1.6
		c0.1,0.6,0.6,1.2-0.3,1.6c-1-0.3-0.7-1.6-1.7-2c-0.5-0.1-1,0-1,0.6c-0.1,1.1-0.7,2.1-0.6,3.3c0.1,0.8-0.3,1.3-1,1.8
		c-1.1,0.7-2.1,1.6-2.5,2.9c-0.9,1.5-1.7,3-2.2,4.7c-0.6,2.3-0.6,4.6-0.1,7c0.5,2.3,1,4.5,1.7,6.7c0.4,1.3,1.1,2.6,1.7,3.8
		c2.3,4.7,5.6,8.7,9.6,12.1c2.8,2.4,5.6,4.7,8.9,6.5c2.8,1.6,5.6,3.1,8.7,4c4.3,1.3,8.4,1.1,12.4-1c0.8-0.4,1-1.2,1.6-1.7
		C62.7,57.7,63.2,58.2,63.8,58.1z"/>
	<path class="st1" d="M26.3,8.7c0.9-0.2,0.4-1,0.6-1.5c0.5,0.4,0.6,0.9,0.4,1.4c-1.2,3.6-0.5,7,0.5,10.5c1.2,4.3,2.8,8.3,5,12.2
		c4.3,7.9,10.7,13.5,18.8,17.3c3.1,1.5,6.4,2.6,9.4,4.4c0.9,0.6,1.7,1.2,2.5,2c0,0.5,0.6,1.1-0.3,1.3c-0.7,0-0.8-0.6-1.3-0.9
		c-2.8-1.6-5.6-3.2-8.5-4.4c-4.2-1.8-8.3-3.9-11.9-7c-1.1-0.9-2.4-1.7-3.3-2.8c-2.4-2.9-4.9-5.7-6.7-9c-2.1-3.9-3.8-8-5.1-12.2
		c-0.1-0.4-0.1-0.7-0.1-1.1c0-0.8-0.2-1.5-0.4-2.3c-0.2-1-0.6-1.9-0.5-2.9c-0.1-0.6-0.2-1.3,0.1-1.9c0.5-0.6,0.3-1.3,0.4-2
		C25.9,9.4,25.9,9,26.3,8.7z"/>
	<path class="st2" d="M38,57c0.9,0.3,1.9,0.7,2.3,1.7c-0.1,0.1-0.2,0.2-0.3,0.3c-0.4,0.4-1.2,0.5-1.1,1.1c0.2,0.7,1,0.7,1.6,0.9
		c2.1,0.5,4.3,0.7,6.5,0.7c0.6,0,1.1,0.1,1.6,0.3c1.2,0,2.5,0.1,3.7,0.6c-2.8,0.8-5.6,0.7-8.4,0.5c-3.5-0.2-7-0.3-10.2-1.8
		c-0.5-0.2-1.2-0.5-1.2-1.2c0-0.7,0.6-1,1.2-1.3c1-0.6,2.1-0.7,3.2-1C37.4,57.7,37.9,57.7,38,57z"/>
	<path class="st3" d="M63.3,56.2c0.5-0.3-0.2-0.8,0.2-1.2c1.1,0.9,1.3,1.9,0.3,3.1c-0.6,0.2-1.5,1.3-1.3-0.5
		C62.4,56.9,62.5,56.3,63.3,56.2z"/>
	<path class="st4" d="M63.3,56.2c-0.7,0.2-0.1,1.2-0.8,1.4c-0.8,2.2-3,2.7-4.8,3.2c-1.4,0.4-3,0.9-4.6,0.7c-2.3-0.4-4.5-0.8-6.8-1.5
		c-4.5-1.5-8.4-3.9-12-6.7c-3.6-2.8-7.1-5.8-10-9.6c-2.1-2.7-3.6-5.7-5.1-8.7c-0.7-1.5-1.1-3.3-1.5-4.9c-0.7-2.7-1.3-5.4-1-8.2
		c0.3-2.4,0.9-4.7,2.8-6.4c0.7-0.9,1.7-1.4,2.6-2c0.8-0.5,1.3-1.1,1.5-2.1c0.2-1.2,0.7-2.3,0.6-3.6c0-0.6,0.4-1,0.9-1.3
		C26,7,26.2,7.8,26.3,8.7c0,0.4,0,0.7,0,1.1c-0.6,0.5,0.1,1.4-0.5,2c0,0.6-0.2,1.3,0.2,1.9c-0.8,0.5-1.6,0.9-1.8,1.9
		c-0.6,1.2-0.1,2.4-0.3,3.7c0,0.8-0.1,1.6,0.4,2.3c0.9,2.8,1.7,5.6,2.8,8.3c1.8,3.9,4.1,7.4,6.9,10.6c1.3,1.4,2.7,2.7,4.1,4
		c1.3,1.4,2.9,2.6,4.6,3.5c1.4,1.2,3,1.8,4.5,2.8c1.7,1.2,3.7,1.5,5.5,2.1c0.5,0.2,0.8,0,1.1-0.3c1.4,0.1,2.7,0.7,3.9,1.2
		c0.6,0.2,1,0.8,0.7,1.5c-0.3,0.7-0.9,0.2-1.3,0.1c-0.6-0.1-1.1-0.4-1.7-0.5c1.6,0.9,3.5,1.3,5.3,1.6c0.7,0.1,0.9-0.8,1.6-1
		C62.8,55.2,62.6,56.2,63.3,56.2z"/>
	<path class="st5" d="M48.7,62c-3.1,0.1-6.1,0.1-9.1-0.9c-0.5-0.2-1.4-0.3-1.4-0.9c0-0.8,0.8-1,1.4-1.3c0.2-0.1,0.4-0.1,0.7-0.2
		c1.3-0.1,2.2,0.8,3.1,1.3C45.1,60.9,47.1,61.1,48.7,62z"/>
	<path class="st6" d="M25.1,6.5c-0.5,0.7-0.7,1.4-0.6,2.2c0.2,1.3-0.5,2.4-0.7,3.6c-0.3,1.4-2,1.6-3,2.5c-0.3,0.3-0.8,0.6-1.3,0.7
		c0.1-1.7,1.6-2.3,2.7-3.3c0.2-0.2,0.7-0.2,0.7-0.7c0-1.2,0.3-2.3,0.5-3.5C23.5,6.6,24,6.3,25.1,6.5z"/>
	<path class="st7" d="M62.2,55.3c-0.5,1.1-1,1.9-2.6,1.2c-1.4-0.6-3-0.7-4.5-1.3c-0.3-0.1-0.8-0.2-0.7-0.7c0.1-0.6,0.7-0.5,1-0.3
		c0.6,0.3,1.3,0.5,1.9,0.7c0.3,0.1,0.5,0.5,0.8,0.1c0.2-0.4-0.1-0.7-0.4-0.9c-0.7-0.6-1.6-0.5-2.4-0.9c-0.5-0.2-1-0.6-1.6-0.7
		c-1.2,0.5-2.2-0.2-3.1-0.7c-1-0.6-2-1-3-1.3c-1.7-0.8-3-2-4.7-2.8c-1.6-1-3.2-2.2-4.5-3.5c-1.5-0.8-2.4-2.2-3.4-3.4
		C33.3,39,31.8,37,30.4,35c-1.3-1.9-2.6-3.8-3.5-6c-1.2-2.4-2.2-4.8-2.7-7.5c0.2-1.3,0.9-1.7,2.5-1.5c0.8,1.3,1.1,2.8,1.5,4.2
		c0.5,1.6,1.4,3,1.9,4.5c0.9,2.6,2.4,5.1,4.1,7.2c1.8,2.4,3.6,4.8,6,6.7c4,3.3,8.3,6,13.1,7.9c2.9,1.2,5.5,2.8,8.3,4.2
		C61.9,54.8,62.1,55,62.2,55.3z"/>
	<path class="st8" d="M23.5,19.4c0-1,0-2,0-2.9c0-0.4-0.1-0.9,0.5-1c0.4,1.1,1.1,1.7,2.3,1.2c0.4,0.7,0.5,1.5,0.5,2.2
		c-0.8,0.6-1.9,0.4-2.8,1.1C23.6,20.2,23.6,19.6,23.5,19.4z"/>
	<path class="st9" d="M26.3,16.6c-0.4,1-1.3,0.6-1.8,0.5c-0.8-0.2-0.3-1.1-0.5-1.6c0.1-1.2,0.9-1.6,2-1.7
		C25.5,14.7,26.5,15.6,26.3,16.6z"/>
	<path class="st10" d="M23.5,19.4c0.2,0.1,0.3,0.5,0.5,0.3c0.7-1.1,1.8-0.8,2.8-0.8c0,0.4,0,0.8,0,1.2c-0.6,0.1-1,0.6-1.6,0.6
		c-0.8-0.1-0.5,0.7-0.6,1.1c-0.2,0.1-0.4,0.1-0.6,0C22.9,21.1,23.6,20.1,23.5,19.4z"/>
	<path class="st0" d="M25.7,11.8c0-0.7-0.1-1.4,0-2c0.1-0.6,0.3,0,0.5,0C26.1,10.5,26.7,11.3,25.7,11.8z"/>
	<path class="st11" d="M56.9,58.6c-2.5,0-5,0.3-7.4-0.1c-2.4-0.4-4.9-1-7.2-2c-3.6-1.6-6.9-3.5-9.9-6.1c-2.7-2.4-5.3-4.9-7.5-7.9
		c-1.4-1.9-2.5-4-3.7-6c-1.3-2.3-1.7-4.8-2.4-7.3c-0.7-2.8-0.6-5.5,0-8.2c0.2-1.1-0.1-2.2,0.6-3.2c0.2-0.3,0.1-0.7,0.5-0.7
		c0.5,0.1,0.4,0.6,0.3,0.9c-0.6,2.1,0.1,4.1,0.2,6.2c0.2,2.8,1.3,5.4,2.3,8c2.1,5.4,5.4,10.1,9.3,14.2c4,4.1,8.6,7.1,13.9,9.2
		c3.5,1.4,7.1,2,10.8,2.6C56.9,58.4,56.9,58.5,56.9,58.6z"/>
	<path class="st12" d="M27.3,28.9c0.7,2,2,3.7,3.1,5.5c1.9,3,4.2,5.6,6.5,8.3c0.5,0.5,1.3,0.7,1.6,1.4c0.2,0.9-0.3,0.7-0.9,0.6
		C33.1,40.9,29.8,36.1,27,31c-0.2-0.3-0.2-0.6-0.2-0.9C26.5,29,26.5,29,27.3,28.9z"/>
	<path class="st13" d="M47.5,50.3c1.1-0.1,2.1,0.4,2.9,1c1,0.7,2.1,0.9,3.2,1.2c0.1,0.7-0.2,0.9-0.9,0.7c-1.9-0.6-3.8-0.9-5.6-1.9
		c-0.1-0.1-0.2-0.3-0.3-0.5C47.1,50.5,47.3,50.4,47.5,50.3z"/>
	<path class="st14" d="M37.7,44.6c0.4-0.1,0.8,0,0.9-0.6c1.5,1.1,3,2.3,4.5,3.4c0.2,0.7-0.1,0.7-0.6,0.6
		C40.5,47.4,39.1,46,37.7,44.6z"/>
	<path class="st15" d="M27.3,28.9c-0.7,0.1-0.4,0.7-0.5,1.1c-1.2-1.8-1.5-3.9-2.2-5.9c-0.3-0.8-0.7-1.6-0.6-2.6c0.2,0,0.4,0,0.6,0
		C25.2,24.2,26.3,26.6,27.3,28.9z"/>
	<path class="st16" d="M42.4,48c0.3-0.1,0.6-0.2,0.6-0.6c1.7,0.7,3,1.8,4.5,2.8c-0.1,0.3-0.3,0.4-0.6,0.6
		C45.4,50.1,43.7,49.5,42.4,48z"/>
</g>
</svg>
