<?xml version="1.0" encoding="utf-8"?>
<!-- Generator: Adobe Illustrator 22.1.0, SVG Export Plug-In . SVG Version: 6.00 Build 0)  -->
<svg version="1.1" id="Layer_1" xmlns="http://www.w3.org/2000/svg" xmlns:xlink="http://www.w3.org/1999/xlink" x="0px" y="0px"
	 viewBox="0 0 70 70" style="enable-background:new 0 0 70 70;" xml:space="preserve">
<style type="text/css">
	.st0{fill:#F6B448;}
	.st1{fill:#F6B24D;}
	.st2{fill:#E6E6E5;}
	.st3{fill:#9E763B;}
	.st4{fill:#F0DC0A;}
	.st5{fill:#CCCCCC;}
	.st6{fill:#F5C013;}
	.st7{fill:#ECE506;}
	.st8{fill:#F5F28D;}
	.st9{fill:#FAF7DA;}
	.st10{fill:#F0E948;}
	.st11{fill:#F5C407;}
	.st12{fill:#F8F8DF;}
	.st13{fill:#F0EC46;}
	.st14{fill:#F6F3A1;}
	.st15{fill:#F7F2A2;}
	.st16{fill:#F4EE73;}
</style>
<g>
	<path class="st0" d="M62.1,56.4c-1,1.7-2.8,2.5-4.5,3.1c-2,0.7-4,1.1-6.1,1c-1.1-0.3-2.2,0-3.3-0.2c-2.8-0.6-5.4-2-8-3.1
		c-0.5-0.7-1.4-1.1-2-1.8c-2.8-2-5.8-3.9-8.3-6.3c-5-4.7-8.9-10.1-11-16.7c-0.7-2.2-0.7-4.5-1.5-6.6c0-1.4,0-2.8,0-4.2
		c0.8-2.4,1.9-4.7,3.6-6.6c0.2-0.2,0.3-0.5,0.6-0.7c1.8-1.1,2.1-3,2.4-4.8c0.1-0.6-0.1-1.6,1-1.7c1.9-0.2,2.4,0,2.9,1.5
		c0.1,0.5,0.5,1.1-0.3,1.5c-0.9-0.2-0.7-1.5-1.5-1.8c-0.5-0.1-0.9,0-1,0.6c-0.1,1-0.7,2-0.6,3c0.1,0.7-0.3,1.2-0.9,1.7
		c-1,0.7-1.9,1.5-2.4,2.7c-0.9,1.3-1.6,2.8-2,4.3c-0.6,2.2-0.5,4.3-0.1,6.5c0.5,2.1,0.9,4.2,1.6,6.2c0.4,1.2,1.1,2.4,1.6,3.5
		c2.1,4.4,5.2,8,8.9,11.2c2.6,2.2,5.2,4.3,8.2,6c2.6,1.5,5.2,2.9,8.1,3.7c4,1.2,7.8,1,11.5-0.9c0.7-0.4,1-1.1,1.5-1.6
		C61.1,56,61.5,56.4,62.1,56.4z"/>
	<path class="st1" d="M27.3,10.6c0.9-0.2,0.4-0.9,0.5-1.4c0.4,0.3,0.5,0.8,0.4,1.3c-1.1,3.3-0.5,6.5,0.5,9.8
		c1.2,3.9,2.6,7.7,4.6,11.3c4,7.3,10,12.5,17.5,16c2.9,1.4,6,2.4,8.7,4.1c0.8,0.5,1.6,1.1,2.3,1.8c0,0.4,0.6,1-0.2,1.2
		c-0.6,0-0.8-0.6-1.2-0.9c-2.6-1.4-5.1-2.9-7.9-4.1c-3.9-1.7-7.7-3.6-11-6.5c-1-0.9-2.2-1.5-3-2.6c-2.2-2.7-4.6-5.2-6.2-8.4
		c-1.9-3.6-3.5-7.4-4.7-11.3c-0.1-0.3-0.1-0.7-0.1-1c0-0.7-0.2-1.4-0.4-2.1c-0.1-0.9-0.6-1.7-0.5-2.7c-0.1-0.6-0.2-1.2,0-1.8
		c0.4-0.6,0.3-1.3,0.3-1.9C26.9,11.2,26.9,10.8,27.3,10.6z"/>
	<path class="st2" d="M38.2,55.4c0.8,0.3,1.7,0.6,2.1,1.6c-0.1,0.1-0.2,0.2-0.3,0.3c-0.3,0.4-1.1,0.4-1,1c0.2,0.7,0.9,0.7,1.5,0.8
		c2,0.5,4,0.6,6,0.7c0.5,0,1,0,1.5,0.2c1.2,0,2.3,0.1,3.4,0.5c-2.6,0.8-5.2,0.7-7.8,0.5c-3.2-0.2-6.5-0.3-9.5-1.7
		c-0.5-0.2-1.2-0.4-1.1-1.1c0-0.6,0.6-0.9,1.1-1.2c0.9-0.5,2-0.6,2.9-1C37.6,56,38.1,56,38.2,55.4z"/>
	<path class="st3" d="M61.6,54.6c0.5-0.3-0.2-0.8,0.2-1.1c1,0.9,1.2,1.8,0.3,2.9c-0.6,0.2-1.4,1.2-1.2-0.5
		C60.8,55.3,60.8,54.7,61.6,54.6z"/>
	<path class="st4" d="M61.6,54.6c-0.7,0.2-0.1,1.1-0.7,1.3c-0.8,2.1-2.8,2.5-4.5,3c-1.3,0.4-2.8,0.9-4.3,0.6
		c-2.1-0.4-4.2-0.7-6.3-1.4c-4.1-1.4-7.8-3.6-11.1-6.2c-3.4-2.6-6.6-5.4-9.2-8.9c-1.9-2.5-3.4-5.3-4.7-8.1c-0.7-1.4-1-3-1.4-4.6
		c-0.7-2.5-1.2-5-0.9-7.6c0.3-2.2,0.9-4.3,2.6-6c0.6-0.9,1.6-1.3,2.5-1.9c0.8-0.5,1.2-1,1.4-1.9c0.2-1.1,0.6-2.2,0.5-3.3
		c0-0.6,0.4-0.9,0.8-1.2c0.8,0.5,1,1.2,1,2.1c0,0.3,0,0.7,0,1c-0.6,0.5,0.1,1.3-0.5,1.9c0,0.6-0.2,1.2,0.2,1.8
		c-0.7,0.4-1.5,0.8-1.7,1.8c-0.5,1.1-0.1,2.3-0.3,3.4c0,0.7-0.1,1.5,0.3,2.1c0.8,2.6,1.6,5.2,2.6,7.7c1.6,3.6,3.8,6.8,6.4,9.8
		c1.2,1.3,2.5,2.5,3.8,3.7c1.2,1.3,2.7,2.4,4.3,3.2c1.3,1.1,2.8,1.7,4.2,2.6c1.5,1.1,3.4,1.4,5.1,1.9c0.4,0.1,0.7,0,1-0.3
		c1.3,0.1,2.5,0.7,3.7,1.1c0.5,0.2,1,0.7,0.7,1.3c-0.3,0.6-0.8,0.2-1.2,0.1c-0.5-0.1-1-0.4-1.6-0.5c1.5,0.9,3.2,1.2,4.9,1.5
		c0.6,0.1,0.9-0.8,1.5-0.9C61.2,53.7,61,54.6,61.6,54.6z"/>
	<path class="st5" d="M48.1,60c-2.8,0.1-5.7,0.1-8.4-0.8c-0.5-0.2-1.3-0.2-1.3-0.9c0-0.7,0.7-1,1.3-1.2c0.2-0.1,0.4-0.1,0.6-0.2
		c1.2-0.1,2,0.7,2.9,1.2C44.7,59,46.5,59.1,48.1,60z"/>
	<path class="st6" d="M26.2,8.5c-0.4,0.6-0.6,1.3-0.5,2c0.2,1.2-0.5,2.2-0.7,3.3c-0.2,1.3-1.9,1.4-2.8,2.3c-0.3,0.2-0.7,0.6-1.2,0.6
		c0.1-1.6,1.5-2.2,2.5-3.1c0.2-0.2,0.6-0.2,0.6-0.7c0-1.1,0.3-2.2,0.4-3.2C24.7,8.6,25.1,8.3,26.2,8.5z"/>
	<path class="st7" d="M60.5,53.7c-0.5,1-0.9,1.7-2.4,1.1c-1.3-0.5-2.8-0.6-4.1-1.2c-0.3-0.1-0.8-0.2-0.7-0.6c0.1-0.5,0.7-0.4,1-0.3
		c0.6,0.3,1.2,0.5,1.8,0.6c0.3,0.1,0.5,0.5,0.7,0.1c0.2-0.4-0.1-0.6-0.4-0.9c-0.6-0.6-1.5-0.5-2.3-0.8c-0.5-0.2-1-0.5-1.5-0.6
		c-1.1,0.5-2-0.2-2.8-0.6c-0.9-0.5-1.8-0.9-2.8-1.2c-1.5-0.7-2.8-1.9-4.3-2.6c-1.5-0.9-2.9-2-4.2-3.3c-1.4-0.7-2.2-2-3.2-3.1
		c-1.5-1.7-2.9-3.5-4.2-5.4c-1.2-1.8-2.4-3.6-3.2-5.6c-1.1-2.2-2-4.5-2.5-6.9c0.2-1.2,0.8-1.6,2.3-1.4c0.8,1.2,1,2.6,1.4,3.9
		c0.5,1.5,1.3,2.8,1.8,4.2c0.9,2.4,2.3,4.7,3.8,6.7c1.6,2.2,3.4,4.4,5.5,6.2c3.7,3.1,7.7,5.6,12.1,7.3c2.7,1.1,5.1,2.6,7.7,3.9
		C60.3,53.3,60.5,53.5,60.5,53.7z"/>
	<path class="st8" d="M24.7,20.5c0-0.9,0-1.8,0-2.7c0-0.4,0-0.8,0.5-0.9c0.4,1,1,1.6,2.2,1.1c0.3,0.7,0.5,1.3,0.5,2.1
		c-0.8,0.5-1.8,0.4-2.6,1C24.8,21.3,24.8,20.6,24.7,20.5z"/>
	<path class="st9" d="M27.3,17.9c-0.3,1-1.2,0.6-1.7,0.5c-0.8-0.2-0.3-1-0.5-1.5c0.1-1.2,0.8-1.5,1.8-1.6
		C26.5,16.2,27.4,16.9,27.3,17.9z"/>
	<path class="st10" d="M24.7,20.5c0.2,0.1,0.3,0.5,0.5,0.3c0.7-1,1.7-0.7,2.6-0.8c0,0.4,0,0.7,0,1.1c-0.5,0.1-0.9,0.6-1.5,0.5
		c-0.7-0.1-0.5,0.6-0.6,1c-0.2,0.1-0.3,0.1-0.5,0C24.1,22,24.8,21.2,24.7,20.5z"/>
	<path class="st0" d="M26.7,13.4c0-0.6-0.1-1.3,0-1.9c0.1-0.5,0.3,0,0.5,0C27.1,12.2,27.7,13,26.7,13.4z"/>
	<path class="st11" d="M55.7,56.8c-2.3,0-4.6,0.3-6.9-0.1c-2.3-0.4-4.5-0.9-6.7-1.9c-3.3-1.5-6.4-3.3-9.2-5.6
		c-2.5-2.2-4.9-4.6-6.9-7.3c-1.3-1.8-2.3-3.7-3.4-5.6c-1.2-2.1-1.6-4.5-2.2-6.8c-0.7-2.6-0.5-5.1,0-7.6c0.2-1-0.1-2.1,0.6-3
		c0.2-0.2,0.1-0.7,0.5-0.6c0.5,0.1,0.4,0.6,0.3,0.9c-0.5,2,0.1,3.8,0.2,5.8c0.2,2.6,1.2,5,2.1,7.4c1.9,5,5,9.3,8.7,13.2
		c3.7,3.8,8,6.6,12.9,8.6c3.2,1.3,6.6,1.9,10,2.4C55.7,56.6,55.7,56.7,55.7,56.8z"/>
	<path class="st12" d="M28.2,29.3c0.7,1.8,1.9,3.4,2.9,5.1c1.8,2.7,3.9,5.2,6.1,7.7c0.4,0.5,1.2,0.7,1.5,1.3
		c0.2,0.9-0.3,0.7-0.8,0.5c-4.3-3.4-7.3-7.9-10-12.7c-0.2-0.3-0.1-0.6-0.2-0.9C27.5,29.4,27.5,29.3,28.2,29.3z"/>
	<path class="st13" d="M47,49.1c1-0.1,1.9,0.4,2.7,0.9c0.9,0.7,2,0.9,3,1.1c0.1,0.7-0.2,0.8-0.8,0.6c-1.7-0.5-3.5-0.9-5.2-1.8
		c-0.1-0.1-0.2-0.3-0.2-0.4C46.5,49.3,46.8,49.2,47,49.1z"/>
	<path class="st14" d="M37.9,43.9c0.3-0.1,0.8,0,0.8-0.5c1.4,1,2.8,2.1,4.2,3.1c0.2,0.6-0.1,0.6-0.6,0.5
		C40.5,46.5,39.2,45.2,37.9,43.9z"/>
	<path class="st15" d="M28.2,29.3c-0.7,0.1-0.3,0.7-0.5,1c-1.1-1.6-1.4-3.6-2-5.4c-0.3-0.7-0.7-1.5-0.6-2.4c0.2,0,0.3,0,0.5,0
		C26.2,24.9,27.3,27.1,28.2,29.3z"/>
	<path class="st16" d="M42.3,47.1c0.3-0.1,0.6-0.2,0.6-0.5c1.5,0.6,2.8,1.7,4.2,2.6c-0.1,0.3-0.3,0.4-0.5,0.5
		C45,48.9,43.4,48.4,42.3,47.1z"/>
</g>
</svg>
