<?xml version="1.0" encoding="utf-8"?>
<!-- Generator: Adobe Illustrator 22.1.0, SVG Export Plug-In . SVG Version: 6.00 Build 0)  -->
<svg version="1.1" id="Layer_1" xmlns="http://www.w3.org/2000/svg" xmlns:xlink="http://www.w3.org/1999/xlink" x="0px" y="0px"
	 viewBox="0 0 70 70" style="enable-background:new 0 0 70 70;" xml:space="preserve">
<style type="text/css">
	.st0{fill:#F6B448;}
	.st1{fill:#F6B24D;}
	.st2{fill:#E6E6E5;}
	.st3{fill:#9E763B;}
	.st4{fill:#F0DC0A;}
	.st5{fill:#CCCCCC;}
	.st6{fill:#F5C013;}
	.st7{fill:#ECE506;}
	.st8{fill:#F5F28D;}
	.st9{fill:#FAF7DA;}
	.st10{fill:#F0E948;}
	.st11{fill:#F5C407;}
	.st12{fill:#F8F8DF;}
	.st13{fill:#F0EC46;}
	.st14{fill:#F6F3A1;}
	.st15{fill:#F7F2A2;}
	.st16{fill:#F4EE73;}
</style>
<g>
	<path class="st0" d="M62.6,56.8c-1,1.8-2.8,2.5-4.6,3.2c-2,0.7-4.1,1.1-6.2,1.1c-1.1-0.3-2.3,0-3.4-0.3c-2.9-0.7-5.5-2-8.2-3.2
		c-0.5-0.8-1.5-1.1-2.1-1.8c-2.9-2.1-5.9-4-8.5-6.4c-5.1-4.8-9.1-10.3-11.2-17.1c-0.7-2.2-0.7-4.6-1.5-6.8c0-1.4,0-2.8,0-4.3
		c0.8-2.5,2-4.8,3.6-6.8c0.2-0.2,0.3-0.5,0.6-0.7c1.9-1.1,2.1-3,2.4-4.9c0.1-0.7-0.2-1.6,1-1.7c2-0.2,2.5,0,3,1.5
		c0.1,0.6,0.5,1.2-0.3,1.6c-1-0.2-0.7-1.5-1.6-1.9c-0.5-0.1-0.9,0-1,0.6c-0.1,1-0.7,2-0.6,3.1c0.1,0.8-0.3,1.3-0.9,1.7
		c-1,0.7-2,1.5-2.4,2.7c-0.9,1.4-1.6,2.8-2,4.4c-0.6,2.2-0.5,4.4-0.1,6.6c0.5,2.2,1,4.3,1.7,6.4c0.4,1.3,1.1,2.4,1.6,3.6
		c2.2,4.5,5.3,8.2,9.1,11.4c2.6,2.3,5.3,4.4,8.4,6.1c2.7,1.5,5.3,2.9,8.3,3.8c4,1.2,8,1.1,11.8-0.9c0.7-0.4,1-1.1,1.5-1.6
		C61.5,56.5,61.9,56.9,62.6,56.8z"/>
	<path class="st1" d="M27,10.1c0.9-0.2,0.4-1,0.6-1.4C28,9,28.1,9.4,27.9,9.9c-1.1,3.4-0.5,6.6,0.5,10c1.2,4,2.7,7.9,4.7,11.6
		c4.1,7.5,10.2,12.8,17.8,16.4c3,1.4,6.1,2.5,8.9,4.2c0.9,0.5,1.7,1.1,2.4,1.9c0,0.4,0.6,1-0.3,1.3c-0.6,0-0.8-0.6-1.2-0.9
		c-2.7-1.5-5.3-3-8.1-4.2c-4-1.7-7.9-3.7-11.2-6.6c-1-0.9-2.2-1.6-3.1-2.6c-2.2-2.8-4.7-5.4-6.3-8.6c-2-3.7-3.6-7.6-4.8-11.6
		c-0.1-0.3-0.1-0.7-0.1-1c0-0.7-0.2-1.4-0.4-2.1c-0.2-0.9-0.6-1.8-0.5-2.7c-0.1-0.6-0.2-1.2,0-1.8c0.5-0.6,0.3-1.3,0.3-1.9
		C26.6,10.7,26.7,10.3,27,10.1z"/>
	<path class="st2" d="M38.1,55.8c0.9,0.3,1.8,0.6,2.2,1.6c-0.1,0.1-0.2,0.2-0.3,0.3c-0.3,0.4-1.2,0.4-1,1.1c0.2,0.7,0.9,0.7,1.5,0.9
		c2,0.5,4.1,0.7,6.2,0.7c0.5,0,1.1,0,1.6,0.2c1.2,0,2.4,0.1,3.5,0.5c-2.6,0.8-5.3,0.7-8,0.5c-3.3-0.2-6.6-0.3-9.7-1.7
		c-0.5-0.2-1.2-0.4-1.2-1.1c0-0.6,0.6-0.9,1.1-1.2c0.9-0.5,2-0.7,3-1C37.5,56.5,38,56.5,38.1,55.8z"/>
	<path class="st3" d="M62,55c0.5-0.3-0.2-0.8,0.2-1.1c1,0.9,1.3,1.8,0.3,2.9c-0.6,0.2-1.4,1.2-1.2-0.5C61.3,55.7,61.3,55.2,62,55z"
		/>
	<path class="st4" d="M62,55c-0.7,0.2-0.1,1.1-0.7,1.3c-0.8,2.1-2.8,2.5-4.6,3.1c-1.4,0.4-2.8,0.9-4.4,0.6c-2.2-0.4-4.3-0.7-6.4-1.4
		c-4.2-1.4-8-3.7-11.4-6.4c-3.4-2.6-6.7-5.5-9.4-9.1c-2-2.6-3.4-5.4-4.8-8.3c-0.7-1.4-1-3.1-1.4-4.7c-0.7-2.6-1.2-5.1-0.9-7.8
		c0.3-2.2,0.9-4.4,2.6-6.1c0.6-0.9,1.6-1.4,2.5-1.9c0.8-0.5,1.3-1,1.4-2c0.2-1.1,0.6-2.2,0.6-3.4c0-0.6,0.4-1,0.9-1.2
		c0.8,0.5,1,1.3,1.1,2.1c0,0.3,0,0.7,0,1c-0.6,0.5,0.1,1.4-0.5,1.9c0,0.6-0.2,1.3,0.2,1.8c-0.8,0.4-1.5,0.8-1.7,1.8
		c-0.5,1.1-0.1,2.3-0.3,3.5c0,0.7-0.1,1.5,0.3,2.2c0.8,2.6,1.6,5.3,2.7,7.9c1.7,3.7,3.9,7,6.5,10.1c1.2,1.4,2.6,2.5,3.9,3.7
		c1.3,1.3,2.7,2.4,4.4,3.3c1.3,1.1,2.9,1.7,4.3,2.6c1.6,1.1,3.5,1.4,5.2,2c0.4,0.1,0.8,0,1-0.3c1.3,0.1,2.5,0.7,3.7,1.2
		c0.6,0.2,1,0.7,0.7,1.4c-0.3,0.7-0.8,0.2-1.3,0.1c-0.6-0.1-1.1-0.4-1.6-0.5c1.5,0.9,3.3,1.2,5,1.5c0.7,0.1,0.9-0.8,1.5-1
		C61.6,54.1,61.5,55,62,55z"/>
	<path class="st5" d="M48.3,60.6c-2.9,0.1-5.8,0.1-8.6-0.8c-0.5-0.2-1.3-0.2-1.3-0.9c0-0.7,0.8-1,1.4-1.3c0.2-0.1,0.4-0.1,0.6-0.2
		c1.2-0.1,2.1,0.7,3,1.2C44.9,59.5,46.7,59.7,48.3,60.6z"/>
	<path class="st6" d="M25.9,8c-0.4,0.6-0.7,1.3-0.5,2.1c0.2,1.2-0.5,2.3-0.7,3.4c-0.2,1.3-1.9,1.5-2.9,2.3c-0.3,0.3-0.8,0.6-1.2,0.6
		c0.1-1.6,1.5-2.2,2.5-3.1c0.2-0.2,0.6-0.2,0.6-0.7c0-1.1,0.3-2.2,0.4-3.3C24.4,8,24.8,7.8,25.9,8z"/>
	<path class="st7" d="M61,54.2c-0.5,1-1,1.8-2.5,1.2c-1.3-0.5-2.9-0.7-4.2-1.2c-0.3-0.1-0.8-0.2-0.7-0.7c0.1-0.5,0.7-0.4,1-0.3
		c0.6,0.3,1.2,0.5,1.8,0.6c0.3,0.1,0.5,0.5,0.8,0.1c0.2-0.4-0.1-0.6-0.4-0.9c-0.7-0.6-1.6-0.5-2.3-0.9c-0.5-0.2-1-0.5-1.5-0.6
		c-1.1,0.5-2.1-0.2-2.9-0.7c-0.9-0.6-1.9-0.9-2.9-1.2c-1.6-0.7-2.9-1.9-4.4-2.7c-1.6-0.9-3-2.1-4.3-3.3c-1.4-0.8-2.2-2-3.3-3.2
		c-1.6-1.8-3-3.6-4.3-5.5c-1.2-1.8-2.5-3.6-3.3-5.7c-1.1-2.3-2.1-4.6-2.6-7.1c0.2-1.2,0.8-1.6,2.4-1.5c0.8,1.2,1,2.6,1.5,4
		c0.5,1.5,1.3,2.8,1.8,4.3c0.9,2.5,2.3,4.8,3.8,6.8c1.7,2.2,3.5,4.5,5.7,6.4c3.7,3.1,7.9,5.7,12.4,7.5c2.8,1.1,5.2,2.7,7.9,3.9
		C60.8,53.8,61,53.9,61,54.2z"/>
	<path class="st8" d="M24.3,20.1c0-0.9,0-1.9,0-2.8c0-0.4-0.1-0.8,0.5-1c0.4,1,1,1.6,2.2,1.1c0.3,0.7,0.5,1.4,0.5,2.1
		c-0.8,0.5-1.8,0.4-2.6,1C24.5,21,24.5,20.3,24.3,20.1z"/>
	<path class="st9" d="M27,17.5c-0.3,1-1.2,0.6-1.7,0.5c-0.8-0.2-0.3-1-0.5-1.6c0.1-1.2,0.8-1.6,1.9-1.6C26.2,15.8,27.2,16.6,27,17.5
		z"/>
	<path class="st10" d="M24.3,20.1c0.2,0.1,0.3,0.5,0.5,0.3c0.7-1,1.7-0.7,2.7-0.8c0,0.4,0,0.7,0,1.1c-0.5,0.1-0.9,0.6-1.5,0.5
		c-0.7-0.1-0.5,0.6-0.6,1.1c-0.2,0.1-0.4,0.1-0.5,0C23.8,21.8,24.5,20.9,24.3,20.1z"/>
	<path class="st0" d="M26.4,13c0-0.6-0.1-1.3,0-1.9c0.1-0.5,0.3,0,0.5,0C26.8,11.7,27.4,12.5,26.4,13z"/>
	<path class="st11" d="M56,57.3c-2.4,0-4.7,0.3-7-0.1c-2.3-0.4-4.6-0.9-6.8-1.9c-3.4-1.5-6.6-3.3-9.4-5.8c-2.6-2.2-5.1-4.7-7.1-7.5
		c-1.3-1.8-2.4-3.8-3.5-5.7c-1.2-2.1-1.6-4.6-2.2-6.9c-0.7-2.7-0.5-5.2,0-7.8c0.2-1-0.1-2.1,0.6-3.1c0.2-0.2,0.1-0.7,0.5-0.7
		c0.5,0.1,0.4,0.6,0.3,0.9c-0.5,2,0.1,3.9,0.2,5.9c0.2,2.7,1.3,5.1,2.2,7.6c1.9,5.1,5.1,9.5,8.9,13.5c3.7,3.9,8.2,6.8,13.2,8.8
		c3.3,1.3,6.7,1.9,10.2,2.5C56,57.1,56,57.2,56,57.3z"/>
	<path class="st12" d="M28,29.2c0.7,1.9,1.9,3.5,3,5.2c1.8,2.8,4,5.3,6.2,7.8c0.5,0.5,1.2,0.7,1.5,1.4c0.2,0.9-0.3,0.7-0.8,0.5
		c-4.4-3.5-7.5-8.1-10.2-13c-0.2-0.3-0.1-0.6-0.2-0.9C27.2,29.3,27.2,29.2,28,29.2z"/>
	<path class="st13" d="M47.2,49.4c1.1-0.1,2,0.4,2.8,0.9c0.9,0.7,2,0.9,3.1,1.2c0.1,0.7-0.2,0.8-0.9,0.6c-1.8-0.5-3.6-0.9-5.3-1.8
		c-0.1-0.1-0.2-0.3-0.2-0.4C46.7,49.7,46.9,49.5,47.2,49.4z"/>
	<path class="st14" d="M37.8,44.1c0.3-0.1,0.8,0,0.8-0.5c1.4,1.1,2.8,2.1,4.3,3.2c0.2,0.6-0.1,0.7-0.6,0.5
		C40.5,46.7,39.2,45.4,37.8,44.1z"/>
	<path class="st15" d="M28,29.2c-0.7,0.1-0.4,0.7-0.5,1c-1.2-1.7-1.5-3.7-2.1-5.6c-0.3-0.8-0.7-1.5-0.6-2.4c0.2,0,0.3,0,0.5,0
		C25.9,24.7,27,27,28,29.2z"/>
	<path class="st16" d="M42.3,47.3c0.3-0.1,0.6-0.2,0.6-0.5c1.6,0.6,2.9,1.7,4.3,2.6c-0.1,0.3-0.3,0.4-0.5,0.5
		C45.1,49.3,43.5,48.7,42.3,47.3z"/>
</g>
</svg>
