<?xml version="1.0" encoding="utf-8"?>
<!-- Generator: Adobe Illustrator 22.1.0, SVG Export Plug-In . SVG Version: 6.00 Build 0)  -->
<svg version="1.1" id="Layer_1" xmlns="http://www.w3.org/2000/svg" xmlns:xlink="http://www.w3.org/1999/xlink" x="0px" y="0px"
	 viewBox="0 0 70 70" style="enable-background:new 0 0 70 70;" xml:space="preserve">
<style type="text/css">
	.st0{fill:#F6B448;}
	.st1{fill:#F6B24D;}
	.st2{fill:#E6E6E5;}
	.st3{fill:#9E763B;}
	.st4{fill:#F0DC0A;}
	.st5{fill:#CCCCCC;}
	.st6{fill:#F5C013;}
	.st7{fill:#ECE506;}
	.st8{fill:#F5F28D;}
	.st9{fill:#FAF7DA;}
	.st10{fill:#F0E948;}
	.st11{fill:#F5C407;}
	.st12{fill:#F8F8DF;}
	.st13{fill:#F0EC46;}
	.st14{fill:#F6F3A1;}
	.st15{fill:#F7F2A2;}
	.st16{fill:#F4EE73;}
</style>
<g>
	<path class="st0" d="M64.5,58.8c-1.1,1.9-3.1,2.8-5,3.5c-2.2,0.8-4.4,1.2-6.7,1.1c-1.2-0.3-2.5,0-3.7-0.3c-3.1-0.7-6-2.2-8.9-3.5
		c-0.6-0.8-1.6-1.2-2.2-2c-3.2-2.2-6.4-4.3-9.3-7c-5.6-5.2-10-11.2-12.2-18.6c-0.7-2.4-0.8-5-1.7-7.4c0-1.5,0-3.1,0-4.6
		c0.9-2.7,2.1-5.2,4-7.4c0.2-0.3,0.4-0.6,0.6-0.8c2-1.2,2.3-3.3,2.6-5.4c0.1-0.7-0.2-1.7,1.1-1.9c2.2-0.2,2.7,0,3.3,1.6
		C26.6,7,27,7.6,26.1,8c-1-0.3-0.8-1.7-1.7-2c-0.5-0.1-1,0-1.1,0.7c-0.1,1.1-0.8,2.2-0.6,3.4c0.1,0.8-0.3,1.4-1,1.9
		c-1.1,0.7-2.1,1.6-2.6,2.9c-1,1.5-1.8,3.1-2.2,4.8c-0.7,2.4-0.6,4.8-0.1,7.2c0.5,2.3,1.1,4.7,1.8,6.9c0.5,1.4,1.2,2.6,1.8,3.9
		c2.4,4.9,5.8,8.9,9.9,12.4c2.9,2.5,5.8,4.8,9.2,6.7c2.9,1.6,5.8,3.2,9,4.1c4.4,1.3,8.7,1.2,12.8-1c0.8-0.4,1.1-1.2,1.6-1.8
		C63.4,58.4,63.9,58.9,64.5,58.8z"/>
	<path class="st1" d="M25.8,7.9c1-0.2,0.4-1,0.6-1.6c0.5,0.4,0.6,0.9,0.4,1.4c-1.2,3.7-0.5,7.2,0.5,10.9c1.3,4.4,2.9,8.6,5.1,12.6
		C37,39.3,43.6,45.1,51.9,49c3.2,1.5,6.6,2.7,9.7,4.6c0.9,0.6,1.8,1.2,2.6,2c0,0.5,0.7,1.1-0.3,1.4c-0.7,0-0.8-0.7-1.3-1
		c-2.9-1.6-5.7-3.3-8.8-4.6c-4.4-1.8-8.6-4.1-12.2-7.2c-1.1-1-2.4-1.7-3.4-2.9c-2.4-3-5.1-5.8-6.9-9.3c-2.1-4-3.9-8.2-5.3-12.6
		C26,19.1,26,18.8,26,18.4c0-0.8-0.2-1.6-0.4-2.3c-0.2-1-0.7-1.9-0.6-3c-0.1-0.7-0.2-1.3,0.1-2c0.5-0.6,0.3-1.4,0.4-2.1
		C25.5,8.6,25.5,8.2,25.8,7.9z"/>
	<path class="st2" d="M37.9,57.7c0.9,0.4,1.9,0.7,2.4,1.7c-0.1,0.1-0.2,0.2-0.3,0.3c-0.4,0.4-1.3,0.5-1.1,1.2c0.2,0.7,1,0.8,1.7,0.9
		c2.2,0.5,4.5,0.7,6.7,0.8c0.6,0,1.1,0.1,1.7,0.3c1.3,0,2.6,0.1,3.8,0.6c-2.8,0.8-5.8,0.8-8.7,0.6c-3.6-0.2-7.2-0.3-10.5-1.9
		c-0.6-0.3-1.3-0.5-1.3-1.2c0-0.7,0.7-1,1.2-1.3c1-0.6,2.2-0.7,3.3-1.1C37.3,58.4,37.8,58.4,37.9,57.7z"/>
	<path class="st3" d="M64,56.8c0.6-0.3-0.2-0.9,0.2-1.2c1.1,1,1.4,2,0.3,3.2c-0.6,0.2-1.5,1.3-1.3-0.5C63.1,57.6,63.2,57,64,56.8z"
		/>
	<path class="st4" d="M64,56.8c-0.7,0.2-0.1,1.2-0.8,1.5c-0.9,2.3-3.1,2.8-5,3.3c-1.5,0.4-3.1,1-4.7,0.7c-2.3-0.4-4.7-0.8-7-1.5
		c-4.6-1.5-8.7-4.1-12.4-6.9c-3.7-2.9-7.3-6-10.3-9.9c-2.1-2.8-3.7-5.9-5.2-9c-0.8-1.5-1.1-3.4-1.6-5.1c-0.7-2.8-1.4-5.6-1-8.4
		c0.3-2.4,1-4.8,2.9-6.6c0.7-1,1.7-1.5,2.7-2.1c0.9-0.5,1.4-1.1,1.5-2.1c0.2-1.2,0.7-2.4,0.6-3.7c0-0.7,0.4-1,0.9-1.4
		c0.9,0.5,1.1,1.4,1.2,2.3c0,0.4,0,0.7,0,1.1c-0.7,0.6,0.1,1.5-0.5,2.1c0,0.7-0.2,1.4,0.2,2c-0.8,0.5-1.7,0.9-1.9,2
		c-0.6,1.2-0.1,2.5-0.3,3.8c0,0.8-0.1,1.6,0.4,2.4c0.9,2.9,1.8,5.8,2.9,8.5c1.8,4,4.2,7.6,7.1,10.9c1.3,1.5,2.8,2.7,4.2,4.1
		c1.4,1.5,3,2.6,4.8,3.6c1.4,1.2,3.1,1.8,4.7,2.9c1.7,1.2,3.8,1.5,5.7,2.2c0.5,0.2,0.8,0,1.1-0.4c1.5,0.1,2.7,0.8,4.1,1.3
		c0.6,0.2,1.1,0.8,0.7,1.5c-0.3,0.7-0.9,0.3-1.4,0.1c-0.6-0.1-1.2-0.4-1.8-0.5c1.7,0.9,3.6,1.3,5.4,1.6c0.7,0.1,1-0.9,1.6-1.1
		C63.5,55.8,63.3,56.9,64,56.8z"/>
	<path class="st5" d="M49,62.9C45.8,63,42.7,63,39.6,62c-0.6-0.2-1.5-0.3-1.5-1c0-0.8,0.8-1.1,1.5-1.4c0.2-0.1,0.5-0.1,0.7-0.2
		c1.3-0.1,2.3,0.8,3.2,1.3C45.3,61.7,47.3,61.9,49,62.9z"/>
	<path class="st6" d="M24.7,5.6c-0.5,0.7-0.7,1.4-0.6,2.3c0.2,1.3-0.5,2.5-0.7,3.7c-0.3,1.4-2.1,1.6-3.1,2.5
		c-0.3,0.3-0.8,0.6-1.4,0.7c0.1-1.8,1.7-2.4,2.7-3.4c0.2-0.2,0.7-0.2,0.7-0.7c0-1.2,0.3-2.4,0.5-3.6C23,5.7,23.5,5.4,24.7,5.6z"/>
	<path class="st7" d="M62.9,55.9c-0.6,1.1-1,1.9-2.7,1.3c-1.4-0.6-3.1-0.7-4.6-1.3c-0.3-0.1-0.9-0.2-0.7-0.7
		c0.1-0.6,0.8-0.5,1.1-0.3c0.6,0.3,1.3,0.5,2,0.7c0.3,0.1,0.6,0.6,0.8,0.1c0.2-0.4-0.1-0.7-0.4-1c-0.7-0.6-1.7-0.6-2.5-0.9
		c-0.5-0.2-1.1-0.6-1.7-0.7c-1.2,0.5-2.2-0.2-3.1-0.7c-1-0.6-2-1-3.1-1.3c-1.7-0.8-3.1-2.1-4.8-2.9c-1.7-1-3.3-2.2-4.7-3.6
		c-1.5-0.8-2.4-2.2-3.6-3.5c-1.7-1.9-3.3-3.9-4.7-6c-1.3-2-2.7-4-3.6-6.2c-1.2-2.5-2.2-5-2.8-7.7c0.2-1.3,0.9-1.8,2.6-1.6
		c0.9,1.3,1.1,2.9,1.6,4.3c0.5,1.7,1.4,3.1,2,4.7c0.9,2.7,2.5,5.2,4.2,7.4c1.8,2.4,3.8,4.9,6.2,6.9c4.1,3.4,8.6,6.2,13.5,8.2
		c3,1.2,5.7,2.9,8.6,4.3C62.6,55.5,62.8,55.6,62.9,55.9z"/>
	<path class="st8" d="M22.9,18.9c0-1,0-2,0-3c0-0.4-0.1-0.9,0.5-1.1c0.4,1.1,1.1,1.7,2.4,1.2c0.4,0.7,0.5,1.5,0.5,2.3
		c-0.9,0.6-2,0.4-2.8,1.1C23.1,19.8,23.1,19.1,22.9,18.9z"/>
	<path class="st9" d="M25.8,16c-0.4,1.1-1.3,0.6-1.9,0.5c-0.9-0.2-0.3-1.1-0.5-1.7c0.1-1.3,0.9-1.7,2-1.7C25,14.1,26,15,25.8,16z"/>
	<path class="st10" d="M22.9,18.9c0.2,0.1,0.3,0.5,0.5,0.3c0.8-1.1,1.9-0.8,2.9-0.9c0,0.4,0,0.8,0,1.2c-0.6,0.1-1,0.6-1.7,0.6
		c-0.8-0.1-0.6,0.7-0.7,1.1c-0.2,0.1-0.4,0.1-0.6,0C22.4,20.7,23.1,19.7,22.9,18.9z"/>
	<path class="st0" d="M25.3,11.1c0-0.7-0.1-1.4,0-2.1c0.1-0.6,0.3,0,0.5,0C25.6,9.7,26.3,10.6,25.3,11.1z"/>
	<path class="st11" d="M57.4,59.3c-2.6,0-5.2,0.3-7.7-0.1c-2.5-0.4-5-1-7.4-2.1c-3.7-1.7-7.2-3.6-10.2-6.3c-2.8-2.4-5.5-5.1-7.7-8.1
		c-1.4-2-2.6-4.1-3.8-6.2c-1.3-2.3-1.8-5-2.4-7.5c-0.7-2.9-0.6-5.6,0-8.5c0.2-1.1-0.1-2.3,0.6-3.3c0.2-0.3,0.2-0.8,0.5-0.7
		c0.5,0.1,0.4,0.6,0.3,1c-0.6,2.2,0.1,4.3,0.3,6.4c0.2,2.9,1.4,5.6,2.4,8.3c2.1,5.6,5.5,10.4,9.6,14.7c4.1,4.3,8.9,7.4,14.4,9.5
		c3.6,1.4,7.3,2.1,11.1,2.7C57.4,59.1,57.4,59.2,57.4,59.3z"/>
	<path class="st12" d="M26.9,28.8c0.8,2,2.1,3.8,3.2,5.6c2,3.1,4.3,5.8,6.7,8.5c0.5,0.6,1.3,0.7,1.6,1.5c0.2,1-0.4,0.7-0.9,0.6
		c-4.8-3.8-8.2-8.8-11.1-14.1c-0.2-0.3-0.2-0.6-0.2-1C26.1,28.9,26.1,28.8,26.9,28.8z"/>
	<path class="st13" d="M47.8,50.8c1.2-0.1,2.1,0.4,3,1c1,0.7,2.2,1,3.3,1.3c0.1,0.7-0.2,0.9-0.9,0.7c-1.9-0.6-3.9-1-5.7-2
		c-0.1-0.1-0.2-0.3-0.3-0.5C47.3,51,47.5,50.9,47.8,50.8z"/>
	<path class="st14" d="M37.6,45c0.4-0.1,0.9,0,0.9-0.6c1.5,1.2,3.1,2.3,4.6,3.5c0.3,0.7-0.1,0.7-0.6,0.6
		C40.5,47.8,39.1,46.4,37.6,45z"/>
	<path class="st15" d="M26.9,28.8c-0.8,0.1-0.4,0.7-0.5,1.1c-1.3-1.8-1.6-4-2.3-6.1c-0.3-0.8-0.8-1.7-0.6-2.6c0.2,0,0.4,0,0.6,0
		C24.7,23.9,25.8,26.3,26.9,28.8z"/>
	<path class="st16" d="M42.5,48.5c0.3-0.1,0.6-0.2,0.6-0.6c1.7,0.7,3.1,1.8,4.6,2.9c-0.1,0.3-0.3,0.5-0.6,0.6
		C45.5,50.6,43.8,49.9,42.5,48.5z"/>
</g>
</svg>
