<?xml version="1.0" encoding="utf-8"?>
<!-- Generator: Adobe Illustrator 22.1.0, SVG Export Plug-In . SVG Version: 6.00 Build 0)  -->
<svg version="1.1" id="Layer_1" xmlns="http://www.w3.org/2000/svg" xmlns:xlink="http://www.w3.org/1999/xlink" x="0px" y="0px"
	 viewBox="0 0 70 70" style="enable-background:new 0 0 70 70;" xml:space="preserve">
<style type="text/css">
	.st0{fill:#F6B448;}
	.st1{fill:#F6B24D;}
	.st2{fill:#E6E6E5;}
	.st3{fill:#9E763B;}
	.st4{fill:#F0DC0A;}
	.st5{fill:#CCCCCC;}
	.st6{fill:#F5C013;}
	.st7{fill:#ECE506;}
	.st8{fill:#F5F28D;}
	.st9{fill:#FAF7DA;}
	.st10{fill:#F0E948;}
	.st11{fill:#F5C407;}
	.st12{fill:#F8F8DF;}
	.st13{fill:#F0EC46;}
	.st14{fill:#F6F3A1;}
	.st15{fill:#F7F2A2;}
	.st16{fill:#F4EE73;}
</style>
<g>
	<path class="st0" d="M60.6,54.9c-1,1.6-2.6,2.3-4.2,2.9c-1.8,0.7-3.7,1-5.7,1c-1-0.2-2.1,0-3.1-0.2c-2.6-0.6-5-1.8-7.5-2.9
		c-0.5-0.7-1.3-1-1.9-1.6c-2.6-1.9-5.4-3.6-7.8-5.9c-4.7-4.4-8.3-9.4-10.2-15.6c-0.6-2-0.7-4.2-1.4-6.2c0-1.3,0-2.6,0-3.9
		c0.7-2.3,1.8-4.4,3.3-6.2c0.2-0.2,0.3-0.5,0.5-0.6c1.7-1,1.9-2.8,2.2-4.5c0.1-0.6-0.1-1.4,0.9-1.6c1.8-0.2,2.2,0,2.7,1.4
		c0.1,0.5,0.5,1.1-0.3,1.4c-0.9-0.2-0.6-1.4-1.4-1.7c-0.5-0.1-0.8,0-0.9,0.6c-0.1,1-0.6,1.8-0.5,2.8c0.1,0.7-0.3,1.2-0.9,1.6
		c-0.9,0.6-1.8,1.4-2.2,2.5c-0.8,1.3-1.5,2.6-1.9,4c-0.6,2-0.5,4,0,6c0.4,2,0.9,3.9,1.5,5.8c0.4,1.2,1,2.2,1.5,3.3
		c2,4.1,4.9,7.5,8.3,10.4c2.4,2.1,4.9,4,7.7,5.6c2.4,1.4,4.9,2.7,7.6,3.5c3.7,1.1,7.3,1,10.7-0.8c0.7-0.3,0.9-1,1.4-1.5
		C59.6,54.5,60,54.9,60.6,54.9z"/>
	<path class="st1" d="M28.1,12.2c0.8-0.2,0.3-0.9,0.5-1.3c0.4,0.3,0.5,0.7,0.3,1.2c-1,3.1-0.4,6.1,0.5,9.1c1.1,3.7,2.4,7.2,4.3,10.6
		C37.5,38.5,43,43.4,50,46.7c2.7,1.3,5.6,2.3,8.1,3.8c0.8,0.5,1.5,1,2.2,1.7c0,0.4,0.5,0.9-0.2,1.2c-0.6,0-0.7-0.6-1.1-0.8
		c-2.4-1.3-4.8-2.7-7.4-3.8c-3.7-1.6-7.2-3.4-10.2-6.1c-0.9-0.8-2-1.4-2.8-2.4c-2-2.5-4.2-4.9-5.8-7.8c-1.8-3.4-3.3-6.9-4.4-10.5
		c0-0.3-0.1-0.6-0.1-0.9c0-0.7-0.2-1.3-0.4-2c-0.1-0.8-0.6-1.6-0.5-2.5c-0.1-0.6-0.2-1.1,0-1.7c0.4-0.5,0.3-1.2,0.3-1.8
		C27.8,12.8,27.8,12.4,28.1,12.2z"/>
	<path class="st2" d="M38.3,53.9c0.8,0.3,1.6,0.6,2,1.4c-0.1,0.1-0.2,0.2-0.2,0.3c-0.3,0.3-1.1,0.4-0.9,1c0.1,0.6,0.9,0.6,1.4,0.8
		c1.8,0.5,3.7,0.6,5.6,0.6c0.5,0,1,0,1.4,0.2c1.1,0,2.1,0.1,3.2,0.5c-2.4,0.7-4.8,0.6-7.3,0.5c-3-0.2-6-0.3-8.8-1.6
		c-0.5-0.2-1.1-0.4-1.1-1c0-0.6,0.6-0.8,1-1.1c0.9-0.5,1.8-0.6,2.7-0.9C37.7,54.5,38.2,54.5,38.3,53.9z"/>
	<path class="st3" d="M60.1,53.2c0.5-0.3-0.2-0.7,0.2-1c0.9,0.8,1.2,1.7,0.3,2.7c-0.5,0.2-1.3,1.1-1.1-0.4
		C59.4,53.9,59.4,53.4,60.1,53.2z"/>
	<path class="st4" d="M60.1,53.2c-0.6,0.2-0.1,1-0.7,1.2c-0.7,1.9-2.6,2.3-4.2,2.8c-1.2,0.4-2.6,0.8-4,0.6c-2-0.3-3.9-0.6-5.8-1.3
		c-3.9-1.3-7.3-3.4-10.4-5.8c-3.1-2.4-6.2-5-8.6-8.3c-1.8-2.4-3.1-4.9-4.4-7.5c-0.6-1.3-0.9-2.8-1.3-4.3c-0.6-2.3-1.1-4.7-0.8-7.1
		c0.3-2,0.8-4,2.4-5.6c0.6-0.8,1.5-1.2,2.3-1.7c0.7-0.4,1.1-0.9,1.3-1.8c0.2-1,0.6-2,0.5-3.1c0-0.6,0.3-0.9,0.8-1.1
		c0.7,0.4,0.9,1.1,1,1.9c0,0.3,0,0.6,0,0.9c-0.6,0.5,0.1,1.3-0.4,1.7c0,0.6-0.1,1.1,0.2,1.7c-0.7,0.4-1.4,0.8-1.6,1.7
		c-0.5,1-0.1,2.1-0.2,3.2c0,0.7-0.1,1.4,0.3,2c0.8,2.4,1.5,4.8,2.4,7.2c1.5,3.4,3.5,6.4,6,9.2c1.1,1.3,2.3,2.3,3.5,3.4
		c1.2,1.2,2.5,2.2,4,3c1.2,1,2.6,1.5,3.9,2.4c1.4,1,3.2,1.3,4.8,1.8c0.4,0.1,0.7,0,0.9-0.3c1.2,0.1,2.3,0.6,3.4,1.1
		c0.5,0.2,0.9,0.7,0.6,1.3c-0.3,0.6-0.8,0.2-1.2,0.1c-0.5-0.1-1-0.3-1.5-0.4c1.4,0.8,3,1.1,4.6,1.4c0.6,0.1,0.8-0.7,1.4-0.9
		C59.7,52.4,59.6,53.2,60.1,53.2z"/>
	<path class="st5" d="M47.5,58.3c-2.7,0.1-5.3,0.1-7.9-0.8c-0.5-0.2-1.2-0.2-1.2-0.8c0-0.7,0.7-0.9,1.2-1.2c0.2-0.1,0.4-0.1,0.6-0.1
		c1.1-0.1,1.9,0.7,2.7,1.1C44.4,57.3,46.1,57.5,47.5,58.3z"/>
	<path class="st6" d="M27.1,10.3c-0.4,0.6-0.6,1.2-0.5,1.9c0.2,1.1-0.4,2.1-0.6,3.1c-0.2,1.2-1.8,1.3-2.6,2.1
		c-0.3,0.2-0.7,0.5-1.1,0.6c0.1-1.5,1.4-2,2.3-2.9c0.2-0.2,0.6-0.2,0.6-0.6c0-1,0.2-2,0.4-3C25.8,10.3,26.1,10.1,27.1,10.3z"/>
	<path class="st7" d="M59.2,52.4c-0.5,0.9-0.9,1.6-2.2,1.1c-1.2-0.5-2.6-0.6-3.9-1.1c-0.3-0.1-0.7-0.2-0.6-0.6
		c0.1-0.5,0.6-0.4,0.9-0.3c0.5,0.3,1.1,0.4,1.7,0.6c0.2,0.1,0.5,0.5,0.7,0.1c0.2-0.3-0.1-0.6-0.3-0.8c-0.6-0.5-1.4-0.5-2.1-0.8
		c-0.4-0.2-0.9-0.5-1.4-0.6c-1,0.5-1.9-0.1-2.6-0.6c-0.8-0.5-1.7-0.9-2.6-1.1c-1.4-0.7-2.6-1.7-4-2.4c-1.4-0.9-2.7-1.9-3.9-3.1
		c-1.3-0.7-2-1.9-3-2.9c-1.4-1.6-2.7-3.3-3.9-5c-1.1-1.7-2.3-3.3-3-5.2c-1-2.1-1.9-4.2-2.3-6.4c0.2-1.1,0.8-1.5,2.2-1.3
		c0.7,1.1,1,2.4,1.3,3.6c0.4,1.4,1.2,2.6,1.7,3.9c0.8,2.3,2.1,4.4,3.5,6.2c1.5,2.1,3.2,4.1,5.2,5.8c3.4,2.8,7.2,5.2,11.3,6.8
		c2.5,1,4.8,2.5,7.2,3.6C59,52.1,59.1,52.2,59.2,52.4z"/>
	<path class="st8" d="M25.7,21.4c0-0.8,0-1.7,0-2.5c0-0.4,0-0.8,0.4-0.9c0.4,0.9,0.9,1.5,2,1c0.3,0.6,0.5,1.3,0.4,1.9
		c-0.7,0.5-1.7,0.3-2.4,0.9C25.8,22.1,25.9,21.6,25.7,21.4z"/>
	<path class="st9" d="M28.1,19c-0.3,0.9-1.1,0.5-1.6,0.4c-0.7-0.2-0.2-0.9-0.4-1.4c0.1-1.1,0.8-1.4,1.7-1.5
		C27.4,17.4,28.3,18.1,28.1,19z"/>
	<path class="st10" d="M25.7,21.4c0.2,0.1,0.3,0.5,0.4,0.2c0.6-0.9,1.6-0.7,2.4-0.7c0,0.3,0,0.7,0,1c-0.5,0.1-0.8,0.5-1.4,0.5
		c-0.7,0-0.5,0.6-0.6,1c-0.2,0.1-0.3,0.1-0.5,0C25.2,22.9,25.9,22,25.7,21.4z"/>
	<path class="st0" d="M27.6,14.9c0-0.6-0.1-1.2,0-1.7c0.1-0.5,0.3,0,0.4,0C28,13.7,28.5,14.5,27.6,14.9z"/>
	<path class="st11" d="M54.6,55.3c-2.1,0-4.3,0.3-6.4-0.1c-2.1-0.3-4.2-0.8-6.2-1.7c-3.1-1.4-6-3.1-8.6-5.3c-2.4-2-4.6-4.3-6.4-6.8
		c-1.2-1.6-2.2-3.5-3.2-5.2c-1.1-2-1.5-4.2-2-6.3c-0.6-2.4-0.5-4.7,0-7.1c0.2-0.9-0.1-1.9,0.5-2.8c0.1-0.2,0.1-0.6,0.5-0.6
		c0.5,0.1,0.3,0.5,0.3,0.8c-0.5,1.8,0.1,3.6,0.2,5.4c0.2,2.5,1.1,4.7,2,6.9c1.8,4.7,4.6,8.7,8.1,12.3c3.4,3.6,7.4,6.2,12,8
		c3,1.2,6.1,1.7,9.3,2.2C54.6,55.1,54.6,55.2,54.6,55.3z"/>
	<path class="st12" d="M29,29.7c0.6,1.7,1.7,3.2,2.7,4.7c1.6,2.6,3.6,4.9,5.7,7.2c0.4,0.5,1.1,0.6,1.4,1.2c0.2,0.8-0.3,0.6-0.7,0.5
		c-4-3.2-6.8-7.4-9.3-11.8c-0.1-0.3-0.1-0.5-0.2-0.8C28.3,29.8,28.4,29.7,29,29.7z"/>
	<path class="st13" d="M46.5,48.1c1-0.1,1.8,0.3,2.5,0.9c0.9,0.6,1.8,0.8,2.8,1.1c0.1,0.6-0.2,0.8-0.8,0.6c-1.6-0.5-3.3-0.8-4.8-1.7
		c-0.1-0.1-0.1-0.3-0.2-0.4C46.1,48.3,46.3,48.2,46.5,48.1z"/>
	<path class="st14" d="M38,43.3c0.3,0,0.7,0,0.7-0.5c1.3,1,2.6,1.9,3.9,2.9c0.2,0.6-0.1,0.6-0.5,0.5C40.5,45.6,39.2,44.5,38,43.3z"
		/>
	<path class="st15" d="M29,29.7c-0.6,0.1-0.3,0.6-0.4,1c-1.1-1.5-1.3-3.4-1.9-5.1c-0.2-0.7-0.6-1.4-0.5-2.2c0.2,0,0.3,0,0.5,0
		C27.2,25.6,28.1,27.6,29,29.7z"/>
	<path class="st16" d="M42.1,46.2c0.3,0,0.5-0.1,0.5-0.5c1.4,0.6,2.6,1.5,3.9,2.4c-0.1,0.2-0.3,0.4-0.5,0.5
		C44.6,47.9,43.2,47.4,42.1,46.2z"/>
</g>
</svg>
