<?xml version="1.0" encoding="utf-8"?>
<!-- Generator: Adobe Illustrator 22.1.0, SVG Export Plug-In . SVG Version: 6.00 Build 0)  -->
<svg version="1.1" id="Layer_1" xmlns="http://www.w3.org/2000/svg" xmlns:xlink="http://www.w3.org/1999/xlink" x="0px" y="0px"
	 viewBox="0 0 70 70" style="enable-background:new 0 0 70 70;" xml:space="preserve">
<style type="text/css">
	.st0{fill:#F6B448;}
	.st1{fill:#F6B24D;}
	.st2{fill:#E6E6E5;}
	.st3{fill:#9E763B;}
	.st4{fill:#F0DC0A;}
	.st5{fill:#CCCCCC;}
	.st6{fill:#F5C013;}
	.st7{fill:#ECE506;}
	.st8{fill:#F5F28D;}
	.st9{fill:#FAF7DA;}
	.st10{fill:#F0E948;}
	.st11{fill:#F5C407;}
	.st12{fill:#F8F8DF;}
	.st13{fill:#F0EC46;}
	.st14{fill:#F6F3A1;}
	.st15{fill:#F7F2A2;}
	.st16{fill:#F4EE73;}
</style>
<g>
	<path class="st0" d="M64.3,58.6c-1.1,1.9-3,2.7-5,3.4c-2.1,0.8-4.4,1.2-6.7,1.1c-1.2-0.3-2.4,0-3.6-0.3c-3.1-0.7-5.9-2.2-8.8-3.5
		c-0.6-0.8-1.6-1.2-2.2-1.9c-3.1-2.2-6.4-4.3-9.2-6.9c-5.5-5.2-9.8-11.1-12.1-18.4c-0.7-2.4-0.8-5-1.7-7.3c0-1.5,0-3.1,0-4.6
		c0.9-2.7,2.1-5.1,3.9-7.3c0.2-0.3,0.4-0.6,0.6-0.7c2-1.2,2.3-3.3,2.6-5.3c0.1-0.7-0.2-1.7,1.1-1.8c2.1-0.2,2.7,0,3.2,1.6
		c0.2,0.6,0.6,1.3-0.3,1.7c-1-0.3-0.7-1.7-1.7-2c-0.5-0.1-1,0-1.1,0.7c-0.1,1.1-0.7,2.1-0.6,3.3c0.1,0.8-0.3,1.4-1,1.9
		c-1.1,0.7-2.1,1.6-2.6,2.9c-1,1.5-1.7,3-2.2,4.8c-0.7,2.4-0.6,4.7-0.1,7.1c0.5,2.3,1,4.6,1.8,6.9c0.5,1.4,1.2,2.6,1.8,3.9
		c2.3,4.8,5.7,8.9,9.8,12.3c2.8,2.4,5.8,4.8,9.1,6.6c2.9,1.6,5.8,3.1,8.9,4.1c4.4,1.3,8.6,1.2,12.7-1c0.8-0.4,1.1-1.2,1.6-1.8
		C63.2,58.2,63.6,58.7,64.3,58.6z"/>
	<path class="st1" d="M26,8.2c0.9-0.2,0.4-1,0.6-1.5C27,7,27.2,7.5,27,8c-1.2,3.7-0.5,7.2,0.5,10.7c1.3,4.3,2.9,8.5,5.1,12.5
		c4.4,8,11,13.7,19.2,17.6c3.2,1.5,6.6,2.7,9.6,4.5c0.9,0.6,1.8,1.2,2.5,2c0,0.5,0.6,1.1-0.3,1.4c-0.7,0-0.8-0.7-1.3-0.9
		c-2.9-1.6-5.7-3.2-8.7-4.5c-4.3-1.8-8.5-4-12.1-7.1c-1.1-1-2.4-1.7-3.4-2.8c-2.4-3-5-5.8-6.8-9.2c-2.1-4-3.9-8.1-5.2-12.4
		c-0.1-0.4-0.1-0.7-0.1-1.1c0-0.8-0.2-1.6-0.4-2.3c-0.2-1-0.7-1.9-0.6-3c-0.1-0.7-0.2-1.3,0.1-2c0.5-0.6,0.3-1.4,0.4-2.1
		C25.6,8.8,25.6,8.5,26,8.2z"/>
	<path class="st2" d="M38,57.5c0.9,0.4,1.9,0.7,2.3,1.7c-0.1,0.1-0.2,0.2-0.3,0.3c-0.4,0.4-1.3,0.5-1.1,1.1c0.2,0.7,1,0.8,1.6,0.9
		c2.2,0.5,4.4,0.7,6.6,0.7c0.6,0,1.1,0.1,1.7,0.3c1.3,0,2.5,0.1,3.7,0.6c-2.8,0.8-5.7,0.8-8.6,0.6c-3.5-0.2-7.1-0.3-10.4-1.8
		c-0.6-0.3-1.3-0.5-1.3-1.2c0-0.7,0.7-1,1.2-1.3c1-0.6,2.2-0.7,3.2-1.1C37.3,58.2,37.9,58.2,38,57.5z"/>
	<path class="st3" d="M63.7,56.6c0.6-0.3-0.2-0.9,0.2-1.2c1.1,1,1.4,2,0.3,3.2c-0.6,0.2-1.5,1.3-1.3-0.5
		C62.9,57.4,62.9,56.8,63.7,56.6z"/>
	<path class="st4" d="M63.7,56.6c-0.7,0.2-0.1,1.2-0.8,1.4c-0.8,2.3-3.1,2.7-5,3.3c-1.5,0.4-3,1-4.7,0.7c-2.3-0.4-4.6-0.8-6.9-1.5
		c-4.6-1.5-8.6-4-12.3-6.8c-3.7-2.8-7.3-6-10.2-9.8c-2.1-2.8-3.7-5.8-5.2-8.9c-0.7-1.5-1.1-3.3-1.5-5c-0.7-2.8-1.3-5.5-1-8.4
		c0.3-2.4,1-4.8,2.8-6.6c0.7-1,1.7-1.5,2.7-2c0.8-0.5,1.3-1.1,1.5-2.1c0.2-1.2,0.7-2.4,0.6-3.6c0-0.7,0.4-1,0.9-1.3
		c0.8,0.5,1.1,1.3,1.1,2.3c0,0.4,0,0.7,0,1.1c-0.7,0.6,0.1,1.5-0.5,2.1c0,0.7-0.2,1.3,0.2,2c-0.8,0.5-1.7,0.9-1.9,2
		c-0.6,1.2-0.1,2.5-0.3,3.7c0,0.8-0.1,1.6,0.4,2.3c0.9,2.8,1.7,5.7,2.9,8.5c1.8,4,4.2,7.5,7,10.8c1.3,1.5,2.8,2.7,4.2,4
		c1.4,1.4,2.9,2.6,4.7,3.5c1.4,1.2,3.1,1.8,4.6,2.8c1.7,1.2,3.7,1.5,5.6,2.1c0.5,0.2,0.8,0,1.1-0.4c1.4,0.1,2.7,0.7,4,1.2
		c0.6,0.2,1,0.8,0.7,1.5c-0.3,0.7-0.9,0.3-1.4,0.1c-0.6-0.1-1.2-0.4-1.8-0.5c1.7,0.9,3.5,1.3,5.4,1.6c0.7,0.1,1-0.9,1.6-1
		C63.3,55.6,63.1,56.6,63.7,56.6z"/>
	<path class="st5" d="M48.9,62.6c-3.1,0.1-6.3,0.1-9.3-0.9c-0.6-0.2-1.4-0.3-1.5-1c0-0.8,0.8-1.1,1.5-1.4c0.2-0.1,0.5-0.1,0.7-0.2
		c1.3-0.1,2.2,0.8,3.2,1.3C45.2,61.5,47.2,61.6,48.9,62.6z"/>
	<path class="st6" d="M24.8,5.9c-0.5,0.7-0.7,1.4-0.6,2.3c0.2,1.3-0.5,2.5-0.7,3.7c-0.3,1.4-2.1,1.6-3.1,2.5
		c-0.3,0.3-0.8,0.6-1.3,0.7c0.1-1.7,1.7-2.4,2.7-3.4c0.2-0.2,0.7-0.2,0.7-0.7c0-1.2,0.3-2.4,0.5-3.6C23.2,6,23.6,5.7,24.8,5.9z"/>
	<path class="st7" d="M62.6,55.7c-0.5,1.1-1,1.9-2.6,1.3c-1.4-0.6-3.1-0.7-4.6-1.3c-0.3-0.1-0.8-0.2-0.7-0.7
		c0.1-0.6,0.8-0.5,1.1-0.3c0.6,0.3,1.3,0.5,2,0.7c0.3,0.1,0.5,0.6,0.8,0.1c0.2-0.4-0.1-0.7-0.4-0.9c-0.7-0.6-1.7-0.6-2.5-0.9
		c-0.5-0.2-1.1-0.6-1.6-0.7c-1.2,0.5-2.2-0.2-3.1-0.7c-1-0.6-2-1-3.1-1.3c-1.7-0.8-3.1-2-4.8-2.9c-1.7-1-3.2-2.2-4.6-3.6
		c-1.5-0.8-2.4-2.2-3.5-3.4c-1.7-1.9-3.2-3.9-4.6-6c-1.3-2-2.7-3.9-3.6-6.2c-1.2-2.4-2.2-4.9-2.7-7.6c0.2-1.3,0.9-1.7,2.6-1.6
		c0.9,1.3,1.1,2.8,1.6,4.3c0.5,1.6,1.4,3,2,4.6c0.9,2.7,2.5,5.2,4.1,7.4c1.8,2.4,3.7,4.9,6.1,6.9c4,3.4,8.5,6.1,13.3,8.1
		c3,1.2,5.6,2.9,8.5,4.2C62.4,55.3,62.6,55.4,62.6,55.7z"/>
	<path class="st8" d="M23.1,19c0-1,0-2,0-3c0-0.4-0.1-0.9,0.5-1c0.4,1.1,1.1,1.7,2.4,1.2c0.4,0.7,0.5,1.5,0.5,2.3
		c-0.8,0.6-2,0.4-2.8,1.1C23.3,19.9,23.3,19.3,23.1,19z"/>
	<path class="st9" d="M26,16.2c-0.4,1.1-1.3,0.6-1.9,0.5c-0.9-0.2-0.3-1.1-0.5-1.7c0.1-1.3,0.9-1.7,2-1.7
		C25.2,14.3,26.2,15.2,26,16.2z"/>
	<path class="st10" d="M23.1,19c0.2,0.1,0.3,0.5,0.5,0.3c0.7-1.1,1.8-0.8,2.9-0.8c0,0.4,0,0.8,0,1.2c-0.6,0.1-1,0.6-1.7,0.6
		c-0.8-0.1-0.5,0.7-0.7,1.1c-0.2,0.1-0.4,0.1-0.6,0C22.5,20.8,23.3,19.8,23.1,19z"/>
	<path class="st0" d="M25.4,11.3c0-0.7-0.1-1.4,0-2.1c0.1-0.6,0.3,0,0.5,0C25.8,10,26.4,10.9,25.4,11.3z"/>
	<path class="st11" d="M57.3,59.1c-2.5,0-5.1,0.3-7.6-0.1c-2.5-0.4-5-1-7.4-2c-3.7-1.6-7.1-3.6-10.1-6.2c-2.8-2.4-5.4-5-7.6-8.1
		c-1.4-1.9-2.5-4.1-3.7-6.2c-1.3-2.3-1.8-4.9-2.4-7.5c-0.7-2.9-0.6-5.6,0-8.4c0.2-1.1-0.1-2.3,0.6-3.3c0.2-0.3,0.1-0.8,0.5-0.7
		c0.5,0.1,0.4,0.6,0.3,0.9c-0.6,2.1,0.1,4.2,0.3,6.3c0.2,2.9,1.3,5.5,2.3,8.2c2.1,5.5,5.5,10.3,9.5,14.5c4,4.2,8.8,7.3,14.2,9.4
		c3.6,1.4,7.3,2.1,11,2.7C57.3,58.9,57.3,59,57.3,59.1z"/>
	<path class="st12" d="M27,28.8c0.8,2,2,3.8,3.2,5.6c1.9,3,4.3,5.8,6.7,8.4c0.5,0.6,1.3,0.7,1.6,1.5c0.2,1-0.4,0.7-0.9,0.6
		c-4.8-3.8-8.1-8.7-11-14c-0.2-0.3-0.2-0.6-0.2-1C26.2,28.9,26.3,28.8,27,28.8z"/>
	<path class="st13" d="M47.7,50.6c1.1-0.1,2.1,0.4,3,1c1,0.7,2.2,0.9,3.3,1.3c0.1,0.7-0.2,0.9-0.9,0.7c-1.9-0.6-3.9-1-5.7-1.9
		c-0.1-0.1-0.2-0.3-0.3-0.5C47.2,50.8,47.4,50.7,47.7,50.6z"/>
	<path class="st14" d="M37.7,44.9c0.4-0.1,0.8,0,0.9-0.6c1.5,1.1,3.1,2.3,4.6,3.4c0.3,0.7-0.1,0.7-0.6,0.6
		C40.5,47.7,39.1,46.3,37.7,44.9z"/>
	<path class="st15" d="M27,28.8c-0.8,0.1-0.4,0.7-0.5,1.1c-1.2-1.8-1.6-4-2.2-6c-0.3-0.8-0.7-1.7-0.6-2.6c0.2,0,0.4,0,0.6,0
		C24.9,24,26,26.4,27,28.8z"/>
	<path class="st16" d="M42.5,48.3c0.3-0.1,0.6-0.2,0.6-0.6c1.7,0.7,3.1,1.8,4.6,2.8c-0.1,0.3-0.3,0.5-0.6,0.6
		C45.5,50.4,43.7,49.8,42.5,48.3z"/>
</g>
</svg>
