<?xml version="1.0" encoding="utf-8"?>
<!-- Generator: Adobe Illustrator 22.1.0, SVG Export Plug-In . SVG Version: 6.00 Build 0)  -->
<svg version="1.1" id="Layer_1" xmlns="http://www.w3.org/2000/svg" xmlns:xlink="http://www.w3.org/1999/xlink" x="0px" y="0px"
	 viewBox="0 0 70 70" style="enable-background:new 0 0 70 70;" xml:space="preserve">
<style type="text/css">
	.st0{fill:#F6B448;}
	.st1{fill:#F6B24D;}
	.st2{fill:#E6E6E5;}
	.st3{fill:#9E763B;}
	.st4{fill:#F0DC0A;}
	.st5{fill:#CCCCCC;}
	.st6{fill:#F5C013;}
	.st7{fill:#ECE506;}
	.st8{fill:#F5F28D;}
	.st9{fill:#FAF7DA;}
	.st10{fill:#F0E948;}
	.st11{fill:#F5C407;}
	.st12{fill:#F8F8DF;}
	.st13{fill:#F0EC46;}
	.st14{fill:#F6F3A1;}
	.st15{fill:#F7F2A2;}
	.st16{fill:#F4EE73;}
</style>
<g>
	<path class="st0" d="M64.8,59.1c-1.2,1.9-3.1,2.8-5.1,3.5c-2.2,0.8-4.5,1.2-6.8,1.2c-1.2-0.3-2.5,0-3.7-0.3c-3.2-0.7-6-2.2-9-3.5
		c-0.6-0.8-1.6-1.2-2.3-2c-3.2-2.3-6.5-4.4-9.4-7.1c-5.7-5.3-10.1-11.3-12.3-18.8c-0.7-2.5-0.8-5.1-1.7-7.5c0-1.6,0-3.1,0-4.7
		c0.9-2.7,2.2-5.2,4-7.5c0.2-0.3,0.4-0.6,0.7-0.8c2.1-1.2,2.3-3.3,2.7-5.4C22,5.6,21.7,4.5,23,4.4c2.2-0.2,2.7,0,3.3,1.7
		c0.2,0.6,0.6,1.3-0.3,1.7c-1-0.3-0.8-1.7-1.7-2c-0.5-0.1-1,0-1.1,0.7c-0.1,1.1-0.8,2.2-0.6,3.4c0.1,0.8-0.3,1.4-1,1.9
		c-1.1,0.7-2.1,1.7-2.6,3c-1,1.5-1.8,3.1-2.3,4.8c-0.7,2.4-0.6,4.8-0.1,7.3c0.5,2.4,1.1,4.7,1.8,7c0.5,1.4,1.2,2.7,1.8,4
		c2.4,4.9,5.9,9,10,12.6c2.9,2.5,5.9,4.9,9.3,6.7c2.9,1.6,5.9,3.2,9.1,4.2c4.4,1.3,8.8,1.2,12.9-1c0.8-0.4,1.1-1.2,1.7-1.8
		C63.7,58.6,64.1,59.2,64.8,59.1z"/>
	<path class="st1" d="M25.7,7.6c1-0.2,0.4-1.1,0.6-1.6c0.5,0.4,0.6,0.9,0.4,1.4c-1.3,3.7-0.5,7.3,0.5,11c1.3,4.4,2.9,8.7,5.2,12.7
		c4.5,8.2,11.2,14,19.6,18c3.3,1.5,6.7,2.7,9.8,4.6c1,0.6,1.8,1.3,2.6,2c0,0.5,0.7,1.1-0.3,1.4c-0.7,0-0.9-0.7-1.3-1
		c-2.9-1.6-5.8-3.3-8.9-4.6c-4.4-1.9-8.7-4.1-12.3-7.3c-1.1-1-2.5-1.7-3.4-2.9c-2.5-3-5.1-5.9-7-9.4c-2.2-4.1-3.9-8.3-5.3-12.7
		c-0.1-0.4-0.1-0.7-0.1-1.1c0-0.8-0.2-1.6-0.4-2.4c-0.2-1-0.7-2-0.6-3c-0.1-0.7-0.2-1.3,0.1-2c0.5-0.6,0.3-1.4,0.4-2.1
		C25.3,8.3,25.3,7.9,25.7,7.6z"/>
	<path class="st2" d="M37.9,57.9c1,0.4,1.9,0.7,2.4,1.7c-0.1,0.1-0.2,0.2-0.3,0.3c-0.4,0.4-1.3,0.5-1.1,1.2c0.2,0.7,1,0.8,1.7,0.9
		c2.2,0.6,4.5,0.7,6.8,0.8c0.6,0,1.2,0.1,1.7,0.3c1.3,0,2.6,0.1,3.8,0.6c-2.9,0.9-5.8,0.8-8.8,0.6c-3.6-0.2-7.3-0.3-10.6-1.9
		c-0.6-0.3-1.3-0.5-1.3-1.2c0-0.7,0.7-1,1.2-1.3c1-0.6,2.2-0.7,3.3-1.1C37.2,58.6,37.8,58.6,37.9,57.9z"/>
	<path class="st3" d="M64.2,57.1c0.6-0.3-0.2-0.9,0.2-1.2c1.1,1,1.4,2,0.3,3.2c-0.6,0.2-1.6,1.3-1.4-0.5
		C63.4,57.9,63.4,57.2,64.2,57.1z"/>
	<path class="st4" d="M64.2,57.1c-0.7,0.2-0.1,1.2-0.8,1.5c-0.9,2.3-3.1,2.8-5.1,3.4c-1.5,0.5-3.1,1-4.8,0.7c-2.4-0.4-4.7-0.8-7-1.5
		c-4.6-1.5-8.8-4.1-12.5-7c-3.8-2.9-7.4-6.1-10.4-10c-2.1-2.8-3.8-5.9-5.3-9.1c-0.8-1.6-1.1-3.4-1.6-5.1c-0.7-2.8-1.4-5.6-1-8.5
		c0.3-2.5,1-4.9,2.9-6.7c0.7-1,1.8-1.5,2.8-2.1c0.9-0.5,1.4-1.1,1.5-2.1c0.2-1.2,0.7-2.4,0.6-3.7c0-0.7,0.4-1.1,0.9-1.4
		c0.9,0.5,1.1,1.4,1.2,2.3c0,0.4,0,0.7,0,1.1c-0.7,0.6,0.1,1.5-0.5,2.1c0,0.7-0.2,1.4,0.2,2c-0.8,0.5-1.7,0.9-1.9,2
		c-0.6,1.2-0.1,2.5-0.3,3.8c0,0.8-0.1,1.6,0.4,2.4c0.9,2.9,1.8,5.8,2.9,8.6c1.8,4,4.3,7.7,7.2,11c1.3,1.5,2.8,2.8,4.2,4.1
		c1.4,1.5,3,2.7,4.8,3.6c1.4,1.2,3.2,1.9,4.7,2.9c1.7,1.2,3.8,1.5,5.8,2.2c0.5,0.2,0.8,0,1.1-0.4c1.5,0.1,2.8,0.8,4.1,1.3
		c0.6,0.2,1.1,0.8,0.7,1.5c-0.3,0.7-0.9,0.3-1.4,0.1c-0.6-0.1-1.2-0.4-1.8-0.5c1.7,1,3.6,1.3,5.5,1.7c0.7,0.1,1-0.9,1.7-1.1
		C63.8,56.1,63.6,57.1,64.2,57.1z"/>
	<path class="st5" d="M49.1,63.1c-3.2,0.1-6.4,0.1-9.5-0.9c-0.6-0.2-1.5-0.3-1.5-1c0-0.8,0.8-1.1,1.5-1.4c0.2-0.1,0.5-0.1,0.7-0.2
		c1.3-0.1,2.3,0.8,3.3,1.3C45.3,62,47.3,62.2,49.1,63.1z"/>
	<path class="st6" d="M24.5,5.3C24,6,23.8,6.8,23.9,7.6c0.2,1.3-0.5,2.5-0.7,3.8C22.9,12.9,21.1,13,20,14c-0.3,0.3-0.8,0.6-1.4,0.7
		c0.1-1.8,1.7-2.4,2.8-3.4c0.3-0.2,0.7-0.2,0.7-0.7c0-1.2,0.3-2.4,0.5-3.6C22.8,5.4,23.3,5.1,24.5,5.3z"/>
	<path class="st7" d="M63.1,56.1c-0.6,1.1-1.1,2-2.7,1.3c-1.5-0.6-3.1-0.7-4.6-1.3c-0.3-0.1-0.9-0.2-0.8-0.7
		c0.1-0.6,0.8-0.5,1.1-0.3c0.6,0.3,1.3,0.5,2,0.7c0.3,0.1,0.6,0.6,0.8,0.1c0.2-0.4-0.1-0.7-0.4-1c-0.7-0.6-1.7-0.6-2.5-0.9
		c-0.5-0.2-1.1-0.6-1.7-0.7c-1.2,0.5-2.3-0.2-3.2-0.7c-1-0.6-2-1-3.2-1.3c-1.7-0.8-3.2-2.1-4.9-2.9c-1.7-1-3.3-2.3-4.7-3.7
		c-1.5-0.8-2.5-2.2-3.6-3.5c-1.7-1.9-3.3-3.9-4.7-6.1c-1.3-2-2.7-4-3.6-6.3c-1.2-2.5-2.3-5-2.8-7.8c0.2-1.3,0.9-1.8,2.6-1.6
		c0.9,1.3,1.1,2.9,1.6,4.4c0.5,1.7,1.5,3.1,2,4.7c1,2.8,2.5,5.3,4.2,7.5c1.8,2.5,3.8,5,6.2,7c4.1,3.4,8.7,6.2,13.6,8.3
		c3,1.2,5.7,3,8.7,4.3C62.9,55.7,63.1,55.8,63.1,56.1z"/>
	<path class="st8" d="M22.8,18.7c0-1,0-2,0-3.1c0-0.4-0.1-0.9,0.5-1.1c0.4,1.1,1.1,1.8,2.4,1.2c0.4,0.7,0.5,1.5,0.5,2.3
		c-0.9,0.6-2,0.4-2.9,1.1C22.9,19.6,23,18.9,22.8,18.7z"/>
	<path class="st9" d="M25.7,15.8c-0.4,1.1-1.3,0.7-1.9,0.5c-0.9-0.2-0.3-1.1-0.5-1.7c0.1-1.3,0.9-1.7,2.1-1.7
		C24.9,13.9,25.9,14.8,25.7,15.8z"/>
	<path class="st10" d="M22.8,18.7c0.2,0.1,0.3,0.6,0.5,0.3c0.8-1.1,1.9-0.8,2.9-0.9c0,0.4,0,0.8,0,1.2c-0.6,0.1-1,0.6-1.7,0.6
		c-0.8-0.1-0.6,0.7-0.7,1.2c-0.2,0.2-0.4,0.1-0.6,0C22.2,20.5,23,19.5,22.8,18.7z"/>
	<path class="st0" d="M25.1,10.9c0-0.7-0.1-1.4,0-2.1c0.1-0.6,0.3,0.1,0.5,0C25.5,9.5,26.1,10.4,25.1,10.9z"/>
	<path class="st11" d="M57.6,59.6c-2.6,0-5.2,0.3-7.7-0.1c-2.5-0.4-5.1-1-7.5-2.1c-3.7-1.7-7.2-3.7-10.3-6.3
		c-2.9-2.5-5.6-5.1-7.8-8.2c-1.4-2-2.6-4.2-3.8-6.3c-1.4-2.4-1.8-5-2.5-7.6c-0.8-2.9-0.6-5.7,0-8.6c0.2-1.1-0.1-2.3,0.6-3.4
		c0.2-0.3,0.2-0.8,0.6-0.7c0.5,0.1,0.4,0.7,0.3,1c-0.6,2.2,0.1,4.3,0.3,6.5c0.2,3,1.4,5.7,2.4,8.3c2.1,5.6,5.6,10.5,9.7,14.8
		c4.1,4.3,9,7.4,14.5,9.6c3.6,1.4,7.4,2.1,11.2,2.7C57.6,59.4,57.6,59.5,57.6,59.6z"/>
	<path class="st12" d="M26.8,28.7c0.8,2.1,2.1,3.9,3.3,5.7c2,3.1,4.4,5.9,6.8,8.6c0.5,0.6,1.3,0.7,1.7,1.5c0.2,1-0.4,0.7-0.9,0.6
		c-4.9-3.9-8.2-8.9-11.2-14.2c-0.2-0.3-0.2-0.6-0.2-1C25.9,28.8,26,28.7,26.8,28.7z"/>
	<path class="st13" d="M47.9,50.9c1.2-0.1,2.2,0.4,3,1c1,0.7,2.2,1,3.4,1.3c0.1,0.7-0.2,0.9-0.9,0.7c-2-0.6-4-1-5.8-2
		c-0.1-0.1-0.2-0.3-0.3-0.5C47.3,51.2,47.6,51,47.9,50.9z"/>
	<path class="st14" d="M37.6,45.1c0.4-0.1,0.9,0,0.9-0.6c1.6,1.2,3.1,2.3,4.7,3.5c0.3,0.7-0.1,0.7-0.6,0.6
		C40.5,47.9,39.1,46.5,37.6,45.1z"/>
	<path class="st15" d="M26.8,28.7c-0.8,0.1-0.4,0.7-0.5,1.1C25,28,24.6,25.8,24,23.7c-0.3-0.8-0.8-1.7-0.6-2.7c0.2,0,0.4,0,0.6,0
		C24.5,23.8,25.7,26.2,26.8,28.7z"/>
	<path class="st16" d="M42.5,48.6c0.3-0.1,0.6-0.2,0.6-0.6c1.7,0.7,3.2,1.9,4.7,2.9c-0.1,0.3-0.3,0.5-0.6,0.6
		C45.6,50.7,43.8,50.1,42.5,48.6z"/>
</g>
</svg>
