<?xml version="1.0" encoding="utf-8"?>
<!-- Generator: Adobe Illustrator 22.1.0, SVG Export Plug-In . SVG Version: 6.00 Build 0)  -->
<svg version="1.1" id="Layer_1" xmlns="http://www.w3.org/2000/svg" xmlns:xlink="http://www.w3.org/1999/xlink" x="0px" y="0px"
	 viewBox="0 0 70 70" style="enable-background:new 0 0 70 70;" xml:space="preserve">
<style type="text/css">
	.st0{fill:#F6B448;}
	.st1{fill:#F6B24D;}
	.st2{fill:#E6E6E5;}
	.st3{fill:#9E763B;}
	.st4{fill:#F0DC0A;}
	.st5{fill:#CCCCCC;}
	.st6{fill:#F5C013;}
	.st7{fill:#ECE506;}
	.st8{fill:#F5F28D;}
	.st9{fill:#FAF7DA;}
	.st10{fill:#F0E948;}
	.st11{fill:#F5C407;}
	.st12{fill:#F8F8DF;}
	.st13{fill:#F0EC46;}
	.st14{fill:#F6F3A1;}
	.st15{fill:#F7F2A2;}
	.st16{fill:#F4EE73;}
</style>
<g>
	<path class="st0" d="M60.8,55.1c-1,1.6-2.6,2.3-4.3,2.9c-1.8,0.7-3.8,1-5.7,1c-1-0.2-2.1,0-3.1-0.2c-2.7-0.6-5.1-1.9-7.5-3
		c-0.5-0.7-1.3-1-1.9-1.7c-2.7-1.9-5.4-3.7-7.9-5.9c-4.7-4.4-8.4-9.5-10.3-15.8c-0.6-2.1-0.7-4.2-1.4-6.3c0-1.3,0-2.6,0-3.9
		c0.8-2.3,1.8-4.4,3.4-6.3c0.2-0.2,0.3-0.5,0.5-0.6c1.7-1,1.9-2.8,2.2-4.6c0.1-0.6-0.1-1.5,0.9-1.6c1.8-0.2,2.3,0,2.8,1.4
		c0.1,0.5,0.5,1.1-0.3,1.4c-0.9-0.2-0.6-1.4-1.5-1.7c-0.5-0.1-0.8,0-0.9,0.6c-0.1,1-0.6,1.8-0.5,2.9c0.1,0.7-0.3,1.2-0.9,1.6
		c-0.9,0.6-1.8,1.4-2.2,2.5c-0.8,1.3-1.5,2.6-1.9,4.1c-0.6,2-0.5,4,0,6.1c0.4,2,0.9,4,1.5,5.9c0.4,1.2,1,2.2,1.5,3.3
		c2,4.1,4.9,7.6,8.4,10.5c2.4,2.1,4.9,4.1,7.8,5.7c2.5,1.4,4.9,2.7,7.6,3.5c3.7,1.1,7.4,1,10.9-0.8c0.7-0.3,0.9-1,1.4-1.5
		C59.9,54.8,60.3,55.2,60.8,55.1z"/>
	<path class="st1" d="M28,11.9c0.8-0.2,0.3-0.9,0.5-1.3c0.4,0.3,0.5,0.7,0.4,1.2c-1.1,3.1-0.4,6.1,0.5,9.2c1.1,3.7,2.5,7.3,4.3,10.7
		c3.8,6.9,9.4,11.8,16.5,15.1c2.7,1.3,5.6,2.3,8.2,3.9c0.8,0.5,1.5,1.1,2.2,1.7c0,0.4,0.6,0.9-0.2,1.2c-0.6,0-0.7-0.6-1.1-0.8
		c-2.5-1.4-4.9-2.8-7.5-3.9c-3.7-1.6-7.3-3.4-10.4-6.1c-0.9-0.8-2.1-1.5-2.9-2.4c-2.1-2.5-4.3-5-5.9-7.9c-1.8-3.4-3.3-7-4.5-10.7
		c0-0.3-0.1-0.6-0.1-0.9c0-0.7-0.2-1.3-0.4-2c-0.1-0.8-0.6-1.6-0.5-2.5c-0.1-0.6-0.2-1.1,0-1.7c0.4-0.5,0.3-1.2,0.3-1.8
		C27.7,12.5,27.7,12.2,28,11.9z"/>
	<path class="st2" d="M38.3,54.2c0.8,0.3,1.6,0.6,2,1.5c-0.1,0.1-0.2,0.2-0.2,0.3c-0.3,0.3-1.1,0.4-0.9,1c0.1,0.6,0.9,0.7,1.4,0.8
		c1.9,0.5,3.8,0.6,5.7,0.6c0.5,0,1,0,1.4,0.2c1.1,0,2.2,0.1,3.2,0.5c-2.4,0.7-4.9,0.6-7.4,0.5c-3-0.2-6.1-0.3-8.9-1.6
		c-0.5-0.2-1.1-0.4-1.1-1c0-0.6,0.6-0.8,1-1.1c0.9-0.5,1.8-0.6,2.8-0.9C37.7,54.8,38.2,54.8,38.3,54.2z"/>
	<path class="st3" d="M60.4,53.4c0.5-0.3-0.2-0.7,0.2-1c0.9,0.8,1.2,1.7,0.3,2.7c-0.5,0.2-1.3,1.1-1.1-0.4
		C59.6,54.1,59.6,53.6,60.4,53.4z"/>
	<path class="st4" d="M60.4,53.4c-0.6,0.2-0.1,1-0.7,1.2c-0.7,2-2.6,2.3-4.2,2.8c-1.3,0.4-2.6,0.8-4,0.6c-2-0.3-4-0.7-5.9-1.3
		c-3.9-1.3-7.4-3.4-10.5-5.9c-3.2-2.4-6.2-5.1-8.7-8.4c-1.8-2.4-3.2-5-4.4-7.6c-0.6-1.3-0.9-2.8-1.3-4.3c-0.6-2.4-1.2-4.7-0.9-7.2
		c0.3-2.1,0.8-4.1,2.4-5.6c0.6-0.8,1.5-1.3,2.3-1.8c0.7-0.4,1.2-1,1.3-1.8c0.2-1,0.6-2,0.5-3.1c0-0.6,0.4-0.9,0.8-1.1
		c0.7,0.4,0.9,1.2,1,1.9c0,0.3,0,0.6,0,0.9c-0.6,0.5,0.1,1.3-0.5,1.8c0,0.6-0.2,1.2,0.2,1.7c-0.7,0.4-1.4,0.8-1.6,1.7
		c-0.5,1-0.1,2.1-0.2,3.2c0,0.7-0.1,1.4,0.3,2c0.8,2.4,1.5,4.9,2.5,7.2c1.5,3.4,3.6,6.5,6,9.3c1.1,1.3,2.4,2.3,3.6,3.5
		c1.2,1.2,2.5,2.2,4,3c1.2,1,2.7,1.6,3.9,2.4c1.4,1,3.2,1.3,4.8,1.8c0.4,0.1,0.7,0,1-0.3c1.2,0.1,2.3,0.6,3.4,1.1
		c0.5,0.2,0.9,0.7,0.6,1.3c-0.3,0.6-0.8,0.2-1.2,0.1c-0.5-0.1-1-0.3-1.5-0.4c1.4,0.8,3,1.1,4.6,1.4c0.6,0.1,0.8-0.7,1.4-0.9
		C60,52.6,59.8,53.5,60.4,53.4z"/>
	<path class="st5" d="M47.6,58.5c-2.7,0.1-5.4,0.1-8-0.8c-0.5-0.2-1.2-0.2-1.2-0.8c0-0.7,0.7-0.9,1.3-1.2c0.2-0.1,0.4-0.1,0.6-0.2
		c1.1-0.1,1.9,0.7,2.8,1.1C44.5,57.6,46.2,57.7,47.6,58.5z"/>
	<path class="st6" d="M27,10c-0.4,0.6-0.6,1.2-0.5,1.9c0.2,1.1-0.4,2.1-0.6,3.2c-0.2,1.2-1.8,1.4-2.6,2.1c-0.3,0.2-0.7,0.5-1.2,0.6
		c0.1-1.5,1.4-2,2.3-2.9c0.2-0.2,0.6-0.2,0.6-0.6c0-1,0.2-2,0.4-3.1C25.6,10,26,9.8,27,10z"/>
	<path class="st7" d="M59.4,52.7c-0.5,1-0.9,1.6-2.3,1.1c-1.2-0.5-2.6-0.6-3.9-1.1c-0.3-0.1-0.7-0.2-0.6-0.6
		c0.1-0.5,0.7-0.4,0.9-0.3c0.5,0.3,1.1,0.4,1.7,0.6c0.2,0.1,0.5,0.5,0.7,0.1c0.2-0.3-0.1-0.6-0.3-0.8c-0.6-0.5-1.4-0.5-2.1-0.8
		c-0.4-0.2-0.9-0.5-1.4-0.6c-1,0.5-1.9-0.1-2.7-0.6c-0.8-0.5-1.7-0.9-2.7-1.1c-1.5-0.7-2.7-1.8-4.1-2.5c-1.4-0.9-2.8-1.9-4-3.1
		c-1.3-0.7-2.1-1.9-3-3c-1.4-1.6-2.8-3.3-4-5.1c-1.1-1.7-2.3-3.4-3.1-5.3c-1-2.1-1.9-4.2-2.4-6.5c0.2-1.1,0.8-1.5,2.2-1.4
		c0.7,1.1,1,2.4,1.3,3.7c0.4,1.4,1.2,2.6,1.7,4c0.8,2.3,2.1,4.4,3.6,6.3c1.5,2.1,3.2,4.2,5.2,5.9c3.5,2.9,7.3,5.2,11.4,6.9
		c2.5,1,4.8,2.5,7.3,3.6C59.2,52.3,59.4,52.4,59.4,52.7z"/>
	<path class="st8" d="M25.5,21.2c0-0.9,0-1.7,0-2.6c0-0.4,0-0.8,0.4-0.9c0.4,1,1,1.5,2,1c0.3,0.6,0.5,1.3,0.4,2
		c-0.7,0.5-1.7,0.3-2.4,1C25.7,22,25.7,21.4,25.5,21.2z"/>
	<path class="st9" d="M28,18.8c-0.3,0.9-1.1,0.5-1.6,0.4c-0.7-0.2-0.2-1-0.4-1.4c0.1-1.1,0.8-1.4,1.7-1.5
		C27.3,17.2,28.2,17.9,28,18.8z"/>
	<path class="st10" d="M25.5,21.2c0.2,0.1,0.3,0.5,0.4,0.2c0.6-0.9,1.6-0.7,2.4-0.7c0,0.3,0,0.7,0,1c-0.5,0.1-0.8,0.5-1.4,0.5
		c-0.7,0-0.5,0.6-0.6,1c-0.2,0.1-0.3,0.1-0.5,0C25,22.7,25.7,21.9,25.5,21.2z"/>
	<path class="st0" d="M27.5,14.6c0-0.6-0.1-1.2,0-1.8c0.1-0.5,0.3,0,0.4,0C27.8,13.5,28.4,14.2,27.5,14.6z"/>
	<path class="st11" d="M54.8,55.6c-2.2,0-4.4,0.3-6.5-0.1c-2.1-0.3-4.3-0.8-6.3-1.7c-3.1-1.4-6.1-3.1-8.7-5.3
		c-2.4-2.1-4.7-4.3-6.5-6.9c-1.2-1.7-2.2-3.5-3.2-5.3c-1.1-2-1.5-4.2-2.1-6.4c-0.6-2.5-0.5-4.8,0-7.2c0.2-0.9-0.1-1.9,0.5-2.8
		c0.1-0.2,0.1-0.7,0.5-0.6c0.5,0.1,0.3,0.6,0.3,0.8c-0.5,1.8,0.1,3.6,0.2,5.4c0.2,2.5,1.2,4.8,2,7c1.8,4.7,4.7,8.8,8.2,12.5
		c3.5,3.6,7.5,6.2,12.2,8.1c3,1.2,6.2,1.8,9.4,2.3C54.8,55.4,54.8,55.5,54.8,55.6z"/>
	<path class="st12" d="M28.9,29.6c0.7,1.7,1.8,3.2,2.7,4.8c1.7,2.6,3.7,4.9,5.7,7.2c0.4,0.5,1.1,0.6,1.4,1.2
		c0.2,0.8-0.3,0.6-0.7,0.5c-4.1-3.2-6.9-7.4-9.4-12c-0.1-0.3-0.1-0.5-0.2-0.8C28.2,29.7,28.2,29.6,28.9,29.6z"/>
	<path class="st13" d="M46.6,48.3c1-0.1,1.8,0.3,2.6,0.9C50,49.8,51,50,52,50.2c0.1,0.6-0.2,0.8-0.8,0.6c-1.6-0.5-3.4-0.8-4.9-1.7
		c-0.1-0.1-0.1-0.3-0.2-0.4C46.2,48.5,46.4,48.4,46.6,48.3z"/>
	<path class="st14" d="M38,43.4c0.3,0,0.7,0,0.7-0.5c1.3,1,2.6,2,3.9,3c0.2,0.6-0.1,0.6-0.5,0.5C40.5,45.8,39.2,44.6,38,43.4z"/>
	<path class="st15" d="M28.9,29.6c-0.6,0.1-0.3,0.6-0.4,1c-1.1-1.5-1.3-3.4-1.9-5.1c-0.2-0.7-0.6-1.4-0.5-2.2c0.2,0,0.3,0,0.5,0
		C27,25.5,28,27.5,28.9,29.6z"/>
	<path class="st16" d="M42.1,46.3c0.3,0,0.5-0.1,0.5-0.5c1.5,0.6,2.7,1.6,3.9,2.4c-0.1,0.2-0.3,0.4-0.5,0.5
		C44.7,48.1,43.2,47.6,42.1,46.3z"/>
</g>
</svg>
