<?xml version="1.0" encoding="utf-8"?>
<!-- Generator: Adobe Illustrator 22.1.0, SVG Export Plug-In . SVG Version: 6.00 Build 0)  -->
<svg version="1.1" id="Layer_1" xmlns="http://www.w3.org/2000/svg" xmlns:xlink="http://www.w3.org/1999/xlink" x="0px" y="0px"
	 viewBox="0 0 70 70" style="enable-background:new 0 0 70 70;" xml:space="preserve">
<style type="text/css">
	.st0{fill:#F6B448;}
	.st1{fill:#F6B24D;}
	.st2{fill:#E6E6E5;}
	.st3{fill:#9E763B;}
	.st4{fill:#F0DC0A;}
	.st5{fill:#CCCCCC;}
	.st6{fill:#F5C013;}
	.st7{fill:#ECE506;}
	.st8{fill:#F5F28D;}
	.st9{fill:#FAF7DA;}
	.st10{fill:#F0E948;}
	.st11{fill:#F5C407;}
	.st12{fill:#F8F8DF;}
	.st13{fill:#F0EC46;}
	.st14{fill:#F6F3A1;}
	.st15{fill:#F7F2A2;}
	.st16{fill:#F4EE73;}
</style>
<g>
	<path class="st0" d="M60.1,54.4c-0.9,1.6-2.5,2.3-4.1,2.8c-1.8,0.6-3.6,1-5.5,0.9c-1-0.2-2,0-3-0.2c-2.6-0.6-4.9-1.8-7.3-2.9
		c-0.5-0.7-1.3-1-1.8-1.6c-2.6-1.8-5.3-3.6-7.6-5.7c-4.6-4.3-8.1-9.2-10-15.2c-0.6-2-0.7-4.1-1.4-6c0-1.3,0-2.5,0-3.8
		c0.7-2.2,1.7-4.3,3.2-6c0.2-0.2,0.3-0.5,0.5-0.6c1.7-1,1.9-2.7,2.2-4.4c0.1-0.6-0.1-1.4,0.9-1.5c1.8-0.2,2.2,0,2.7,1.3
		c0.1,0.5,0.5,1-0.3,1.4c-0.9-0.2-0.6-1.4-1.4-1.6c-0.4-0.1-0.8,0-0.9,0.5c-0.1,0.9-0.6,1.8-0.5,2.8c0.1,0.7-0.2,1.1-0.8,1.5
		c-0.9,0.6-1.7,1.3-2.1,2.4c-0.8,1.2-1.4,2.5-1.8,3.9c-0.5,2-0.5,3.9,0,5.9c0.4,1.9,0.9,3.8,1.5,5.7c0.4,1.1,1,2.2,1.5,3.2
		c1.9,4,4.7,7.3,8.1,10.2c2.3,2,4.8,3.9,7.5,5.5c2.4,1.3,4.8,2.6,7.4,3.4c3.6,1.1,7.1,1,10.5-0.8c0.6-0.3,0.9-1,1.3-1.5
		C59.2,54,59.5,54.5,60.1,54.4z"/>
	<path class="st1" d="M28.4,12.7c0.8-0.2,0.3-0.9,0.5-1.3c0.4,0.3,0.5,0.7,0.3,1.2c-1,3-0.4,5.9,0.4,8.9c1,3.6,2.4,7,4.2,10.3
		c3.7,6.6,9.1,11.4,15.9,14.6c2.7,1.2,5.4,2.2,8,3.8c0.8,0.5,1.5,1,2.1,1.7c0,0.4,0.5,0.9-0.2,1.1c-0.6,0-0.7-0.5-1.1-0.8
		c-2.4-1.3-4.7-2.7-7.2-3.7c-3.6-1.5-7-3.3-10-5.9c-0.9-0.8-2-1.4-2.8-2.4c-2-2.5-4.1-4.8-5.7-7.6c-1.8-3.3-3.2-6.7-4.3-10.3
		c0-0.3-0.1-0.6,0-0.9c0-0.7-0.2-1.3-0.4-1.9c-0.1-0.8-0.5-1.6-0.5-2.4c-0.1-0.5-0.2-1.1,0-1.6c0.4-0.5,0.3-1.1,0.3-1.7
		C28.1,13.3,28.1,13,28.4,12.7z"/>
	<path class="st2" d="M38.3,53.5c0.8,0.3,1.6,0.6,1.9,1.4c-0.1,0.1-0.2,0.2-0.2,0.3c-0.3,0.3-1,0.4-0.9,0.9c0.1,0.6,0.8,0.6,1.4,0.8
		c1.8,0.4,3.6,0.6,5.5,0.6c0.5,0,0.9,0,1.4,0.2c1.1,0,2.1,0.1,3.1,0.5c-2.3,0.7-4.7,0.6-7.1,0.5c-2.9-0.2-5.9-0.3-8.6-1.5
		c-0.5-0.2-1.1-0.4-1-1c0-0.6,0.5-0.8,1-1.1c0.8-0.5,1.8-0.6,2.7-0.9C37.8,54,38.2,54,38.3,53.5z"/>
	<path class="st3" d="M59.6,52.8c0.5-0.3-0.2-0.7,0.2-1c0.9,0.8,1.1,1.6,0.3,2.6c-0.5,0.2-1.3,1.1-1.1-0.4
		C58.9,53.4,58.9,52.9,59.6,52.8z"/>
	<path class="st4" d="M59.6,52.8c-0.6,0.2-0.1,1-0.7,1.2c-0.7,1.9-2.5,2.3-4.1,2.7c-1.2,0.4-2.5,0.8-3.9,0.6
		c-1.9-0.3-3.8-0.6-5.7-1.2c-3.8-1.2-7.1-3.3-10.1-5.7c-3.1-2.3-6-4.9-8.4-8.1c-1.7-2.3-3.1-4.8-4.3-7.4c-0.6-1.3-0.9-2.7-1.3-4.2
		c-0.6-2.3-1.1-4.6-0.8-6.9c0.2-2,0.8-3.9,2.3-5.4c0.6-0.8,1.4-1.2,2.2-1.7c0.7-0.4,1.1-0.9,1.2-1.7c0.2-1,0.6-2,0.5-3
		c0-0.5,0.3-0.9,0.8-1.1c0.7,0.4,0.9,1.1,0.9,1.9c0,0.3,0,0.6,0,0.9c-0.5,0.5,0.1,1.2-0.4,1.7c0,0.5-0.1,1.1,0.2,1.6
		c-0.7,0.4-1.4,0.8-1.5,1.6c-0.5,1-0.1,2.1-0.2,3.1c0,0.7-0.1,1.3,0.3,1.9c0.7,2.3,1.4,4.7,2.4,7c1.5,3.3,3.5,6.2,5.8,8.9
		c1.1,1.2,2.3,2.2,3.4,3.3c1.1,1.2,2.4,2.2,3.9,2.9c1.1,1,2.6,1.5,3.8,2.3c1.4,1,3.1,1.2,4.7,1.8c0.4,0.1,0.7,0,0.9-0.3
		c1.2,0.1,2.2,0.6,3.3,1c0.5,0.2,0.9,0.6,0.6,1.2c-0.3,0.6-0.7,0.2-1.1,0.1c-0.5-0.1-1-0.3-1.5-0.4c1.4,0.8,2.9,1.1,4.4,1.3
		c0.6,0.1,0.8-0.7,1.3-0.9C59.3,51.9,59.1,52.8,59.6,52.8z"/>
	<path class="st5" d="M47.3,57.7c-2.6,0.1-5.2,0.1-7.7-0.7c-0.5-0.2-1.2-0.2-1.2-0.8c0-0.6,0.7-0.9,1.2-1.1c0.2-0.1,0.4-0.1,0.6-0.1
		c1.1-0.1,1.9,0.6,2.7,1.1C44.3,56.8,46,56.9,47.3,57.7z"/>
	<path class="st6" d="M27.5,10.9c-0.4,0.6-0.6,1.2-0.5,1.9c0.2,1.1-0.4,2-0.6,3c-0.2,1.2-1.7,1.3-2.5,2.1c-0.2,0.2-0.7,0.5-1.1,0.6
		c0.1-1.4,1.4-2,2.2-2.8c0.2-0.2,0.6-0.2,0.6-0.6c0-1,0.2-2,0.4-2.9C26.1,10.9,26.5,10.7,27.5,10.9z"/>
	<path class="st7" d="M58.7,52c-0.5,0.9-0.9,1.6-2.2,1c-1.2-0.5-2.5-0.6-3.8-1.1c-0.3-0.1-0.7-0.2-0.6-0.6c0.1-0.5,0.6-0.4,0.9-0.3
		c0.5,0.3,1.1,0.4,1.6,0.6c0.2,0.1,0.5,0.5,0.7,0.1c0.2-0.3-0.1-0.6-0.3-0.8c-0.6-0.5-1.4-0.5-2.1-0.8c-0.4-0.2-0.9-0.5-1.4-0.6
		c-1,0.4-1.8-0.1-2.6-0.6c-0.8-0.5-1.7-0.8-2.6-1.1c-1.4-0.6-2.6-1.7-3.9-2.4c-1.4-0.8-2.7-1.8-3.8-3c-1.2-0.7-2-1.8-2.9-2.9
		c-1.4-1.6-2.7-3.2-3.8-4.9c-1.1-1.6-2.2-3.2-2.9-5.1c-1-2-1.8-4.1-2.3-6.3c0.2-1.1,0.7-1.4,2.1-1.3c0.7,1.1,0.9,2.4,1.3,3.5
		c0.4,1.4,1.2,2.5,1.6,3.8c0.8,2.2,2.1,4.3,3.4,6.1c1.5,2,3.1,4,5,5.7c3.3,2.8,7,5.1,11,6.7c2.4,1,4.6,2.4,7,3.5
		C58.5,51.6,58.7,51.7,58.7,52z"/>
	<path class="st8" d="M26,21.7c0-0.8,0-1.7,0-2.5c0-0.3,0-0.7,0.4-0.9c0.4,0.9,0.9,1.4,2,1c0.3,0.6,0.4,1.2,0.4,1.9
		c-0.7,0.5-1.6,0.3-2.3,0.9C26.2,22.4,26.2,21.9,26,21.7z"/>
	<path class="st9" d="M28.4,19.3c-0.3,0.9-1.1,0.5-1.6,0.4c-0.7-0.2-0.2-0.9-0.4-1.4c0.1-1,0.7-1.4,1.7-1.4
		C27.7,17.8,28.6,18.5,28.4,19.3z"/>
	<path class="st10" d="M26,21.7c0.2,0.1,0.3,0.4,0.4,0.2c0.6-0.9,1.5-0.6,2.4-0.7c0,0.3,0,0.7,0,1c-0.5,0.1-0.8,0.5-1.4,0.5
		c-0.7,0-0.5,0.6-0.5,0.9c-0.2,0.1-0.3,0.1-0.5,0C25.6,23.2,26.2,22.3,26,21.7z"/>
	<path class="st0" d="M27.9,15.3c0-0.6-0.1-1.1,0-1.7c0.1-0.5,0.3,0,0.4,0C28.2,14.2,28.8,14.9,27.9,15.3z"/>
	<path class="st11" d="M54.3,54.8c-2.1,0-4.2,0.2-6.3-0.1c-2.1-0.3-4.1-0.8-6.1-1.7c-3-1.4-5.9-3-8.4-5.1c-2.3-2-4.5-4.2-6.3-6.7
		c-1.2-1.6-2.1-3.4-3.1-5.1c-1.1-1.9-1.5-4.1-2-6.2c-0.6-2.4-0.5-4.6,0-6.9c0.2-0.9,0-1.9,0.5-2.7c0.1-0.2,0.1-0.6,0.4-0.6
		c0.4,0.1,0.3,0.5,0.3,0.8c-0.5,1.8,0.1,3.5,0.2,5.2c0.2,2.4,1.1,4.6,1.9,6.8c1.7,4.6,4.5,8.5,7.9,12c3.3,3.5,7.3,6,11.7,7.8
		c2.9,1.2,6,1.7,9.1,2.2C54.3,54.6,54.3,54.7,54.3,54.8z"/>
	<path class="st12" d="M29.3,29.8c0.6,1.7,1.7,3.1,2.6,4.6c1.6,2.5,3.6,4.8,5.5,7c0.4,0.5,1.1,0.6,1.3,1.2c0.2,0.8-0.3,0.6-0.7,0.5
		c-3.9-3.1-6.7-7.2-9.1-11.5c-0.1-0.3-0.1-0.5-0.2-0.8C28.6,29.9,28.6,29.8,29.3,29.8z"/>
	<path class="st13" d="M46.4,47.8c0.9-0.1,1.8,0.3,2.5,0.8c0.8,0.6,1.8,0.8,2.7,1c0,0.6-0.2,0.7-0.8,0.6c-1.6-0.5-3.2-0.8-4.7-1.6
		c-0.1-0.1-0.1-0.3-0.2-0.4C46,48,46.1,47.9,46.4,47.8z"/>
	<path class="st14" d="M38.1,43c0.3,0,0.7,0,0.7-0.5c1.3,1,2.5,1.9,3.8,2.9c0.2,0.6-0.1,0.6-0.5,0.5C40.4,45.4,39.3,44.2,38.1,43z"
		/>
	<path class="st15" d="M29.3,29.8c-0.6,0.1-0.3,0.6-0.4,0.9c-1-1.5-1.3-3.3-1.9-5c-0.2-0.7-0.6-1.4-0.5-2.2c0.2,0,0.3,0,0.5,0
		C27.5,25.8,28.4,27.8,29.3,29.8z"/>
	<path class="st16" d="M42.1,45.9c0.3,0,0.5-0.1,0.5-0.5c1.4,0.6,2.6,1.5,3.8,2.3c-0.1,0.2-0.2,0.4-0.5,0.5
		C44.5,47.6,43.1,47.1,42.1,45.9z"/>
</g>
</svg>
