<?xml version="1.0" encoding="utf-8"?>
<!-- Generator: Adobe Illustrator 22.1.0, SVG Export Plug-In . SVG Version: 6.00 Build 0)  -->
<svg version="1.1" id="Layer_1" xmlns="http://www.w3.org/2000/svg" xmlns:xlink="http://www.w3.org/1999/xlink" x="0px" y="0px"
	 viewBox="0 0 70 70" style="enable-background:new 0 0 70 70;" xml:space="preserve">
<style type="text/css">
	.st0{fill:#F6B448;}
	.st1{fill:#F6B24D;}
	.st2{fill:#E6E6E5;}
	.st3{fill:#9E763B;}
	.st4{fill:#F0DC0A;}
	.st5{fill:#CCCCCC;}
	.st6{fill:#F5C013;}
	.st7{fill:#ECE506;}
	.st8{fill:#F5F28D;}
	.st9{fill:#FAF7DA;}
	.st10{fill:#F0E948;}
	.st11{fill:#F5C407;}
	.st12{fill:#F8F8DF;}
	.st13{fill:#F0EC46;}
	.st14{fill:#F6F3A1;}
	.st15{fill:#F7F2A2;}
	.st16{fill:#F4EE73;}
</style>
<g>
	<path class="st0" d="M60.3,54.6c-0.9,1.6-2.5,2.3-4.2,2.9c-1.8,0.6-3.7,1-5.6,1c-1-0.2-2,0-3-0.2c-2.6-0.6-4.9-1.8-7.4-2.9
		c-0.5-0.7-1.3-1-1.9-1.6c-2.6-1.9-5.3-3.6-7.7-5.8c-4.6-4.3-8.2-9.3-10.1-15.4c-0.6-2-0.7-4.1-1.4-6.1c0-1.3,0-2.6,0-3.8
		c0.7-2.2,1.8-4.3,3.3-6.1c0.2-0.2,0.3-0.5,0.5-0.6c1.7-1,1.9-2.7,2.2-4.4c0.1-0.6-0.1-1.4,0.9-1.5c1.8-0.2,2.2,0,2.7,1.4
		c0.1,0.5,0.5,1.1-0.3,1.4c-0.9-0.2-0.6-1.4-1.4-1.7c-0.4-0.1-0.8,0-0.9,0.5c-0.1,0.9-0.6,1.8-0.5,2.8c0.1,0.7-0.3,1.2-0.9,1.6
		c-0.9,0.6-1.8,1.4-2.2,2.4c-0.8,1.2-1.5,2.5-1.8,4c-0.5,2-0.5,3.9,0,6c0.4,1.9,0.9,3.9,1.5,5.8c0.4,1.1,1,2.2,1.5,3.3
		c2,4,4.8,7.4,8.2,10.3c2.4,2,4.8,4,7.6,5.5c2.4,1.3,4.8,2.6,7.5,3.4c3.6,1.1,7.2,1,10.6-0.8c0.6-0.3,0.9-1,1.4-1.5
		C59.4,54.3,59.8,54.7,60.3,54.6z"/>
	<path class="st1" d="M28.3,12.5c0.8-0.2,0.3-0.9,0.5-1.3c0.4,0.3,0.5,0.7,0.3,1.2c-1,3.1-0.4,6,0.5,9c1.1,3.6,2.4,7.1,4.2,10.4
		c3.7,6.7,9.2,11.5,16.1,14.7c2.7,1.3,5.5,2.2,8.1,3.8c0.8,0.5,1.5,1,2.1,1.7c0,0.4,0.5,0.9-0.2,1.1c-0.6,0-0.7-0.5-1.1-0.8
		c-2.4-1.3-4.7-2.7-7.3-3.8c-3.6-1.5-7.1-3.4-10.1-6c-0.9-0.8-2-1.4-2.8-2.4c-2-2.5-4.2-4.8-5.7-7.7c-1.8-3.3-3.2-6.8-4.3-10.4
		c0-0.3-0.1-0.6,0-0.9c0-0.7-0.2-1.3-0.4-1.9c-0.1-0.8-0.5-1.6-0.5-2.5c-0.1-0.5-0.2-1.1,0-1.6c0.4-0.5,0.3-1.2,0.3-1.8
		C28,13,28,12.7,28.3,12.5z"/>
	<path class="st2" d="M38.3,53.7c0.8,0.3,1.6,0.6,2,1.4c-0.1,0.1-0.2,0.2-0.2,0.3c-0.3,0.3-1.1,0.4-0.9,1c0.1,0.6,0.9,0.6,1.4,0.8
		c1.8,0.5,3.7,0.6,5.6,0.6c0.5,0,1,0,1.4,0.2c1.1,0,2.1,0.1,3.1,0.5c-2.4,0.7-4.8,0.6-7.2,0.5c-2.9-0.2-5.9-0.3-8.7-1.5
		c-0.5-0.2-1.1-0.4-1.1-1c0-0.6,0.6-0.8,1-1.1c0.8-0.5,1.8-0.6,2.7-0.9C37.7,54.3,38.2,54.3,38.3,53.7z"/>
	<path class="st3" d="M59.9,53c0.5-0.3-0.2-0.7,0.2-1c0.9,0.8,1.1,1.7,0.3,2.6c-0.5,0.2-1.3,1.1-1.1-0.4
		C59.1,53.6,59.2,53.1,59.9,53z"/>
	<path class="st4" d="M59.9,53c-0.6,0.2-0.1,1-0.7,1.2c-0.7,1.9-2.6,2.3-4.1,2.8c-1.2,0.4-2.5,0.8-3.9,0.6c-1.9-0.3-3.9-0.6-5.8-1.3
		c-3.8-1.3-7.2-3.4-10.3-5.7c-3.1-2.4-6.1-5-8.5-8.2c-1.8-2.3-3.1-4.9-4.3-7.4c-0.6-1.3-0.9-2.8-1.3-4.2c-0.6-2.3-1.1-4.6-0.8-7
		c0.2-2,0.8-4,2.4-5.5c0.6-0.8,1.4-1.2,2.3-1.7c0.7-0.4,1.1-0.9,1.3-1.8c0.2-1,0.6-2,0.5-3c0-0.5,0.3-0.9,0.8-1.1
		c0.7,0.4,0.9,1.1,1,1.9c0,0.3,0,0.6,0,0.9c-0.6,0.5,0.1,1.2-0.4,1.7c0,0.6-0.1,1.1,0.2,1.6c-0.7,0.4-1.4,0.8-1.6,1.6
		c-0.5,1-0.1,2.1-0.2,3.1c0,0.7-0.1,1.3,0.3,2c0.8,2.4,1.5,4.8,2.4,7.1c1.5,3.3,3.5,6.3,5.9,9.1c1.1,1.2,2.3,2.3,3.5,3.4
		c1.1,1.2,2.5,2.2,3.9,3c1.2,1,2.6,1.5,3.9,2.4c1.4,1,3.1,1.3,4.7,1.8c0.4,0.1,0.7,0,0.9-0.3c1.2,0.1,2.3,0.6,3.4,1
		c0.5,0.2,0.9,0.6,0.6,1.2c-0.3,0.6-0.7,0.2-1.1,0.1c-0.5-0.1-1-0.3-1.5-0.4c1.4,0.8,3,1.1,4.5,1.4c0.6,0.1,0.8-0.7,1.4-0.9
		C59.5,52.2,59.3,53,59.9,53z"/>
	<path class="st5" d="M47.4,58c-2.6,0.1-5.2,0.1-7.8-0.7c-0.5-0.2-1.2-0.2-1.2-0.8c0-0.6,0.7-0.9,1.2-1.1c0.2-0.1,0.4-0.1,0.6-0.1
		c1.1-0.1,1.9,0.6,2.7,1.1C44.4,57,46,57.2,47.4,58z"/>
	<path class="st6" d="M27.3,10.6c-0.4,0.6-0.6,1.2-0.5,1.9c0.2,1.1-0.4,2.1-0.6,3.1c-0.2,1.2-1.7,1.3-2.6,2.1
		c-0.2,0.2-0.7,0.5-1.1,0.6c0.1-1.5,1.4-2,2.3-2.8c0.2-0.2,0.6-0.2,0.6-0.6c0-1,0.2-2,0.4-3C25.9,10.6,26.3,10.4,27.3,10.6z"/>
	<path class="st7" d="M58.9,52.2c-0.5,0.9-0.9,1.6-2.2,1.1c-1.2-0.5-2.6-0.6-3.8-1.1c-0.3-0.1-0.7-0.2-0.6-0.6
		c0.1-0.5,0.6-0.4,0.9-0.3c0.5,0.3,1.1,0.4,1.6,0.6c0.2,0.1,0.5,0.5,0.7,0.1c0.2-0.3-0.1-0.6-0.3-0.8c-0.6-0.5-1.4-0.5-2.1-0.8
		c-0.4-0.2-0.9-0.5-1.4-0.6c-1,0.4-1.9-0.1-2.6-0.6c-0.8-0.5-1.7-0.8-2.6-1.1c-1.4-0.6-2.6-1.7-4-2.4c-1.4-0.9-2.7-1.9-3.9-3
		c-1.3-0.7-2-1.8-2.9-2.9c-1.4-1.6-2.7-3.2-3.9-5c-1.1-1.7-2.2-3.3-3-5.1c-1-2-1.9-4.1-2.3-6.4c0.2-1.1,0.8-1.5,2.2-1.3
		c0.7,1.1,0.9,2.4,1.3,3.6c0.4,1.4,1.2,2.5,1.7,3.9c0.8,2.3,2.1,4.3,3.5,6.2c1.5,2,3.1,4.1,5.1,5.7c3.4,2.8,7.1,5.1,11.2,6.8
		c2.5,1,4.7,2.4,7.1,3.6C58.7,51.9,58.9,52,58.9,52.2z"/>
	<path class="st8" d="M25.9,21.5c0-0.8,0-1.7,0-2.5c0-0.4,0-0.7,0.4-0.9c0.4,0.9,0.9,1.4,2,1c0.3,0.6,0.4,1.2,0.4,1.9
		C28,21.6,27,21.4,26.3,22C26,22.3,26,21.7,25.9,21.5z"/>
	<path class="st9" d="M28.3,19.2c-0.3,0.9-1.1,0.5-1.6,0.4c-0.7-0.2-0.2-0.9-0.4-1.4c0.1-1.1,0.8-1.4,1.7-1.4
		C27.6,17.6,28.4,18.3,28.3,19.2z"/>
	<path class="st10" d="M25.9,21.5c0.2,0.1,0.3,0.5,0.4,0.2c0.6-0.9,1.5-0.7,2.4-0.7c0,0.3,0,0.7,0,1c-0.5,0.1-0.8,0.5-1.4,0.5
		c-0.7,0-0.5,0.6-0.5,1c-0.2,0.1-0.3,0.1-0.5,0C25.4,23,26,22.2,25.9,21.5z"/>
	<path class="st0" d="M27.8,15.1c0-0.6-0.1-1.2,0-1.7c0.1-0.5,0.3,0,0.4,0C28.1,14,28.6,14.7,27.8,15.1z"/>
	<path class="st11" d="M54.4,55.1c-2.1,0-4.3,0.3-6.3-0.1c-2.1-0.3-4.2-0.8-6.2-1.7c-3.1-1.4-5.9-3-8.5-5.2c-2.3-2-4.6-4.2-6.4-6.7
		c-1.2-1.6-2.1-3.4-3.1-5.2c-1.1-1.9-1.5-4.1-2-6.3c-0.6-2.4-0.5-4.7,0-7c0.2-0.9,0-1.9,0.5-2.8c0.1-0.2,0.1-0.6,0.5-0.6
		c0.4,0.1,0.3,0.5,0.3,0.8c-0.5,1.8,0.1,3.5,0.2,5.3c0.2,2.4,1.1,4.6,2,6.8c1.8,4.6,4.6,8.6,8,12.2c3.4,3.5,7.4,6.1,11.9,7.9
		c3,1.2,6.1,1.7,9.2,2.2C54.4,54.9,54.4,55,54.4,55.1z"/>
	<path class="st12" d="M29.2,29.7c0.6,1.7,1.7,3.2,2.7,4.7c1.6,2.5,3.6,4.8,5.6,7.1c0.4,0.5,1.1,0.6,1.4,1.2
		c0.2,0.8-0.3,0.6-0.7,0.5c-4-3.2-6.8-7.3-9.2-11.7c-0.1-0.3-0.1-0.5-0.2-0.8C28.5,29.8,28.5,29.7,29.2,29.7z"/>
	<path class="st13" d="M46.4,47.9c1-0.1,1.8,0.3,2.5,0.9c0.8,0.6,1.8,0.8,2.8,1.1c0.1,0.6-0.2,0.8-0.8,0.6c-1.6-0.5-3.3-0.8-4.8-1.6
		c-0.1-0.1-0.1-0.3-0.2-0.4C46,48.1,46.2,48,46.4,47.9z"/>
	<path class="st14" d="M38,43.2c0.3,0,0.7,0,0.7-0.5c1.3,1,2.6,1.9,3.8,2.9c0.2,0.6-0.1,0.6-0.5,0.5C40.4,45.5,39.2,44.3,38,43.2z"
		/>
	<path class="st15" d="M29.2,29.7c-0.6,0.1-0.3,0.6-0.4,0.9c-1-1.5-1.3-3.3-1.9-5c-0.2-0.7-0.6-1.4-0.5-2.2c0.2,0,0.3,0,0.5,0
		C27.3,25.7,28.3,27.7,29.2,29.7z"/>
	<path class="st16" d="M42.1,46.1c0.3,0,0.5-0.1,0.5-0.5c1.4,0.6,2.6,1.5,3.8,2.4c-0.1,0.2-0.3,0.4-0.5,0.5
		C44.6,47.8,43.1,47.3,42.1,46.1z"/>
</g>
</svg>
