<?xml version="1.0" encoding="utf-8"?>
<!-- Generator: Adobe Illustrator 22.1.0, SVG Export Plug-In . SVG Version: 6.00 Build 0)  -->
<svg version="1.1" id="Layer_1" xmlns="http://www.w3.org/2000/svg" xmlns:xlink="http://www.w3.org/1999/xlink" x="0px" y="0px"
	 viewBox="0 0 70 70" style="enable-background:new 0 0 70 70;" xml:space="preserve">
<style type="text/css">
	.st0{fill:#F6B448;}
	.st1{fill:#F6B24D;}
	.st2{fill:#E6E6E5;}
	.st3{fill:#9E763B;}
	.st4{fill:#F0DC0A;}
	.st5{fill:#CCCCCC;}
	.st6{fill:#F5C013;}
	.st7{fill:#ECE506;}
	.st8{fill:#F5F28D;}
	.st9{fill:#FAF7DA;}
	.st10{fill:#F0E948;}
	.st11{fill:#F5C407;}
	.st12{fill:#F8F8DF;}
	.st13{fill:#F0EC46;}
	.st14{fill:#F6F3A1;}
	.st15{fill:#F7F2A2;}
	.st16{fill:#F4EE73;}
</style>
<g>
	<path class="st0" d="M62.8,57.1c-1.1,1.8-2.8,2.6-4.7,3.2c-2,0.7-4.1,1.1-6.3,1.1c-1.1-0.3-2.3,0-3.4-0.3c-2.9-0.7-5.6-2-8.3-3.2
		c-0.6-0.8-1.5-1.1-2.1-1.8c-2.9-2.1-6-4-8.6-6.5c-5.2-4.8-9.2-10.4-11.3-17.3c-0.7-2.3-0.7-4.6-1.6-6.9c0-1.4,0-2.9,0-4.3
		c0.8-2.5,2-4.8,3.7-6.9c0.2-0.2,0.4-0.6,0.6-0.7c1.9-1.1,2.1-3.1,2.4-5c0.1-0.7-0.2-1.6,1-1.7c2-0.2,2.5,0,3,1.5
		c0.1,0.6,0.5,1.2-0.3,1.6c-1-0.3-0.7-1.6-1.6-1.9c-0.5-0.1-0.9,0-1,0.6c-0.1,1.1-0.7,2-0.6,3.1c0.1,0.8-0.3,1.3-1,1.7
		c-1,0.7-2,1.5-2.4,2.7c-0.9,1.4-1.6,2.8-2.1,4.5c-0.6,2.2-0.6,4.4-0.1,6.7c0.5,2.2,1,4.3,1.7,6.5c0.4,1.3,1.1,2.4,1.7,3.7
		c2.2,4.5,5.4,8.3,9.2,11.6c2.7,2.3,5.4,4.5,8.5,6.2c2.7,1.5,5.4,3,8.4,3.8c4.1,1.2,8.1,1.1,11.9-0.9c0.7-0.4,1-1.1,1.5-1.7
		C61.8,56.7,62.2,57.2,62.8,57.1z"/>
	<path class="st1" d="M26.8,9.8c0.9-0.2,0.4-1,0.6-1.5c0.5,0.3,0.6,0.8,0.4,1.3c-1.2,3.4-0.5,6.7,0.5,10.1c1.2,4.1,2.7,8,4.8,11.7
		c4.2,7.5,10.3,12.9,18,16.5c3,1.4,6.2,2.5,9,4.3c0.9,0.5,1.7,1.2,2.4,1.9c0,0.5,0.6,1-0.3,1.3c-0.6,0-0.8-0.6-1.2-0.9
		c-2.7-1.5-5.3-3-8.2-4.3c-4.1-1.7-8-3.8-11.4-6.7c-1-0.9-2.3-1.6-3.1-2.7c-2.3-2.8-4.7-5.4-6.4-8.7c-2-3.8-3.6-7.6-4.9-11.7
		c-0.1-0.3-0.1-0.7-0.1-1c0-0.7-0.2-1.5-0.4-2.2c-0.2-0.9-0.6-1.8-0.5-2.8c-0.1-0.6-0.2-1.2,0.1-1.8c0.5-0.6,0.3-1.3,0.3-2
		C26.5,10.4,26.5,10,26.8,9.8z"/>
	<path class="st2" d="M38.1,56.1c0.9,0.3,1.8,0.6,2.2,1.6c-0.1,0.1-0.2,0.2-0.3,0.3c-0.4,0.4-1.2,0.4-1,1.1c0.2,0.7,1,0.7,1.5,0.9
		c2,0.5,4.1,0.7,6.2,0.7c0.5,0,1.1,0.1,1.6,0.2c1.2,0,2.4,0.1,3.5,0.5c-2.6,0.8-5.4,0.7-8.1,0.5c-3.3-0.2-6.7-0.3-9.8-1.7
		c-0.5-0.2-1.2-0.4-1.2-1.1c0-0.6,0.6-0.9,1.1-1.2c0.9-0.5,2-0.7,3-1C37.5,56.7,38,56.7,38.1,56.1z"/>
	<path class="st3" d="M62.3,55.2c0.5-0.3-0.2-0.8,0.2-1.1c1,0.9,1.3,1.9,0.3,3c-0.6,0.2-1.4,1.2-1.3-0.5
		C61.5,56,61.5,55.4,62.3,55.2z"/>
	<path class="st4" d="M62.3,55.2c-0.7,0.2-0.1,1.1-0.7,1.4c-0.8,2.1-2.9,2.6-4.6,3.1c-1.4,0.4-2.9,0.9-4.4,0.6
		c-2.2-0.4-4.3-0.7-6.5-1.4c-4.3-1.4-8.1-3.8-11.5-6.4c-3.5-2.7-6.8-5.6-9.5-9.2c-2-2.6-3.5-5.5-4.9-8.3c-0.7-1.4-1-3.1-1.4-4.7
		c-0.7-2.6-1.3-5.2-0.9-7.8c0.3-2.3,0.9-4.5,2.7-6.2c0.6-0.9,1.6-1.4,2.5-1.9c0.8-0.5,1.3-1,1.4-2c0.2-1.1,0.6-2.2,0.6-3.4
		c0-0.6,0.4-1,0.9-1.3c0.8,0.5,1,1.3,1.1,2.1c0,0.3,0,0.7,0,1c-0.6,0.5,0.1,1.4-0.5,1.9c0,0.6-0.2,1.3,0.2,1.8
		c-0.8,0.4-1.6,0.9-1.8,1.8c-0.5,1.1-0.1,2.3-0.3,3.5c0,0.8-0.1,1.5,0.3,2.2c0.8,2.7,1.6,5.3,2.7,7.9c1.7,3.7,3.9,7.1,6.6,10.2
		c1.2,1.4,2.6,2.5,3.9,3.8c1.3,1.4,2.8,2.5,4.4,3.3c1.3,1.1,2.9,1.7,4.3,2.7c1.6,1.1,3.5,1.4,5.3,2c0.5,0.1,0.8,0,1-0.3
		c1.4,0.1,2.5,0.7,3.8,1.2c0.6,0.2,1,0.7,0.7,1.4c-0.3,0.7-0.8,0.2-1.3,0.1c-0.6-0.1-1.1-0.4-1.7-0.5c1.6,0.9,3.3,1.2,5,1.5
		c0.7,0.1,0.9-0.8,1.5-1C61.9,54.3,61.7,55.3,62.3,55.2z"/>
	<path class="st5" d="M48.3,60.8c-2.9,0.1-5.9,0.1-8.7-0.8c-0.5-0.2-1.4-0.2-1.4-0.9c0-0.7,0.8-1,1.4-1.3c0.2-0.1,0.4-0.1,0.6-0.2
		c1.2-0.1,2.1,0.7,3,1.2C44.9,59.8,46.8,60,48.3,60.8z"/>
	<path class="st6" d="M25.7,7.7c-0.4,0.6-0.7,1.3-0.5,2.1c0.2,1.2-0.5,2.3-0.7,3.5c-0.2,1.3-2,1.5-2.9,2.4c-0.3,0.3-0.8,0.6-1.3,0.6
		c0.1-1.6,1.6-2.2,2.5-3.2c0.2-0.2,0.6-0.2,0.7-0.7c0-1.1,0.3-2.2,0.4-3.3C24.2,7.7,24.6,7.5,25.7,7.7z"/>
	<path class="st7" d="M61.2,54.4c-0.5,1-1,1.8-2.5,1.2c-1.3-0.5-2.9-0.7-4.3-1.2c-0.3-0.1-0.8-0.2-0.7-0.7c0.1-0.5,0.7-0.4,1-0.3
		c0.6,0.3,1.2,0.5,1.8,0.7c0.3,0.1,0.5,0.5,0.8,0.1c0.2-0.4-0.1-0.6-0.4-0.9c-0.7-0.6-1.6-0.5-2.3-0.9c-0.5-0.2-1-0.5-1.5-0.6
		c-1.1,0.5-2.1-0.2-2.9-0.7c-0.9-0.6-1.9-1-2.9-1.2c-1.6-0.7-2.9-1.9-4.5-2.7c-1.6-1-3-2.1-4.3-3.4c-1.4-0.8-2.3-2.1-3.3-3.2
		c-1.6-1.8-3-3.6-4.3-5.6c-1.2-1.9-2.5-3.7-3.3-5.8c-1.1-2.3-2.1-4.6-2.6-7.1c0.2-1.2,0.8-1.6,2.4-1.5c0.8,1.2,1.1,2.7,1.5,4
		c0.5,1.5,1.3,2.8,1.9,4.3c0.9,2.5,2.3,4.8,3.9,6.9c1.7,2.3,3.5,4.6,5.7,6.4c3.8,3.2,8,5.7,12.5,7.6c2.8,1.1,5.3,2.7,8,4
		C61,54,61.2,54.1,61.2,54.4z"/>
	<path class="st8" d="M24.2,20c0-0.9,0-1.9,0-2.8c0-0.4-0.1-0.8,0.5-1c0.4,1,1.1,1.6,2.2,1.1c0.3,0.7,0.5,1.4,0.5,2.2
		c-0.8,0.5-1.9,0.4-2.6,1C24.3,20.8,24.3,20.2,24.2,20z"/>
	<path class="st9" d="M26.8,17.3c-0.4,1-1.2,0.6-1.8,0.5c-0.8-0.2-0.3-1.1-0.5-1.6c0.1-1.2,0.8-1.6,1.9-1.6
		C26.1,15.6,27,16.4,26.8,17.3z"/>
	<path class="st10" d="M24.2,20c0.2,0.1,0.3,0.5,0.5,0.3c0.7-1,1.7-0.7,2.7-0.8c0,0.4,0,0.7,0,1.1c-0.5,0.1-0.9,0.6-1.6,0.5
		c-0.7-0.1-0.5,0.6-0.6,1.1c-0.2,0.1-0.4,0.1-0.5,0C23.6,21.6,24.3,20.7,24.2,20z"/>
	<path class="st0" d="M26.3,12.7c0-0.6-0.1-1.3,0-1.9c0.1-0.6,0.3,0,0.5,0C26.7,11.5,27.2,12.3,26.3,12.7z"/>
	<path class="st11" d="M56.2,57.6c-2.4,0-4.8,0.3-7.1-0.1c-2.3-0.4-4.7-0.9-6.9-1.9c-3.4-1.5-6.7-3.4-9.5-5.8
		c-2.6-2.3-5.1-4.7-7.1-7.6c-1.3-1.8-2.4-3.8-3.5-5.8c-1.3-2.2-1.6-4.6-2.3-7c-0.7-2.7-0.6-5.2,0-7.9c0.2-1-0.1-2.1,0.6-3.1
		c0.2-0.2,0.1-0.7,0.5-0.7c0.5,0.1,0.4,0.6,0.3,0.9c-0.5,2,0.1,4,0.2,5.9c0.2,2.7,1.3,5.2,2.2,7.7c2,5.2,5.1,9.6,9,13.6
		c3.8,4,8.3,6.8,13.3,8.9c3.3,1.3,6.8,1.9,10.3,2.5C56.2,57.4,56.2,57.5,56.2,57.6z"/>
	<path class="st12" d="M27.8,29.2c0.7,1.9,1.9,3.5,3,5.2c1.8,2.8,4,5.4,6.3,7.9c0.5,0.5,1.2,0.7,1.5,1.4c0.2,0.9-0.3,0.7-0.8,0.5
		c-4.5-3.6-7.6-8.2-10.3-13.1c-0.2-0.3-0.1-0.6-0.2-0.9C27.1,29.3,27.1,29.2,27.8,29.2z"/>
	<path class="st13" d="M47.2,49.6c1.1-0.1,2,0.4,2.8,1c1,0.7,2,0.9,3.1,1.2c0.1,0.7-0.2,0.9-0.9,0.6c-1.8-0.5-3.7-0.9-5.3-1.8
		c-0.1-0.1-0.2-0.3-0.2-0.4C46.8,49.8,47,49.7,47.2,49.6z"/>
	<path class="st14" d="M37.8,44.2c0.4-0.1,0.8,0,0.8-0.5c1.4,1.1,2.9,2.2,4.3,3.2c0.2,0.6-0.1,0.7-0.6,0.6
		C40.5,46.9,39.1,45.5,37.8,44.2z"/>
	<path class="st15" d="M27.8,29.2c-0.7,0.1-0.4,0.7-0.5,1.1c-1.2-1.7-1.5-3.7-2.1-5.6c-0.3-0.8-0.7-1.6-0.6-2.4c0.2,0,0.4,0,0.5,0
		C25.8,24.6,26.8,26.9,27.8,29.2z"/>
	<path class="st16" d="M42.3,47.5c0.3-0.1,0.6-0.2,0.6-0.6c1.6,0.6,2.9,1.7,4.3,2.7c-0.1,0.3-0.3,0.4-0.5,0.5
		C45.1,49.4,43.5,48.8,42.3,47.5z"/>
</g>
</svg>
