<?xml version="1.0" encoding="utf-8"?>
<!-- Generator: Adobe Illustrator 22.1.0, SVG Export Plug-In . SVG Version: 6.00 Build 0)  -->
<svg version="1.1" id="Layer_1" xmlns="http://www.w3.org/2000/svg" xmlns:xlink="http://www.w3.org/1999/xlink" x="0px" y="0px"
	 viewBox="0 0 70 70" style="enable-background:new 0 0 70 70;" xml:space="preserve">
<style type="text/css">
	.st0{fill:#F6B448;}
	.st1{fill:#F6B24D;}
	.st2{fill:#E6E6E5;}
	.st3{fill:#9E763B;}
	.st4{fill:#F0DC0A;}
	.st5{fill:#CCCCCC;}
	.st6{fill:#F5C013;}
	.st7{fill:#ECE506;}
	.st8{fill:#F5F28D;}
	.st9{fill:#FAF7DA;}
	.st10{fill:#F0E948;}
	.st11{fill:#F5C407;}
	.st12{fill:#F8F8DF;}
	.st13{fill:#F0EC46;}
	.st14{fill:#F6F3A1;}
	.st15{fill:#F7F2A2;}
	.st16{fill:#F4EE73;}
</style>
<g>
	<path class="st0" d="M61.8,56.1c-1,1.7-2.7,2.5-4.5,3.1c-1.9,0.7-3.9,1-6,1c-1.1-0.3-2.2,0-3.3-0.2c-2.8-0.6-5.3-2-7.9-3.1
		c-0.5-0.7-1.4-1.1-2-1.7c-2.8-2-5.7-3.9-8.2-6.2c-5-4.6-8.8-10-10.8-16.6c-0.7-2.2-0.7-4.4-1.5-6.6c0-1.4,0-2.7,0-4.1
		c0.8-2.4,1.9-4.6,3.5-6.6c0.2-0.2,0.3-0.5,0.6-0.7c1.8-1.1,2-2.9,2.3-4.8C24.2,9,23.9,8.1,25,8c1.9-0.2,2.4,0,2.9,1.5
		c0.1,0.5,0.5,1.1-0.3,1.5c-0.9-0.2-0.7-1.5-1.5-1.8c-0.5-0.1-0.9,0-0.9,0.6c-0.1,1-0.7,1.9-0.6,3c0.1,0.7-0.3,1.2-0.9,1.7
		c-1,0.7-1.9,1.5-2.3,2.6c-0.9,1.3-1.6,2.7-2,4.3c-0.6,2.1-0.5,4.2-0.1,6.4c0.5,2.1,0.9,4.1,1.6,6.2c0.4,1.2,1,2.3,1.6,3.5
		c2.1,4.3,5.2,8,8.8,11c2.5,2.2,5.2,4.3,8.1,5.9c2.6,1.4,5.2,2.8,8,3.7c3.9,1.2,7.7,1,11.4-0.9c0.7-0.4,1-1.1,1.5-1.6
		C60.8,55.7,61.2,56.2,61.8,56.1z"/>
	<path class="st1" d="M27.4,10.9c0.8-0.2,0.4-0.9,0.5-1.4c0.4,0.3,0.5,0.8,0.4,1.3c-1.1,3.3-0.5,6.4,0.5,9.6
		c1.1,3.9,2.6,7.6,4.5,11.2c4,7.2,9.8,12.3,17.3,15.8c2.9,1.4,5.9,2.4,8.6,4.1c0.8,0.5,1.6,1.1,2.3,1.8c0,0.4,0.6,1-0.2,1.2
		c-0.6,0-0.8-0.6-1.2-0.8c-2.6-1.4-5.1-2.9-7.8-4.1c-3.9-1.6-7.6-3.6-10.9-6.4c-1-0.9-2.2-1.5-3-2.6c-2.2-2.7-4.5-5.2-6.1-8.3
		c-1.9-3.6-3.5-7.3-4.7-11.2c-0.1-0.3-0.1-0.7-0.1-1c0-0.7-0.2-1.4-0.4-2.1c-0.1-0.9-0.6-1.7-0.5-2.7c-0.1-0.6-0.2-1.2,0-1.8
		c0.4-0.6,0.3-1.2,0.3-1.9C27.1,11.5,27.1,11.1,27.4,10.9z"/>
	<path class="st2" d="M38.2,55.1c0.8,0.3,1.7,0.6,2.1,1.5c-0.1,0.1-0.2,0.2-0.3,0.3c-0.3,0.3-1.1,0.4-1,1c0.2,0.7,0.9,0.7,1.5,0.8
		c2,0.5,4,0.6,6,0.7c0.5,0,1,0,1.5,0.2c1.1,0,2.3,0.1,3.4,0.5c-2.5,0.8-5.1,0.7-7.7,0.5c-3.2-0.2-6.4-0.3-9.4-1.7
		c-0.5-0.2-1.1-0.4-1.1-1.1c0-0.6,0.6-0.9,1.1-1.2c0.9-0.5,1.9-0.6,2.9-0.9C37.6,55.7,38.1,55.7,38.2,55.1z"/>
	<path class="st3" d="M61.3,54.3c0.5-0.3-0.2-0.8,0.2-1.1c1,0.9,1.2,1.8,0.3,2.8c-0.5,0.2-1.4,1.2-1.2-0.5
		C60.6,55,60.6,54.5,61.3,54.3z"/>
	<path class="st4" d="M61.3,54.3c-0.6,0.2-0.1,1.1-0.7,1.3c-0.8,2.1-2.7,2.4-4.4,3c-1.3,0.4-2.7,0.9-4.2,0.6
		c-2.1-0.3-4.2-0.7-6.2-1.4c-4.1-1.3-7.7-3.6-11-6.1c-3.3-2.5-6.5-5.4-9.1-8.8c-1.9-2.5-3.3-5.2-4.7-8c-0.7-1.4-1-3-1.4-4.5
		c-0.6-2.5-1.2-5-0.9-7.5c0.3-2.2,0.9-4.3,2.5-5.9c0.6-0.9,1.6-1.3,2.4-1.8c0.8-0.4,1.2-1,1.4-1.9c0.2-1.1,0.6-2.1,0.5-3.3
		c0-0.6,0.4-0.9,0.8-1.2c0.8,0.5,1,1.2,1,2c0,0.3,0,0.7,0,1c-0.6,0.5,0.1,1.3-0.5,1.8c0,0.6-0.2,1.2,0.2,1.8
		c-0.7,0.4-1.5,0.8-1.7,1.8c-0.5,1.1-0.1,2.2-0.3,3.4c0,0.7-0.1,1.4,0.3,2.1c0.8,2.5,1.6,5.1,2.6,7.6c1.6,3.6,3.8,6.8,6.3,9.7
		c1.2,1.3,2.5,2.4,3.7,3.6c1.2,1.3,2.6,2.3,4.2,3.2c1.2,1.1,2.8,1.6,4.1,2.5c1.5,1.1,3.3,1.4,5.1,1.9c0.4,0.1,0.7,0,1-0.3
		c1.3,0.1,2.4,0.7,3.6,1.1c0.5,0.2,0.9,0.7,0.7,1.3c-0.3,0.6-0.8,0.2-1.2,0.1c-0.5-0.1-1-0.4-1.6-0.5c1.5,0.8,3.2,1.2,4.8,1.5
		c0.6,0.1,0.9-0.8,1.5-0.9C60.9,53.5,60.8,54.4,61.3,54.3z"/>
	<path class="st5" d="M48,59.7c-2.8,0.1-5.6,0.1-8.3-0.8c-0.5-0.2-1.3-0.2-1.3-0.9c0-0.7,0.7-1,1.3-1.2c0.2-0.1,0.4-0.1,0.6-0.2
		c1.2-0.1,2,0.7,2.9,1.2C44.7,58.7,46.5,58.9,48,59.7z"/>
	<path class="st6" d="M26.4,8.8c-0.4,0.6-0.6,1.3-0.5,2c0.2,1.2-0.4,2.2-0.6,3.3c-0.2,1.3-1.9,1.4-2.8,2.3c-0.3,0.2-0.7,0.6-1.2,0.6
		c0.1-1.6,1.5-2.1,2.4-3c0.2-0.2,0.6-0.2,0.6-0.7c0-1.1,0.3-2.1,0.4-3.2C24.9,8.9,25.3,8.6,26.4,8.8z"/>
	<path class="st7" d="M60.3,53.5c-0.5,1-0.9,1.7-2.4,1.1c-1.3-0.5-2.8-0.6-4.1-1.2c-0.3-0.1-0.8-0.2-0.7-0.6c0.1-0.5,0.7-0.4,1-0.3
		c0.6,0.3,1.2,0.5,1.8,0.6c0.2,0.1,0.5,0.5,0.7,0.1c0.2-0.4-0.1-0.6-0.4-0.8c-0.6-0.5-1.5-0.5-2.2-0.8c-0.5-0.2-0.9-0.5-1.5-0.6
		c-1.1,0.5-2-0.2-2.8-0.6c-0.9-0.5-1.8-0.9-2.8-1.2c-1.5-0.7-2.8-1.8-4.3-2.6c-1.5-0.9-2.9-2-4.2-3.2c-1.4-0.7-2.2-2-3.2-3.1
		c-1.5-1.7-2.9-3.5-4.2-5.4c-1.2-1.8-2.4-3.5-3.2-5.5c-1.1-2.2-2-4.4-2.5-6.8c0.2-1.2,0.8-1.6,2.3-1.4c0.8,1.2,1,2.6,1.4,3.8
		c0.4,1.5,1.3,2.7,1.8,4.1c0.8,2.4,2.2,4.6,3.7,6.6c1.6,2.2,3.3,4.4,5.5,6.2c3.6,3,7.6,5.5,12,7.3c2.7,1.1,5,2.6,7.6,3.8
		C60.1,53.1,60.3,53.2,60.3,53.5z"/>
	<path class="st8" d="M24.8,20.6c0-0.9,0-1.8,0-2.7c0-0.4,0-0.8,0.5-0.9c0.4,1,1,1.5,2.1,1.1c0.3,0.6,0.5,1.3,0.5,2.1
		c-0.8,0.5-1.8,0.4-2.5,1C25,21.4,25,20.8,24.8,20.6z"/>
	<path class="st9" d="M27.4,18c-0.3,1-1.2,0.6-1.7,0.4c-0.8-0.2-0.3-1-0.4-1.5c0.1-1.1,0.8-1.5,1.8-1.5C26.7,16.4,27.6,17.1,27.4,18
		z"/>
	<path class="st10" d="M24.8,20.6c0.2,0.1,0.3,0.5,0.5,0.3c0.7-1,1.7-0.7,2.6-0.8c0,0.4,0,0.7,0,1.1c-0.5,0.1-0.9,0.6-1.5,0.5
		c-0.7-0.1-0.5,0.6-0.6,1c-0.2,0.1-0.3,0.1-0.5,0C24.3,22.2,25,21.3,24.8,20.6z"/>
	<path class="st0" d="M26.9,13.7c0-0.6-0.1-1.2,0-1.8c0.1-0.5,0.3,0,0.5,0C27.2,12.5,27.8,13.3,26.9,13.7z"/>
	<path class="st11" d="M55.5,56.6c-2.3,0-4.6,0.3-6.8-0.1c-2.2-0.3-4.5-0.9-6.6-1.8c-3.3-1.5-6.4-3.2-9.1-5.6
		c-2.5-2.2-4.9-4.5-6.8-7.2c-1.3-1.7-2.3-3.7-3.4-5.5c-1.2-2.1-1.6-4.4-2.2-6.7c-0.7-2.6-0.5-5,0-7.5c0.2-1-0.1-2,0.5-3
		c0.2-0.2,0.1-0.7,0.5-0.6c0.5,0.1,0.4,0.6,0.3,0.8c-0.5,1.9,0.1,3.8,0.2,5.7c0.2,2.6,1.2,5,2.1,7.3c1.9,5,4.9,9.2,8.6,13.1
		c3.6,3.8,7.9,6.5,12.8,8.5c3.2,1.3,6.5,1.9,9.9,2.4C55.5,56.4,55.5,56.5,55.5,56.6z"/>
	<path class="st12" d="M28.4,29.4c0.7,1.8,1.8,3.4,2.9,5c1.7,2.7,3.9,5.2,6,7.6c0.4,0.5,1.2,0.6,1.5,1.3c0.2,0.9-0.3,0.6-0.8,0.5
		c-4.3-3.4-7.3-7.8-9.8-12.5c-0.2-0.3-0.1-0.6-0.2-0.9C27.6,29.5,27.7,29.4,28.4,29.4z"/>
	<path class="st13" d="M46.9,48.9c1-0.1,1.9,0.4,2.7,0.9c0.9,0.7,1.9,0.8,3,1.1c0.1,0.6-0.2,0.8-0.8,0.6c-1.7-0.5-3.5-0.9-5.1-1.8
		c-0.1-0.1-0.2-0.3-0.2-0.4C46.5,49.2,46.7,49,46.9,48.9z"/>
	<path class="st14" d="M37.9,43.8c0.3-0.1,0.8,0,0.8-0.5c1.4,1,2.7,2.1,4.1,3.1c0.2,0.6-0.1,0.6-0.6,0.5
		C40.5,46.3,39.2,45.1,37.9,43.8z"/>
	<path class="st15" d="M28.4,29.4c-0.7,0.1-0.3,0.7-0.5,1c-1.1-1.6-1.4-3.6-2-5.4c-0.2-0.7-0.7-1.5-0.6-2.3c0.2,0,0.3,0,0.5,0
		C26.4,25,27.4,27.2,28.4,29.4z"/>
	<path class="st16" d="M42.2,46.9c0.3-0.1,0.6-0.2,0.6-0.5c1.5,0.6,2.8,1.6,4.1,2.6c-0.1,0.2-0.3,0.4-0.5,0.5
		C44.9,48.8,43.4,48.2,42.2,46.9z"/>
</g>
</svg>
