<?xml version="1.0" encoding="utf-8"?>
<!-- Generator: Adobe Illustrator 22.1.0, SVG Export Plug-In . SVG Version: 6.00 Build 0)  -->
<svg version="1.1" id="Layer_1" xmlns="http://www.w3.org/2000/svg" xmlns:xlink="http://www.w3.org/1999/xlink" x="0px" y="0px"
	 viewBox="0 0 70 70" style="enable-background:new 0 0 70 70;" xml:space="preserve">
<style type="text/css">
	.st0{fill:#F6B448;}
	.st1{fill:#F6B24D;}
	.st2{fill:#E6E6E5;}
	.st3{fill:#9E763B;}
	.st4{fill:#F0DC0A;}
	.st5{fill:#CCCCCC;}
	.st6{fill:#F5C013;}
	.st7{fill:#ECE506;}
	.st8{fill:#F5F28D;}
	.st9{fill:#FAF7DA;}
	.st10{fill:#F0E948;}
	.st11{fill:#F5C407;}
	.st12{fill:#F8F8DF;}
	.st13{fill:#F0EC46;}
	.st14{fill:#F6F3A1;}
	.st15{fill:#F7F2A2;}
	.st16{fill:#F4EE73;}
</style>
<g>
	<path class="st0" d="M63,57.3c-1.1,1.8-2.9,2.6-4.7,3.3c-2,0.7-4.2,1.1-6.3,1.1c-1.1-0.3-2.3,0-3.5-0.3c-2.9-0.7-5.6-2.1-8.3-3.3
		c-0.6-0.8-1.5-1.1-2.1-1.8c-3-2.1-6-4.1-8.7-6.6c-5.3-4.9-9.3-10.5-11.4-17.5c-0.7-2.3-0.7-4.7-1.6-6.9c0-1.4,0-2.9,0-4.3
		c0.8-2.5,2-4.9,3.7-6.9c0.2-0.2,0.4-0.6,0.6-0.7c1.9-1.2,2.1-3.1,2.5-5c0.1-0.7-0.2-1.6,1-1.7c2-0.2,2.5,0,3.1,1.5
		c0.1,0.6,0.5,1.2-0.3,1.6c-1-0.3-0.7-1.6-1.6-1.9c-0.5-0.1-0.9,0-1,0.6c-0.1,1.1-0.7,2-0.6,3.2c0.1,0.8-0.3,1.3-1,1.8
		c-1,0.7-2,1.5-2.5,2.8c-0.9,1.4-1.6,2.9-2.1,4.5c-0.6,2.3-0.6,4.5-0.1,6.8c0.5,2.2,1,4.4,1.7,6.5c0.4,1.3,1.1,2.5,1.7,3.7
		c2.2,4.6,5.5,8.4,9.3,11.7c2.7,2.3,5.5,4.5,8.6,6.3c2.7,1.5,5.5,3,8.5,3.9c4.1,1.2,8.1,1.1,12-0.9c0.7-0.4,1-1.1,1.5-1.7
		C62,56.9,62.4,57.4,63,57.3z"/>
	<path class="st1" d="M26.7,9.5c0.9-0.2,0.4-1,0.6-1.5c0.5,0.3,0.6,0.8,0.4,1.3c-1.2,3.5-0.5,6.8,0.5,10.2c1.2,4.1,2.7,8.1,4.8,11.8
		c4.2,7.6,10.4,13,18.2,16.7c3,1.4,6.2,2.5,9.1,4.3c0.9,0.5,1.7,1.2,2.4,1.9c0,0.5,0.6,1-0.3,1.3c-0.7,0-0.8-0.6-1.2-0.9
		c-2.7-1.5-5.4-3.1-8.3-4.3c-4.1-1.7-8.1-3.8-11.5-6.8c-1-0.9-2.3-1.6-3.2-2.7c-2.3-2.8-4.8-5.5-6.5-8.8c-2-3.8-3.7-7.7-4.9-11.8
		c-0.1-0.3-0.1-0.7-0.1-1c0-0.8-0.2-1.5-0.4-2.2c-0.2-0.9-0.6-1.8-0.5-2.8c-0.1-0.6-0.2-1.2,0.1-1.9c0.5-0.6,0.3-1.3,0.4-2
		C26.3,10.1,26.4,9.8,26.7,9.5z"/>
	<path class="st2" d="M38.1,56.3c0.9,0.3,1.8,0.6,2.2,1.6c-0.1,0.1-0.2,0.2-0.3,0.3c-0.4,0.4-1.2,0.4-1,1.1c0.2,0.7,1,0.7,1.6,0.9
		c2.1,0.5,4.2,0.7,6.3,0.7c0.5,0,1.1,0.1,1.6,0.3c1.2,0,2.4,0.1,3.5,0.5c-2.7,0.8-5.4,0.7-8.1,0.5c-3.3-0.2-6.7-0.3-9.9-1.8
		c-0.5-0.2-1.2-0.5-1.2-1.1c0-0.6,0.6-0.9,1.1-1.2c1-0.5,2-0.7,3.1-1C37.4,56.9,38,56.9,38.1,56.3z"/>
	<path class="st3" d="M62.5,55.5c0.5-0.3-0.2-0.8,0.2-1.1c1,0.9,1.3,1.9,0.3,3c-0.6,0.2-1.4,1.2-1.3-0.5
		C61.7,56.2,61.8,55.6,62.5,55.5z"/>
	<path class="st4" d="M62.5,55.5c-0.7,0.2-0.1,1.1-0.8,1.4C61,59,58.9,59.4,57.1,60c-1.4,0.4-2.9,0.9-4.5,0.6
		c-2.2-0.4-4.4-0.7-6.5-1.4c-4.3-1.4-8.1-3.8-11.6-6.5c-3.5-2.7-6.9-5.7-9.6-9.3c-2-2.7-3.5-5.5-4.9-8.4c-0.7-1.5-1-3.2-1.5-4.8
		c-0.7-2.6-1.3-5.2-0.9-7.9c0.3-2.3,0.9-4.5,2.7-6.2c0.7-0.9,1.6-1.4,2.6-1.9c0.8-0.5,1.3-1.1,1.4-2c0.2-1.2,0.6-2.3,0.6-3.5
		c0-0.6,0.4-1,0.9-1.3c0.8,0.5,1,1.3,1.1,2.1c0,0.3,0,0.7,0,1c-0.6,0.5,0.1,1.4-0.5,1.9c0,0.6-0.2,1.3,0.2,1.9
		c-0.8,0.4-1.6,0.9-1.8,1.9c-0.5,1.1-0.1,2.4-0.3,3.5c0,0.8-0.1,1.5,0.3,2.2c0.9,2.7,1.6,5.4,2.7,8c1.7,3.8,4,7.1,6.7,10.3
		c1.2,1.4,2.6,2.6,4,3.8c1.3,1.4,2.8,2.5,4.5,3.4c1.3,1.1,3,1.7,4.4,2.7c1.6,1.2,3.5,1.4,5.4,2c0.5,0.2,0.8,0,1.1-0.3
		c1.4,0.1,2.6,0.7,3.8,1.2c0.6,0.2,1,0.7,0.7,1.4c-0.3,0.7-0.8,0.2-1.3,0.1c-0.6-0.1-1.1-0.4-1.7-0.5c1.6,0.9,3.3,1.2,5.1,1.5
		c0.7,0.1,0.9-0.8,1.5-1C62.1,54.5,61.9,55.5,62.5,55.5z"/>
	<path class="st5" d="M48.4,61.1c-3,0.1-5.9,0.1-8.8-0.8c-0.5-0.2-1.4-0.3-1.4-0.9c0-0.7,0.8-1,1.4-1.3c0.2-0.1,0.4-0.1,0.6-0.2
		c1.2-0.1,2.1,0.7,3,1.3C45,60.1,46.8,60.2,48.4,61.1z"/>
	<path class="st6" d="M25.6,7.4C25.2,8,24.9,8.7,25,9.5c0.2,1.2-0.5,2.3-0.7,3.5c-0.2,1.4-2,1.5-2.9,2.4c-0.3,0.3-0.8,0.6-1.3,0.6
		c0.1-1.6,1.6-2.3,2.6-3.2c0.2-0.2,0.6-0.2,0.7-0.7c0-1.1,0.3-2.3,0.4-3.4C24,7.4,24.5,7.2,25.6,7.4z"/>
	<path class="st7" d="M61.5,54.6c-0.5,1.1-1,1.8-2.5,1.2c-1.4-0.6-2.9-0.7-4.3-1.2c-0.3-0.1-0.8-0.2-0.7-0.7c0.1-0.6,0.7-0.5,1-0.3
		c0.6,0.3,1.2,0.5,1.9,0.7c0.3,0.1,0.5,0.5,0.8,0.1c0.2-0.4-0.1-0.6-0.4-0.9c-0.7-0.6-1.6-0.5-2.4-0.9c-0.5-0.2-1-0.5-1.6-0.6
		c-1.1,0.5-2.1-0.2-3-0.7c-0.9-0.6-1.9-1-2.9-1.2c-1.6-0.7-2.9-1.9-4.5-2.7c-1.6-1-3.1-2.1-4.4-3.4c-1.4-0.8-2.3-2.1-3.3-3.3
		c-1.6-1.8-3.1-3.7-4.4-5.7c-1.2-1.9-2.5-3.7-3.4-5.8c-1.1-2.3-2.1-4.7-2.6-7.2c0.2-1.2,0.9-1.6,2.5-1.5c0.8,1.2,1.1,2.7,1.5,4.1
		c0.5,1.6,1.4,2.9,1.9,4.4c0.9,2.6,2.4,4.9,3.9,7c1.7,2.3,3.5,4.6,5.8,6.5c3.8,3.2,8.1,5.8,12.6,7.7c2.8,1.1,5.3,2.8,8,4
		C61.3,54.2,61.4,54.3,61.5,54.6z"/>
	<path class="st8" d="M24,19.8c0-0.9,0-1.9,0-2.8c0-0.4-0.1-0.8,0.5-1c0.4,1.1,1.1,1.6,2.3,1.1c0.3,0.7,0.5,1.4,0.5,2.2
		c-0.8,0.6-1.9,0.4-2.7,1.1C24.1,20.7,24.2,20,24,19.8z"/>
	<path class="st9" d="M26.7,17.1c-0.4,1-1.2,0.6-1.8,0.5c-0.8-0.2-0.3-1.1-0.5-1.6c0.1-1.2,0.9-1.6,1.9-1.6
		C25.9,15.4,26.9,16.2,26.7,17.1z"/>
	<path class="st10" d="M24,19.8c0.2,0.1,0.3,0.5,0.5,0.3c0.7-1,1.8-0.7,2.7-0.8c0,0.4,0,0.7,0,1.1c-0.5,0.1-0.9,0.6-1.6,0.5
		c-0.8-0.1-0.5,0.7-0.6,1.1c-0.2,0.1-0.4,0.1-0.5,0C23.4,21.5,24.2,20.6,24,19.8z"/>
	<path class="st0" d="M26.2,12.5c0-0.6-0.1-1.3,0-1.9c0.1-0.6,0.3,0,0.5,0C26.5,11.2,27.1,12.1,26.2,12.5z"/>
	<path class="st11" d="M56.4,57.8c-2.4,0-4.9,0.3-7.2-0.1c-2.4-0.4-4.7-0.9-7-1.9c-3.5-1.6-6.7-3.4-9.6-5.9
		c-2.7-2.3-5.2-4.8-7.2-7.6c-1.3-1.8-2.4-3.9-3.6-5.9c-1.3-2.2-1.7-4.7-2.3-7.1c-0.7-2.7-0.6-5.3,0-8c0.2-1-0.1-2.2,0.6-3.1
		c0.2-0.2,0.1-0.7,0.5-0.7c0.5,0.1,0.4,0.6,0.3,0.9c-0.5,2,0.1,4,0.2,6c0.2,2.8,1.3,5.3,2.2,7.8c2,5.2,5.2,9.8,9.1,13.8
		c3.8,4,8.3,6.9,13.5,9c3.4,1.3,6.9,2,10.4,2.5C56.4,57.6,56.4,57.7,56.4,57.8z"/>
	<path class="st12" d="M27.7,29.1c0.7,1.9,1.9,3.6,3,5.3c1.8,2.9,4.1,5.5,6.3,8c0.5,0.5,1.2,0.7,1.5,1.4c0.2,0.9-0.3,0.7-0.8,0.5
		c-4.5-3.6-7.7-8.2-10.4-13.2c-0.2-0.3-0.1-0.6-0.2-0.9C26.9,29.2,27,29.1,27.7,29.1z"/>
	<path class="st13" d="M47.3,49.8c1.1-0.1,2,0.4,2.8,1c1,0.7,2.1,0.9,3.1,1.2c0.1,0.7-0.2,0.9-0.9,0.7c-1.8-0.6-3.7-0.9-5.4-1.8
		c-0.1-0.1-0.2-0.3-0.2-0.4C46.8,50,47.1,49.9,47.3,49.8z"/>
	<path class="st14" d="M37.8,44.3c0.4-0.1,0.8,0,0.8-0.5c1.4,1.1,2.9,2.2,4.3,3.3c0.2,0.6-0.1,0.7-0.6,0.6
		C40.5,47,39.1,45.7,37.8,44.3z"/>
	<path class="st15" d="M27.7,29.1c-0.7,0.1-0.4,0.7-0.5,1.1c-1.2-1.7-1.5-3.8-2.1-5.7c-0.3-0.8-0.7-1.6-0.6-2.5c0.2,0,0.4,0,0.5,0
		C25.6,24.5,26.7,26.8,27.7,29.1z"/>
	<path class="st16" d="M42.4,47.6c0.3-0.1,0.6-0.2,0.6-0.6c1.6,0.6,2.9,1.7,4.4,2.7c-0.1,0.3-0.3,0.4-0.5,0.5
		C45.2,49.6,43.5,49,42.4,47.6z"/>
</g>
</svg>
