<?xml version="1.0" encoding="utf-8"?>
<!-- Generator: Adobe Illustrator 22.1.0, SVG Export Plug-In . SVG Version: 6.00 Build 0)  -->
<svg version="1.1" id="Layer_1" xmlns="http://www.w3.org/2000/svg" xmlns:xlink="http://www.w3.org/1999/xlink" x="0px" y="0px"
	 viewBox="0 0 70 70" style="enable-background:new 0 0 70 70;" xml:space="preserve">
<style type="text/css">
	.st0{fill:#F6B448;}
	.st1{fill:#F6B24D;}
	.st2{fill:#E6E6E5;}
	.st3{fill:#9E763B;}
	.st4{fill:#F0DC0A;}
	.st5{fill:#CCCCCC;}
	.st6{fill:#F5C013;}
	.st7{fill:#ECE506;}
	.st8{fill:#F5F28D;}
	.st9{fill:#FAF7DA;}
	.st10{fill:#F0E948;}
	.st11{fill:#F5C407;}
	.st12{fill:#F8F8DF;}
	.st13{fill:#F0EC46;}
	.st14{fill:#F6F3A1;}
	.st15{fill:#F7F2A2;}
	.st16{fill:#F4EE73;}
</style>
<g>
	<path class="st0" d="M62.3,56.6c-1,1.8-2.8,2.5-4.6,3.1c-2,0.7-4,1.1-6.1,1c-1.1-0.3-2.2,0-3.3-0.3c-2.9-0.6-5.4-2-8.1-3.2
		c-0.5-0.8-1.4-1.1-2-1.8c-2.9-2-5.8-4-8.4-6.4c-5.1-4.7-9-10.2-11.1-16.9c-0.7-2.2-0.7-4.5-1.5-6.7c0-1.4,0-2.8,0-4.2
		c0.8-2.4,1.9-4.7,3.6-6.7c0.2-0.2,0.3-0.5,0.6-0.7c1.9-1.1,2.1-3,2.4-4.9c0.1-0.6-0.2-1.6,1-1.7c2-0.2,2.4,0,3,1.5
		c0.1,0.6,0.5,1.2-0.3,1.5c-0.9-0.2-0.7-1.5-1.6-1.8c-0.5-0.1-0.9,0-1,0.6c-0.1,1-0.7,2-0.6,3.1c0.1,0.8-0.3,1.3-0.9,1.7
		c-1,0.7-1.9,1.5-2.4,2.7c-0.9,1.4-1.6,2.8-2,4.4c-0.6,2.2-0.5,4.3-0.1,6.5c0.5,2.1,1,4.2,1.6,6.3c0.4,1.3,1.1,2.4,1.6,3.6
		c2.1,4.4,5.3,8.1,9,11.3c2.6,2.2,5.3,4.4,8.3,6.1c2.6,1.5,5.3,2.9,8.2,3.8c4,1.2,7.9,1.1,11.6-0.9c0.7-0.4,1-1.1,1.5-1.6
		C61.3,56.2,61.7,56.7,62.3,56.6z"/>
	<path class="st1" d="M27.1,10.3c0.9-0.2,0.4-0.9,0.6-1.4c0.4,0.3,0.5,0.8,0.4,1.3c-1.1,3.4-0.5,6.6,0.5,9.9c1.2,4,2.6,7.8,4.7,11.4
		c4.1,7.4,10.1,12.6,17.7,16.2c2.9,1.4,6,2.5,8.8,4.2c0.9,0.5,1.6,1.1,2.3,1.8c0,0.4,0.6,1-0.3,1.3c-0.6,0-0.8-0.6-1.2-0.9
		c-2.6-1.5-5.2-3-8-4.2c-4-1.7-7.8-3.7-11.1-6.6c-1-0.9-2.2-1.6-3.1-2.6c-2.2-2.7-4.6-5.3-6.3-8.5c-1.9-3.7-3.5-7.5-4.8-11.4
		c-0.1-0.3-0.1-0.7-0.1-1c0-0.7-0.2-1.4-0.4-2.1c-0.1-0.9-0.6-1.8-0.5-2.7c-0.1-0.6-0.2-1.2,0-1.8c0.5-0.6,0.3-1.3,0.3-1.9
		C26.8,10.9,26.8,10.6,27.1,10.3z"/>
	<path class="st2" d="M38.1,55.6c0.9,0.3,1.7,0.6,2.1,1.6c-0.1,0.1-0.2,0.2-0.3,0.3c-0.3,0.4-1.2,0.4-1,1.1c0.2,0.7,0.9,0.7,1.5,0.8
		c2,0.5,4,0.6,6.1,0.7c0.5,0,1,0,1.5,0.2c1.2,0,2.3,0.1,3.4,0.5c-2.6,0.8-5.3,0.7-7.9,0.5c-3.2-0.2-6.5-0.3-9.6-1.7
		c-0.5-0.2-1.2-0.4-1.2-1.1c0-0.6,0.6-0.9,1.1-1.2c0.9-0.5,2-0.6,3-1C37.5,56.2,38,56.2,38.1,55.6z"/>
	<path class="st3" d="M61.8,54.8c0.5-0.3-0.2-0.8,0.2-1.1c1,0.9,1.3,1.8,0.3,2.9c-0.6,0.2-1.4,1.2-1.2-0.5
		C61,55.5,61.1,55,61.8,54.8z"/>
	<path class="st4" d="M61.8,54.8c-0.7,0.2-0.1,1.1-0.7,1.3c-0.8,2.1-2.8,2.5-4.5,3c-1.3,0.4-2.8,0.9-4.3,0.6
		c-2.1-0.4-4.2-0.7-6.3-1.4c-4.2-1.4-7.9-3.7-11.3-6.3c-3.4-2.6-6.7-5.5-9.3-9c-1.9-2.6-3.4-5.3-4.8-8.2c-0.7-1.4-1-3-1.4-4.6
		c-0.7-2.5-1.2-5.1-0.9-7.7c0.3-2.2,0.9-4.4,2.6-6c0.6-0.9,1.6-1.4,2.5-1.9c0.8-0.5,1.2-1,1.4-1.9c0.2-1.1,0.6-2.2,0.5-3.3
		c0-0.6,0.4-0.9,0.8-1.2c0.8,0.5,1,1.2,1.1,2.1c0,0.3,0,0.7,0,1c-0.6,0.5,0.1,1.4-0.5,1.9c0,0.6-0.2,1.2,0.2,1.8
		c-0.8,0.4-1.5,0.8-1.7,1.8c-0.5,1.1-0.1,2.3-0.3,3.4c0,0.7-0.1,1.5,0.3,2.1c0.8,2.6,1.6,5.2,2.6,7.8c1.7,3.6,3.8,6.9,6.5,9.9
		c1.2,1.4,2.5,2.5,3.8,3.7c1.3,1.3,2.7,2.4,4.3,3.2c1.3,1.1,2.9,1.7,4.2,2.6c1.6,1.1,3.4,1.4,5.2,2c0.4,0.1,0.7,0,1-0.3
		c1.3,0.1,2.5,0.7,3.7,1.1c0.6,0.2,1,0.7,0.7,1.4c-0.3,0.7-0.8,0.2-1.2,0.1c-0.5-0.1-1.1-0.4-1.6-0.5c1.5,0.9,3.2,1.2,4.9,1.5
		c0.7,0.1,0.9-0.8,1.5-1C61.4,53.9,61.2,54.8,61.8,54.8z"/>
	<path class="st5" d="M48.2,60.3c-2.9,0.1-5.7,0.1-8.5-0.8c-0.5-0.2-1.3-0.2-1.3-0.9c0-0.7,0.8-1,1.3-1.3c0.2-0.1,0.4-0.1,0.6-0.2
		c1.2-0.1,2.1,0.7,3,1.2C44.8,59.3,46.6,59.4,48.2,60.3z"/>
	<path class="st6" d="M26.1,8.2c-0.4,0.6-0.7,1.3-0.5,2.1c0.2,1.2-0.5,2.3-0.7,3.4C24.6,15,23,15.2,22,16c-0.3,0.3-0.7,0.6-1.2,0.6
		c0.1-1.6,1.5-2.2,2.5-3.1c0.2-0.2,0.6-0.2,0.6-0.7c0-1.1,0.3-2.2,0.4-3.3C24.6,8.3,25,8.1,26.1,8.2z"/>
	<path class="st7" d="M60.8,54c-0.5,1-0.9,1.8-2.4,1.2c-1.3-0.5-2.8-0.7-4.2-1.2c-0.3-0.1-0.8-0.2-0.7-0.7c0.1-0.5,0.7-0.4,1-0.3
		c0.6,0.3,1.2,0.5,1.8,0.6c0.3,0.1,0.5,0.5,0.7,0.1c0.2-0.4-0.1-0.6-0.4-0.9c-0.7-0.6-1.5-0.5-2.3-0.8c-0.5-0.2-1-0.5-1.5-0.6
		c-1.1,0.5-2-0.2-2.9-0.7c-0.9-0.5-1.8-0.9-2.8-1.2c-1.6-0.7-2.8-1.9-4.4-2.6c-1.5-0.9-3-2-4.3-3.3c-1.4-0.7-2.2-2-3.2-3.2
		c-1.5-1.7-3-3.5-4.3-5.5c-1.2-1.8-2.5-3.6-3.3-5.6c-1.1-2.2-2-4.5-2.5-7c0.2-1.2,0.8-1.6,2.4-1.4c0.8,1.2,1,2.6,1.4,3.9
		c0.5,1.5,1.3,2.8,1.8,4.2c0.9,2.5,2.3,4.7,3.8,6.8c1.7,2.2,3.4,4.5,5.6,6.3c3.7,3.1,7.8,5.6,12.2,7.4c2.7,1.1,5.2,2.7,7.8,3.9
		C60.6,53.6,60.7,53.7,60.8,54z"/>
	<path class="st8" d="M24.5,20.3c0-0.9,0-1.8,0-2.8c0-0.4,0-0.8,0.5-1c0.4,1,1,1.6,2.2,1.1c0.3,0.7,0.5,1.4,0.5,2.1
		c-0.8,0.5-1.8,0.4-2.6,1C24.7,21.1,24.7,20.5,24.5,20.3z"/>
	<path class="st9" d="M27.1,17.7c-0.3,1-1.2,0.6-1.7,0.5c-0.8-0.2-0.3-1-0.5-1.5c0.1-1.2,0.8-1.5,1.9-1.6
		C26.4,16,27.3,16.8,27.1,17.7z"/>
	<path class="st10" d="M24.5,20.3c0.2,0.1,0.3,0.5,0.5,0.3c0.7-1,1.7-0.7,2.6-0.8c0,0.4,0,0.7,0,1.1c-0.5,0.1-0.9,0.6-1.5,0.5
		c-0.7-0.1-0.5,0.6-0.6,1c-0.2,0.1-0.4,0.1-0.5,0C24,21.9,24.7,21,24.5,20.3z"/>
	<path class="st0" d="M26.6,13.2c0-0.6-0.1-1.3,0-1.9c0.1-0.5,0.3,0,0.5,0C26.9,12,27.5,12.8,26.6,13.2z"/>
	<path class="st11" d="M55.9,57.1c-2.3,0-4.7,0.3-7-0.1c-2.3-0.4-4.6-0.9-6.8-1.9c-3.4-1.5-6.5-3.3-9.3-5.7c-2.6-2.2-5-4.6-7-7.4
		c-1.3-1.8-2.3-3.8-3.4-5.7c-1.2-2.1-1.6-4.5-2.2-6.9c-0.7-2.6-0.5-5.1,0-7.7c0.2-1-0.1-2.1,0.6-3c0.2-0.2,0.1-0.7,0.5-0.6
		c0.5,0.1,0.4,0.6,0.3,0.9c-0.5,2,0.1,3.9,0.2,5.8c0.2,2.7,1.2,5.1,2.2,7.5c1.9,5.1,5,9.4,8.8,13.4c3.7,3.9,8.1,6.7,13.1,8.7
		c3.3,1.3,6.7,1.9,10.1,2.4C55.9,56.9,55.9,57,55.9,57.1z"/>
	<path class="st12" d="M28.1,29.3c0.7,1.9,1.9,3.5,2.9,5.1c1.8,2.8,3.9,5.3,6.1,7.8c0.5,0.5,1.2,0.7,1.5,1.3
		c0.2,0.9-0.3,0.7-0.8,0.5c-4.4-3.5-7.4-8-10.1-12.8c-0.2-0.3-0.1-0.6-0.2-0.9C27.4,29.4,27.4,29.3,28.1,29.3z"/>
	<path class="st13" d="M47.1,49.3c1-0.1,2,0.4,2.7,0.9c0.9,0.7,2,0.9,3,1.2c0.1,0.7-0.2,0.8-0.8,0.6c-1.8-0.5-3.6-0.9-5.2-1.8
		c-0.1-0.1-0.2-0.3-0.2-0.4C46.6,49.5,46.8,49.4,47.1,49.3z"/>
	<path class="st14" d="M37.9,44c0.3-0.1,0.8,0,0.8-0.5c1.4,1.1,2.8,2.1,4.2,3.2c0.2,0.6-0.1,0.7-0.6,0.5
		C40.5,46.6,39.2,45.3,37.9,44z"/>
	<path class="st15" d="M28.1,29.3c-0.7,0.1-0.4,0.7-0.5,1c-1.1-1.7-1.4-3.6-2.1-5.5c-0.3-0.8-0.7-1.5-0.6-2.4c0.2,0,0.3,0,0.5,0
		C26.1,24.8,27.1,27,28.1,29.3z"/>
	<path class="st16" d="M42.3,47.2c0.3-0.1,0.6-0.2,0.6-0.5c1.6,0.6,2.9,1.7,4.2,2.6c-0.1,0.3-0.3,0.4-0.5,0.5
		C45,49.1,43.4,48.5,42.3,47.2z"/>
</g>
</svg>
