<?xml version="1.0" encoding="utf-8"?>
<!-- Generator: Adobe Illustrator 22.1.0, SVG Export Plug-In . SVG Version: 6.00 Build 0)  -->
<svg version="1.1" id="Layer_1" xmlns="http://www.w3.org/2000/svg" xmlns:xlink="http://www.w3.org/1999/xlink" x="0px" y="0px"
	 viewBox="0 0 70 70" style="enable-background:new 0 0 70 70;" xml:space="preserve">
<style type="text/css">
	.st0{fill:#F6B448;}
	.st1{fill:#F6B24D;}
	.st2{fill:#E6E6E5;}
	.st3{fill:#9E763B;}
	.st4{fill:#F0DC0A;}
	.st5{fill:#CCCCCC;}
	.st6{fill:#F5C013;}
	.st7{fill:#ECE506;}
	.st8{fill:#F5F28D;}
	.st9{fill:#FAF7DA;}
	.st10{fill:#F0E948;}
	.st11{fill:#F5C407;}
	.st12{fill:#F8F8DF;}
	.st13{fill:#F0EC46;}
	.st14{fill:#F6F3A1;}
	.st15{fill:#F7F2A2;}
	.st16{fill:#F4EE73;}
</style>
<g>
	<path class="st0" d="M61.3,55.6c-1,1.7-2.7,2.4-4.4,3c-1.9,0.7-3.8,1-5.9,1c-1.1-0.3-2.1,0-3.2-0.2c-2.7-0.6-5.2-1.9-7.7-3
		c-0.5-0.7-1.4-1.1-2-1.7c-2.7-2-5.6-3.8-8-6.1c-4.9-4.5-8.6-9.7-10.6-16.2c-0.6-2.1-0.7-4.3-1.5-6.4c0-1.3,0-2.7,0-4
		c0.8-2.3,1.9-4.5,3.4-6.4c0.2-0.2,0.3-0.5,0.6-0.7c1.8-1.1,2-2.9,2.3-4.7c0.1-0.6-0.1-1.5,0.9-1.6c1.9-0.2,2.3,0,2.8,1.4
		c0.1,0.5,0.5,1.1-0.3,1.5c-0.9-0.2-0.7-1.5-1.5-1.7c-0.5-0.1-0.9,0-0.9,0.6c-0.1,1-0.7,1.9-0.6,2.9c0.1,0.7-0.3,1.2-0.9,1.6
		c-1,0.6-1.8,1.4-2.3,2.6c-0.8,1.3-1.5,2.7-1.9,4.2c-0.6,2.1-0.5,4.1,0,6.3c0.4,2,0.9,4.1,1.6,6c0.4,1.2,1,2.3,1.6,3.4
		c2,4.2,5,7.8,8.6,10.8c2.5,2.1,5.1,4.2,8,5.8c2.5,1.4,5,2.8,7.8,3.6c3.8,1.1,7.5,1,11.1-0.9c0.7-0.4,0.9-1.1,1.4-1.5
		C60.4,55.2,60.7,55.7,61.3,55.6z"/>
	<path class="st1" d="M27.7,11.4c0.8-0.2,0.4-0.9,0.5-1.4c0.4,0.3,0.5,0.8,0.4,1.2c-1.1,3.2-0.4,6.3,0.5,9.4
		c1.1,3.8,2.5,7.5,4.4,10.9c3.9,7,9.6,12.1,16.9,15.5c2.8,1.3,5.8,2.4,8.4,4c0.8,0.5,1.6,1.1,2.2,1.8c0,0.4,0.6,0.9-0.2,1.2
		c-0.6,0-0.7-0.6-1.1-0.8c-2.5-1.4-5-2.8-7.6-4c-3.8-1.6-7.5-3.5-10.6-6.3c-1-0.8-2.1-1.5-2.9-2.5c-2.1-2.6-4.4-5.1-6-8.1
		c-1.9-3.5-3.4-7.1-4.6-10.9c-0.1-0.3-0.1-0.6-0.1-1c0-0.7-0.2-1.4-0.4-2c-0.1-0.9-0.6-1.7-0.5-2.6c-0.1-0.6-0.2-1.2,0-1.7
		c0.4-0.6,0.3-1.2,0.3-1.8C27.4,12,27.4,11.6,27.7,11.4z"/>
	<path class="st2" d="M38.2,54.6c0.8,0.3,1.7,0.6,2,1.5c-0.1,0.1-0.2,0.2-0.3,0.3c-0.3,0.3-1.1,0.4-1,1c0.2,0.6,0.9,0.7,1.4,0.8
		c1.9,0.5,3.9,0.6,5.8,0.7c0.5,0,1,0,1.5,0.2c1.1,0,2.2,0.1,3.3,0.5c-2.5,0.7-5,0.7-7.5,0.5c-3.1-0.2-6.2-0.3-9.1-1.6
		c-0.5-0.2-1.1-0.4-1.1-1.1c0-0.6,0.6-0.9,1.1-1.1c0.9-0.5,1.9-0.6,2.8-0.9C37.6,55.2,38.1,55.2,38.2,54.6z"/>
	<path class="st3" d="M60.8,53.9c0.5-0.3-0.2-0.8,0.2-1c0.9,0.8,1.2,1.7,0.3,2.8c-0.5,0.2-1.3,1.1-1.2-0.5
		C60.1,54.6,60.1,54,60.8,53.9z"/>
	<path class="st4" d="M60.8,53.9c-0.6,0.2-0.1,1-0.7,1.3c-0.7,2-2.7,2.4-4.3,2.9c-1.3,0.4-2.7,0.8-4.1,0.6c-2-0.3-4.1-0.7-6-1.3
		c-4-1.3-7.5-3.5-10.8-6c-3.3-2.5-6.4-5.2-8.9-8.6c-1.8-2.5-3.2-5.1-4.6-7.8c-0.7-1.3-1-2.9-1.4-4.4c-0.6-2.4-1.2-4.9-0.9-7.3
		c0.3-2.1,0.8-4.2,2.5-5.8c0.6-0.8,1.5-1.3,2.4-1.8c0.7-0.4,1.2-1,1.3-1.8c0.2-1.1,0.6-2.1,0.5-3.2c0-0.6,0.4-0.9,0.8-1.2
		c0.7,0.5,1,1.2,1,2c0,0.3,0,0.6,0,1c-0.6,0.5,0.1,1.3-0.5,1.8c0,0.6-0.2,1.2,0.2,1.7c-0.7,0.4-1.5,0.8-1.6,1.7
		c-0.5,1.1-0.1,2.2-0.2,3.3c0,0.7-0.1,1.4,0.3,2.1c0.8,2.5,1.5,5,2.5,7.4c1.6,3.5,3.7,6.6,6.2,9.5c1.1,1.3,2.4,2.4,3.7,3.5
		c1.2,1.3,2.6,2.3,4.1,3.1c1.2,1,2.7,1.6,4,2.5c1.5,1.1,3.3,1.3,4.9,1.9c0.4,0.1,0.7,0,1-0.3c1.3,0.1,2.4,0.7,3.5,1.1
		c0.5,0.2,0.9,0.7,0.6,1.3c-0.3,0.6-0.8,0.2-1.2,0.1c-0.5-0.1-1-0.3-1.5-0.4c1.5,0.8,3.1,1.1,4.7,1.4c0.6,0.1,0.8-0.8,1.4-0.9
		C60.4,53,60.3,53.9,60.8,53.9z"/>
	<path class="st5" d="M47.8,59.1c-2.8,0.1-5.5,0.1-8.1-0.8c-0.5-0.2-1.3-0.2-1.3-0.8c0-0.7,0.7-0.9,1.3-1.2c0.2-0.1,0.4-0.1,0.6-0.2
		c1.1-0.1,2,0.7,2.8,1.2C44.6,58.2,46.3,58.3,47.8,59.1z"/>
	<path class="st6" d="M26.7,9.4c-0.4,0.6-0.6,1.2-0.5,2c0.2,1.1-0.4,2.2-0.6,3.2c-0.2,1.3-1.8,1.4-2.7,2.2c-0.3,0.2-0.7,0.5-1.2,0.6
		c0.1-1.5,1.5-2.1,2.4-3c0.2-0.2,0.6-0.2,0.6-0.6c0-1.1,0.3-2.1,0.4-3.1C25.2,9.5,25.6,9.2,26.7,9.4z"/>
	<path class="st7" d="M59.9,53.1c-0.5,1-0.9,1.7-2.3,1.1c-1.3-0.5-2.7-0.6-4-1.1c-0.3-0.1-0.7-0.2-0.6-0.6c0.1-0.5,0.7-0.4,0.9-0.3
		c0.6,0.3,1.1,0.5,1.7,0.6c0.2,0.1,0.5,0.5,0.7,0.1c0.2-0.3-0.1-0.6-0.3-0.8c-0.6-0.5-1.5-0.5-2.2-0.8c-0.5-0.2-0.9-0.5-1.4-0.6
		c-1.1,0.5-1.9-0.1-2.7-0.6c-0.9-0.5-1.8-0.9-2.7-1.1c-1.5-0.7-2.7-1.8-4.2-2.5c-1.5-0.9-2.8-1.9-4.1-3.2c-1.3-0.7-2.1-1.9-3.1-3
		c-1.5-1.7-2.8-3.4-4.1-5.2c-1.1-1.7-2.4-3.4-3.1-5.4c-1-2.1-2-4.3-2.4-6.7c0.2-1.2,0.8-1.5,2.3-1.4c0.8,1.1,1,2.5,1.4,3.7
		c0.4,1.4,1.3,2.7,1.7,4.1c0.8,2.4,2.2,4.5,3.6,6.5c1.6,2.1,3.3,4.3,5.3,6c3.5,2.9,7.5,5.4,11.7,7.1c2.6,1.1,4.9,2.5,7.4,3.7
		C59.7,52.7,59.8,52.8,59.9,53.1z"/>
	<path class="st8" d="M25.2,20.9c0-0.9,0-1.8,0-2.6c0-0.4,0-0.8,0.4-0.9c0.4,1,1,1.5,2.1,1c0.3,0.6,0.5,1.3,0.4,2
		c-0.7,0.5-1.7,0.4-2.5,1C25.3,21.7,25.3,21.1,25.2,20.9z"/>
	<path class="st9" d="M27.7,18.4c-0.3,0.9-1.1,0.6-1.6,0.4c-0.7-0.2-0.2-1-0.4-1.5c0.1-1.1,0.8-1.5,1.8-1.5
		C27,16.8,27.9,17.5,27.7,18.4z"/>
	<path class="st10" d="M25.2,20.9c0.2,0.1,0.3,0.5,0.5,0.2c0.7-0.9,1.6-0.7,2.5-0.7c0,0.3,0,0.7,0,1c-0.5,0.1-0.9,0.6-1.4,0.5
		c-0.7-0.1-0.5,0.6-0.6,1c-0.2,0.1-0.3,0.1-0.5,0C24.7,22.5,25.3,21.6,25.2,20.9z"/>
	<path class="st0" d="M27.2,14.2c0-0.6-0.1-1.2,0-1.8c0.1-0.5,0.3,0,0.5,0C27.5,13,28.1,13.7,27.2,14.2z"/>
	<path class="st11" d="M55.1,56.1c-2.2,0-4.5,0.3-6.7-0.1c-2.2-0.3-4.4-0.9-6.5-1.8c-3.2-1.4-6.2-3.2-8.9-5.5
		c-2.5-2.1-4.8-4.4-6.7-7.1c-1.2-1.7-2.2-3.6-3.3-5.4c-1.2-2-1.5-4.3-2.1-6.6c-0.6-2.5-0.5-4.9,0-7.4c0.2-1-0.1-2,0.5-2.9
		c0.1-0.2,0.1-0.7,0.5-0.6c0.5,0.1,0.3,0.6,0.3,0.8c-0.5,1.9,0.1,3.7,0.2,5.6c0.2,2.6,1.2,4.9,2.1,7.2c1.8,4.8,4.8,9,8.4,12.8
		c3.5,3.7,7.7,6.4,12.5,8.3c3.1,1.2,6.4,1.8,9.6,2.3C55.1,55.9,55.1,56,55.1,56.1z"/>
	<path class="st12" d="M28.6,29.5c0.7,1.8,1.8,3.3,2.8,4.9c1.7,2.7,3.8,5,5.9,7.4c0.4,0.5,1.2,0.6,1.4,1.3c0.2,0.8-0.3,0.6-0.8,0.5
		c-4.2-3.3-7.1-7.6-9.6-12.2c-0.2-0.3-0.1-0.6-0.2-0.8C27.9,29.6,27.9,29.5,28.6,29.5z"/>
	<path class="st13" d="M46.8,48.6c1-0.1,1.9,0.4,2.6,0.9c0.9,0.6,1.9,0.8,2.9,1.1c0.1,0.6-0.2,0.8-0.8,0.6c-1.7-0.5-3.4-0.8-5-1.7
		c-0.1-0.1-0.2-0.3-0.2-0.4C46.3,48.8,46.5,48.7,46.8,48.6z"/>
	<path class="st14" d="M38,43.6c0.3-0.1,0.7,0,0.8-0.5c1.3,1,2.7,2,4,3c0.2,0.6-0.1,0.6-0.5,0.5C40.5,46,39.2,44.8,38,43.6z"/>
	<path class="st15" d="M28.6,29.5c-0.7,0.1-0.3,0.6-0.4,1c-1.1-1.6-1.4-3.5-2-5.3c-0.2-0.7-0.7-1.5-0.5-2.3c0.2,0,0.3,0,0.5,0
		C26.7,25.3,27.7,27.4,28.6,29.5z"/>
	<path class="st16" d="M42.2,46.6c0.3-0.1,0.5-0.2,0.5-0.5c1.5,0.6,2.7,1.6,4,2.5c-0.1,0.2-0.3,0.4-0.5,0.5
		C44.8,48.4,43.3,47.9,42.2,46.6z"/>
</g>
</svg>
