<?xml version="1.0" encoding="utf-8"?>
<!-- Generator: Adobe Illustrator 22.1.0, SVG Export Plug-In . SVG Version: 6.00 Build 0)  -->
<svg version="1.1" id="Layer_1" xmlns="http://www.w3.org/2000/svg" xmlns:xlink="http://www.w3.org/1999/xlink" x="0px" y="0px"
	 viewBox="0 0 70 70" style="enable-background:new 0 0 70 70;" xml:space="preserve">
<style type="text/css">
	.st0{fill:#F6B448;}
	.st1{fill:#F6B24D;}
	.st2{fill:#E6E6E5;}
	.st3{fill:#9E763B;}
	.st4{fill:#F0DC0A;}
	.st5{fill:#CCCCCC;}
	.st6{fill:#F5C013;}
	.st7{fill:#ECE506;}
	.st8{fill:#F5F28D;}
	.st9{fill:#FAF7DA;}
	.st10{fill:#F0E948;}
	.st11{fill:#F5C407;}
	.st12{fill:#F8F8DF;}
	.st13{fill:#F0EC46;}
	.st14{fill:#F6F3A1;}
	.st15{fill:#F7F2A2;}
	.st16{fill:#F4EE73;}
</style>
<g>
	<path class="st0" d="M64,58.3c-1.1,1.9-3,2.7-4.9,3.4c-2.1,0.8-4.3,1.2-6.6,1.1c-1.2-0.3-2.4,0-3.6-0.3c-3.1-0.7-5.9-2.2-8.7-3.4
		c-0.6-0.8-1.5-1.2-2.2-1.9c-3.1-2.2-6.3-4.3-9.1-6.9c-5.5-5.1-9.7-11-11.9-18.3c-0.7-2.4-0.8-4.9-1.6-7.2c0-1.5,0-3,0-4.5
		c0.9-2.6,2.1-5.1,3.9-7.2c0.2-0.3,0.4-0.6,0.6-0.7c2-1.2,2.2-3.2,2.6-5.3c0.1-0.7-0.2-1.7,1.1-1.8c2.1-0.2,2.6,0,3.2,1.6
		c0.1,0.6,0.6,1.2-0.3,1.7c-1-0.3-0.7-1.6-1.7-2c-0.5-0.1-1,0-1,0.6c-0.1,1.1-0.7,2.1-0.6,3.3c0.1,0.8-0.3,1.4-1,1.8
		C21,13.1,20,14,19.5,15.3c-0.9,1.5-1.7,3-2.2,4.7c-0.7,2.4-0.6,4.7-0.1,7.1c0.5,2.3,1,4.6,1.8,6.8c0.4,1.4,1.1,2.6,1.8,3.9
		c2.3,4.8,5.7,8.8,9.7,12.2c2.8,2.4,5.7,4.7,9,6.5c2.9,1.6,5.7,3.1,8.8,4.1c4.3,1.3,8.5,1.1,12.5-1c0.8-0.4,1.1-1.2,1.6-1.7
		C63,57.9,63.4,58.4,64,58.3z"/>
	<path class="st1" d="M26.1,8.4c0.9-0.2,0.4-1,0.6-1.5c0.5,0.4,0.6,0.9,0.4,1.4c-1.2,3.6-0.5,7.1,0.5,10.6c1.3,4.3,2.9,8.4,5,12.3
		c4.4,7.9,10.8,13.6,19,17.4c3.2,1.5,6.5,2.7,9.5,4.5c0.9,0.6,1.8,1.2,2.5,2c0,0.5,0.6,1.1-0.3,1.3c-0.7,0-0.8-0.6-1.3-0.9
		c-2.8-1.6-5.6-3.2-8.6-4.5c-4.3-1.8-8.4-4-12-7.1c-1.1-1-2.4-1.7-3.3-2.8c-2.4-2.9-5-5.7-6.8-9.1c-2.1-4-3.8-8-5.1-12.3
		c-0.1-0.4-0.1-0.7-0.1-1.1c0-0.8-0.2-1.5-0.4-2.3c-0.2-1-0.6-1.9-0.6-2.9c-0.1-0.6-0.2-1.3,0.1-1.9c0.5-0.6,0.3-1.4,0.4-2.1
		C25.7,9.1,25.8,8.7,26.1,8.4z"/>
	<path class="st2" d="M38,57.2c0.9,0.4,1.9,0.7,2.3,1.7c-0.1,0.1-0.2,0.2-0.3,0.3c-0.4,0.4-1.2,0.5-1.1,1.1c0.2,0.7,1,0.8,1.6,0.9
		c2.2,0.5,4.4,0.7,6.6,0.7c0.6,0,1.1,0.1,1.7,0.3c1.3,0,2.5,0.1,3.7,0.6c-2.8,0.8-5.7,0.7-8.5,0.6c-3.5-0.2-7-0.3-10.3-1.8
		c-0.6-0.3-1.3-0.5-1.2-1.2c0-0.7,0.7-1,1.2-1.3c1-0.6,2.1-0.7,3.2-1C37.3,57.9,37.9,57.9,38,57.2z"/>
	<path class="st3" d="M63.5,56.4c0.6-0.3-0.2-0.8,0.2-1.2c1.1,0.9,1.4,2,0.3,3.1c-0.6,0.2-1.5,1.3-1.3-0.5
		C62.7,57.2,62.7,56.6,63.5,56.4z"/>
	<path class="st4" d="M63.5,56.4c-0.7,0.2-0.1,1.2-0.8,1.4c-0.8,2.3-3,2.7-4.9,3.3c-1.5,0.4-3,0.9-4.6,0.7c-2.3-0.4-4.6-0.8-6.8-1.5
		c-4.5-1.5-8.5-4-12.1-6.8c-3.7-2.8-7.2-5.9-10.1-9.7C22.1,41,20.5,38,19,35c-0.7-1.5-1.1-3.3-1.5-5c-0.7-2.7-1.3-5.5-1-8.3
		c0.3-2.4,1-4.7,2.8-6.5c0.7-1,1.7-1.5,2.7-2c0.8-0.5,1.3-1.1,1.5-2.1c0.2-1.2,0.7-2.4,0.6-3.6c0-0.6,0.4-1,0.9-1.3
		c0.8,0.5,1.1,1.3,1.1,2.2c0,0.4,0,0.7,0,1.1c-0.7,0.6,0.1,1.5-0.5,2c0,0.7-0.2,1.3,0.2,1.9c-0.8,0.5-1.6,0.9-1.9,1.9
		c-0.6,1.2-0.1,2.5-0.3,3.7c0,0.8-0.1,1.6,0.4,2.3c0.9,2.8,1.7,5.6,2.8,8.4c1.8,3.9,4.1,7.5,7,10.7c1.3,1.5,2.7,2.7,4.1,4
		c1.4,1.4,2.9,2.6,4.7,3.5c1.4,1.2,3.1,1.8,4.6,2.8c1.7,1.2,3.7,1.5,5.6,2.1c0.5,0.2,0.8,0,1.1-0.4c1.4,0.1,2.7,0.7,4,1.2
		c0.6,0.2,1,0.8,0.7,1.5c-0.3,0.7-0.9,0.3-1.3,0.1c-0.6-0.1-1.1-0.4-1.7-0.5c1.7,0.9,3.5,1.3,5.3,1.6c0.7,0.1,1-0.9,1.6-1
		C63.1,55.4,62.9,56.4,63.5,56.4z"/>
	<path class="st5" d="M48.8,62.3c-3.1,0.1-6.2,0.1-9.2-0.9c-0.6-0.2-1.4-0.3-1.4-0.9c0-0.8,0.8-1.1,1.5-1.3c0.2-0.1,0.4-0.1,0.7-0.2
		c1.3-0.1,2.2,0.8,3.2,1.3C45.2,61.2,47.1,61.4,48.8,62.3z"/>
	<path class="st6" d="M25,6.2c-0.5,0.7-0.7,1.4-0.6,2.2c0.2,1.3-0.5,2.4-0.7,3.6c-0.3,1.4-2.1,1.6-3,2.5c-0.3,0.3-0.8,0.6-1.3,0.7
		c0.1-1.7,1.6-2.3,2.7-3.3c0.2-0.2,0.7-0.2,0.7-0.7c0-1.2,0.3-2.4,0.5-3.5C23.4,6.3,23.8,6,25,6.2z"/>
	<path class="st7" d="M62.4,55.5c-0.5,1.1-1,1.9-2.6,1.3c-1.4-0.6-3-0.7-4.5-1.3c-0.3-0.1-0.8-0.2-0.7-0.7c0.1-0.6,0.8-0.5,1.1-0.3
		c0.6,0.3,1.3,0.5,1.9,0.7c0.3,0.1,0.5,0.6,0.8,0.1c0.2-0.4-0.1-0.7-0.4-0.9c-0.7-0.6-1.7-0.6-2.5-0.9c-0.5-0.2-1-0.6-1.6-0.7
		c-1.2,0.5-2.2-0.2-3.1-0.7c-1-0.6-2-1-3.1-1.3c-1.7-0.8-3.1-2-4.7-2.8c-1.7-1-3.2-2.2-4.6-3.6c-1.5-0.8-2.4-2.2-3.5-3.4
		c-1.7-1.9-3.2-3.8-4.6-5.9c-1.3-2-2.7-3.9-3.5-6.1c-1.2-2.4-2.2-4.9-2.7-7.5c0.2-1.3,0.9-1.7,2.6-1.6c0.9,1.3,1.1,2.8,1.5,4.2
		c0.5,1.6,1.4,3,2,4.6c0.9,2.7,2.5,5.1,4.1,7.3c1.8,2.4,3.7,4.8,6,6.8c4,3.3,8.4,6.1,13.2,8c2.9,1.2,5.6,2.9,8.4,4.2
		C62.2,55.1,62.4,55.2,62.4,55.5z"/>
	<path class="st8" d="M23.3,19.2c0-1,0-2,0-3c0-0.4-0.1-0.9,0.5-1c0.4,1.1,1.1,1.7,2.4,1.2c0.4,0.7,0.5,1.5,0.5,2.3
		c-0.8,0.6-2,0.4-2.8,1.1C23.5,20.1,23.5,19.4,23.3,19.2z"/>
	<path class="st9" d="M26.1,16.4c-0.4,1.1-1.3,0.6-1.9,0.5c-0.8-0.2-0.3-1.1-0.5-1.7c0.1-1.3,0.9-1.7,2-1.7
		C25.3,14.5,26.3,15.4,26.1,16.4z"/>
	<path class="st10" d="M23.3,19.2c0.2,0.1,0.3,0.5,0.5,0.3c0.7-1.1,1.8-0.8,2.8-0.8c0,0.4,0,0.8,0,1.2c-0.6,0.1-1,0.6-1.6,0.6
		c-0.8-0.1-0.5,0.7-0.6,1.1c-0.2,0.1-0.4,0.1-0.6,0C22.7,20.9,23.5,20,23.3,19.2z"/>
	<path class="st0" d="M25.6,11.6c0-0.7-0.1-1.4,0-2c0.1-0.6,0.3,0,0.5,0C25.9,10.2,26.5,11.1,25.6,11.6z"/>
	<path class="st11" d="M57.1,58.8c-2.5,0-5.1,0.3-7.5-0.1c-2.5-0.4-4.9-1-7.3-2c-3.6-1.6-7-3.6-10-6.2c-2.8-2.4-5.4-5-7.5-8
		c-1.4-1.9-2.5-4-3.7-6.1c-1.3-2.3-1.7-4.9-2.4-7.4c-0.7-2.8-0.6-5.5,0-8.3c0.2-1.1-0.1-2.2,0.6-3.3c0.2-0.3,0.1-0.8,0.5-0.7
		c0.5,0.1,0.4,0.6,0.3,0.9c-0.6,2.1,0.1,4.2,0.3,6.3c0.2,2.9,1.3,5.5,2.3,8.1c2.1,5.5,5.4,10.2,9.4,14.4c4,4.2,8.7,7.2,14.1,9.3
		c3.5,1.4,7.2,2,10.9,2.6C57.1,58.6,57.1,58.7,57.1,58.8z"/>
	<path class="st12" d="M27.2,28.9c0.8,2,2,3.7,3.2,5.5c1.9,3,4.3,5.7,6.6,8.4c0.5,0.6,1.3,0.7,1.6,1.4c0.2,0.9-0.4,0.7-0.9,0.6
		c-4.7-3.7-8-8.6-10.8-13.8c-0.2-0.3-0.2-0.6-0.2-0.9C26.4,29,26.4,28.9,27.2,28.9z"/>
	<path class="st13" d="M47.6,50.4c1.1-0.1,2.1,0.4,3,1c1,0.7,2.1,0.9,3.3,1.3c0.1,0.7-0.2,0.9-0.9,0.7c-1.9-0.6-3.9-0.9-5.6-1.9
		c-0.1-0.1-0.2-0.3-0.3-0.5C47.1,50.7,47.4,50.5,47.6,50.4z"/>
	<path class="st14" d="M37.7,44.8c0.4-0.1,0.8,0,0.9-0.6c1.5,1.1,3,2.3,4.5,3.4c0.2,0.7-0.1,0.7-0.6,0.6
		C40.5,47.5,39.1,46.2,37.7,44.8z"/>
	<path class="st15" d="M27.2,28.9c-0.7,0.1-0.4,0.7-0.5,1.1c-1.2-1.8-1.6-3.9-2.2-5.9c-0.3-0.8-0.7-1.6-0.6-2.6c0.2,0,0.4,0,0.6,0
		C25,24.1,26.1,26.5,27.2,28.9z"/>
	<path class="st16" d="M42.5,48.2c0.3-0.1,0.6-0.2,0.6-0.6c1.7,0.7,3.1,1.8,4.5,2.8c-0.1,0.3-0.3,0.4-0.6,0.6
		C45.4,50.2,43.7,49.6,42.5,48.2z"/>
</g>
</svg>
