<?xml version="1.0" encoding="utf-8"?>
<!-- Generator: Adobe Illustrator 22.1.0, SVG Export Plug-In . SVG Version: 6.00 Build 0)  -->
<svg version="1.1" id="Layer_1" xmlns="http://www.w3.org/2000/svg" xmlns:xlink="http://www.w3.org/1999/xlink" x="0px" y="0px"
	 viewBox="0 0 70 70" style="enable-background:new 0 0 70 70;" xml:space="preserve">
<style type="text/css">
	.st0{fill:#F6B448;}
	.st1{fill:#F6B24D;}
	.st2{fill:#E6E6E5;}
	.st3{fill:#9E763B;}
	.st4{fill:#F0DC0A;}
	.st5{fill:#CCCCCC;}
	.st6{fill:#F5C013;}
	.st7{fill:#ECE506;}
	.st8{fill:#F5F28D;}
	.st9{fill:#FAF7DA;}
	.st10{fill:#F0E948;}
	.st11{fill:#F5C407;}
	.st12{fill:#F8F8DF;}
	.st13{fill:#F0EC46;}
	.st14{fill:#F6F3A1;}
	.st15{fill:#F7F2A2;}
	.st16{fill:#F4EE73;}
</style>
<g>
	<path class="st0" d="M63.3,57.6c-1.1,1.8-2.9,2.6-4.8,3.3c-2.1,0.7-4.2,1.1-6.4,1.1c-1.1-0.3-2.3,0-3.5-0.3c-3-0.7-5.7-2.1-8.4-3.3
		c-0.6-0.8-1.5-1.2-2.1-1.9c-3-2.1-6.1-4.1-8.8-6.6c-5.3-4.9-9.4-10.6-11.6-17.7c-0.7-2.3-0.8-4.8-1.6-7c0-1.5,0-2.9,0-4.4
		c0.8-2.6,2-4.9,3.8-7c0.2-0.2,0.4-0.6,0.6-0.7c1.9-1.2,2.2-3.1,2.5-5.1c0.1-0.7-0.2-1.6,1-1.8c2.1-0.2,2.5,0,3.1,1.6
		c0.1,0.6,0.6,1.2-0.3,1.6c-1-0.3-0.7-1.6-1.6-1.9c-0.5-0.1-0.9,0-1,0.6c-0.1,1.1-0.7,2.1-0.6,3.2c0.1,0.8-0.3,1.3-1,1.8
		c-1.1,0.7-2,1.6-2.5,2.8c-0.9,1.4-1.7,2.9-2.1,4.6c-0.6,2.3-0.6,4.5-0.1,6.8c0.5,2.2,1,4.4,1.7,6.6c0.4,1.3,1.1,2.5,1.7,3.7
		c2.2,4.6,5.5,8.5,9.4,11.8c2.7,2.3,5.5,4.6,8.7,6.3c2.8,1.5,5.5,3,8.6,3.9c4.2,1.3,8.2,1.1,12.2-0.9c0.7-0.4,1-1.1,1.6-1.7
		C62.2,57.2,62.7,57.7,63.3,57.6z"/>
	<path class="st1" d="M26.5,9.3c0.9-0.2,0.4-1,0.6-1.5c0.5,0.4,0.6,0.8,0.4,1.3C26.3,12.6,27,16,28,19.4c1.2,4.2,2.8,8.2,4.9,12
		c4.2,7.7,10.5,13.2,18.4,16.9c3.1,1.4,6.3,2.6,9.2,4.4c0.9,0.5,1.7,1.2,2.4,1.9c0,0.5,0.6,1-0.3,1.3c-0.7,0-0.8-0.6-1.2-0.9
		c-2.7-1.5-5.4-3.1-8.4-4.3c-4.1-1.8-8.2-3.8-11.6-6.9c-1.1-0.9-2.3-1.6-3.2-2.7c-2.3-2.9-4.8-5.5-6.6-8.8c-2-3.8-3.7-7.8-5-11.9
		c-0.1-0.3-0.1-0.7-0.1-1c0-0.8-0.2-1.5-0.4-2.2c-0.2-0.9-0.6-1.8-0.5-2.8c-0.1-0.6-0.2-1.3,0.1-1.9c0.5-0.6,0.3-1.3,0.4-2
		C26.2,9.9,26.2,9.5,26.5,9.3z"/>
	<path class="st2" d="M38.1,56.5c0.9,0.3,1.8,0.6,2.2,1.6c-0.1,0.1-0.2,0.2-0.3,0.3c-0.4,0.4-1.2,0.4-1.1,1.1c0.2,0.7,1,0.7,1.6,0.9
		c2.1,0.5,4.2,0.7,6.4,0.7c0.6,0,1.1,0.1,1.6,0.3c1.2,0,2.4,0.1,3.6,0.5c-2.7,0.8-5.5,0.7-8.2,0.5c-3.4-0.2-6.8-0.3-10-1.8
		c-0.5-0.2-1.2-0.5-1.2-1.2c0-0.6,0.6-0.9,1.2-1.2c1-0.5,2.1-0.7,3.1-1C37.4,57.2,38,57.2,38.1,56.5z"/>
	<path class="st3" d="M62.8,55.7c0.5-0.3-0.2-0.8,0.2-1.1c1,0.9,1.3,1.9,0.3,3c-0.6,0.2-1.5,1.2-1.3-0.5C62,56.5,62,55.9,62.8,55.7z
		"/>
	<path class="st4" d="M62.8,55.7c-0.7,0.2-0.1,1.1-0.8,1.4c-0.8,2.2-2.9,2.6-4.7,3.2c-1.4,0.4-2.9,0.9-4.5,0.6
		c-2.2-0.4-4.4-0.7-6.6-1.4c-4.4-1.4-8.2-3.9-11.8-6.6c-3.6-2.7-7-5.7-9.7-9.4c-2-2.7-3.5-5.6-5-8.5c-0.7-1.5-1.1-3.2-1.5-4.8
		c-0.7-2.7-1.3-5.3-1-8c0.3-2.3,0.9-4.6,2.7-6.3c0.7-0.9,1.7-1.4,2.6-2c0.8-0.5,1.3-1.1,1.4-2c0.2-1.2,0.7-2.3,0.6-3.5
		c0-0.6,0.4-1,0.9-1.3c0.8,0.5,1,1.3,1.1,2.2c0,0.4,0,0.7,0,1.1c-0.6,0.5,0.1,1.4-0.5,2c0,0.6-0.2,1.3,0.2,1.9
		c-0.8,0.4-1.6,0.9-1.8,1.9c-0.6,1.2-0.1,2.4-0.3,3.6c0,0.8-0.1,1.5,0.3,2.2c0.9,2.7,1.7,5.5,2.7,8.1c1.7,3.8,4,7.2,6.8,10.4
		c1.2,1.4,2.6,2.6,4,3.9c1.3,1.4,2.8,2.5,4.5,3.4c1.3,1.1,3,1.7,4.4,2.7c1.6,1.2,3.6,1.4,5.4,2c0.5,0.2,0.8,0,1.1-0.3
		c1.4,0.1,2.6,0.7,3.9,1.2c0.6,0.2,1,0.7,0.7,1.4c-0.3,0.7-0.9,0.2-1.3,0.1c-0.6-0.1-1.1-0.4-1.7-0.5c1.6,0.9,3.4,1.2,5.2,1.6
		c0.7,0.1,0.9-0.8,1.6-1C62.3,54.8,62.2,55.7,62.8,55.7z"/>
	<path class="st5" d="M48.5,61.4c-3,0.1-6,0.1-8.9-0.9c-0.5-0.2-1.4-0.3-1.4-0.9c0-0.7,0.8-1,1.4-1.3c0.2-0.1,0.4-0.1,0.7-0.2
		c1.2-0.1,2.2,0.7,3.1,1.3C45,60.4,46.9,60.5,48.5,61.4z"/>
	<path class="st6" d="M25.4,7.1c-0.4,0.7-0.7,1.4-0.6,2.2c0.2,1.3-0.5,2.4-0.7,3.5c-0.2,1.4-2,1.5-2.9,2.4c-0.3,0.3-0.8,0.6-1.3,0.7
		c0.1-1.7,1.6-2.3,2.6-3.2c0.2-0.2,0.7-0.2,0.7-0.7c0-1.2,0.3-2.3,0.4-3.4C23.9,7.1,24.3,6.9,25.4,7.1z"/>
	<path class="st7" d="M61.7,54.8c-0.5,1.1-1,1.8-2.5,1.2c-1.4-0.6-2.9-0.7-4.4-1.3c-0.3-0.1-0.8-0.2-0.7-0.7c0.1-0.6,0.7-0.5,1-0.3
		c0.6,0.3,1.2,0.5,1.9,0.7c0.3,0.1,0.5,0.5,0.8,0.1c0.2-0.4-0.1-0.6-0.4-0.9c-0.7-0.6-1.6-0.5-2.4-0.9c-0.5-0.2-1-0.5-1.6-0.6
		c-1.2,0.5-2.1-0.2-3-0.7c-0.9-0.6-1.9-1-3-1.2c-1.6-0.7-3-2-4.6-2.7c-1.6-1-3.1-2.1-4.4-3.5c-1.4-0.8-2.3-2.1-3.4-3.3
		C33.5,38.9,32,37,30.6,35c-1.3-1.9-2.6-3.8-3.4-5.9c-1.1-2.3-2.1-4.7-2.6-7.3c0.2-1.3,0.9-1.7,2.5-1.5c0.8,1.2,1.1,2.7,1.5,4.1
		c0.5,1.6,1.4,2.9,1.9,4.4c0.9,2.6,2.4,4.9,4,7.1c1.7,2.3,3.6,4.7,5.8,6.6c3.9,3.2,8.2,5.9,12.8,7.8c2.8,1.2,5.4,2.8,8.1,4.1
		C61.5,54.4,61.7,54.5,61.7,54.8z"/>
	<path class="st8" d="M23.8,19.7c0-1,0-1.9,0-2.9c0-0.4-0.1-0.9,0.5-1c0.4,1.1,1.1,1.7,2.3,1.1c0.4,0.7,0.5,1.4,0.5,2.2
		c-0.8,0.6-1.9,0.4-2.7,1.1C24,20.5,24,19.9,23.8,19.7z"/>
	<path class="st9" d="M26.6,16.9c-0.4,1-1.2,0.6-1.8,0.5c-0.8-0.2-0.3-1.1-0.5-1.6c0.1-1.2,0.9-1.6,1.9-1.6
		C25.8,15.1,26.7,16,26.6,16.9z"/>
	<path class="st10" d="M23.8,19.7c0.2,0.1,0.3,0.5,0.5,0.3c0.7-1,1.8-0.7,2.7-0.8c0,0.4,0,0.8,0,1.1c-0.6,0.1-0.9,0.6-1.6,0.6
		c-0.8-0.1-0.5,0.7-0.6,1.1c-0.2,0.1-0.4,0.1-0.5,0C23.3,21.4,24,20.4,23.8,19.7z"/>
	<path class="st0" d="M26,12.3c0-0.7-0.1-1.3,0-2c0.1-0.6,0.3,0,0.5,0C26.4,11,27,11.8,26,12.3z"/>
	<path class="st11" d="M56.6,58.1c-2.4,0-4.9,0.3-7.3-0.1c-2.4-0.4-4.8-0.9-7.1-2c-3.5-1.6-6.8-3.5-9.7-6c-2.7-2.3-5.2-4.8-7.3-7.7
		c-1.3-1.9-2.4-3.9-3.6-5.9c-1.3-2.2-1.7-4.7-2.3-7.2c-0.7-2.7-0.6-5.4,0-8.1c0.2-1-0.1-2.2,0.6-3.2c0.2-0.2,0.1-0.7,0.5-0.7
		c0.5,0.1,0.4,0.6,0.3,0.9c-0.5,2.1,0.1,4.1,0.2,6.1c0.2,2.8,1.3,5.3,2.2,7.8c2,5.3,5.2,9.9,9.2,13.9c3.9,4,8.4,7,13.6,9.1
		c3.4,1.4,7,2,10.5,2.5C56.6,57.9,56.6,58,56.6,58.1z"/>
	<path class="st12" d="M27.6,29.1c0.7,1.9,2,3.6,3.1,5.3c1.9,2.9,4.1,5.5,6.4,8.1c0.5,0.5,1.3,0.7,1.6,1.4c0.2,0.9-0.3,0.7-0.8,0.5
		c-4.6-3.6-7.7-8.3-10.5-13.4c-0.2-0.3-0.2-0.6-0.2-0.9C26.8,29.1,26.8,29.1,27.6,29.1z"/>
	<path class="st13" d="M47.4,49.9c1.1-0.1,2,0.4,2.9,1c1,0.7,2.1,0.9,3.2,1.2c0.1,0.7-0.2,0.9-0.9,0.7c-1.8-0.6-3.7-0.9-5.5-1.9
		c-0.1-0.1-0.2-0.3-0.2-0.4C46.9,50.2,47.1,50,47.4,49.9z"/>
	<path class="st14" d="M37.8,44.4c0.4-0.1,0.8,0,0.8-0.5c1.5,1.1,2.9,2.2,4.4,3.3c0.2,0.7-0.1,0.7-0.6,0.6
		C40.5,47.1,39.1,45.8,37.8,44.4z"/>
	<path class="st15" d="M27.6,29.1c-0.7,0.1-0.4,0.7-0.5,1.1c-1.2-1.7-1.5-3.8-2.2-5.7c-0.3-0.8-0.7-1.6-0.6-2.5c0.2,0,0.4,0,0.5,0
		C25.5,24.4,26.6,26.7,27.6,29.1z"/>
	<path class="st16" d="M42.4,47.8c0.3-0.1,0.6-0.2,0.6-0.6c1.6,0.6,3,1.7,4.4,2.7c-0.1,0.3-0.3,0.4-0.5,0.5
		C45.3,49.7,43.6,49.2,42.4,47.8z"/>
</g>
</svg>
