<?xml version="1.0" encoding="utf-8"?>
<!-- Generator: Adobe Illustrator 22.1.0, SVG Export Plug-In . SVG Version: 6.00 Build 0)  -->
<svg version="1.1" id="Layer_1" xmlns="http://www.w3.org/2000/svg" xmlns:xlink="http://www.w3.org/1999/xlink" x="0px" y="0px"
	 viewBox="0 0 70 70" style="enable-background:new 0 0 70 70;" xml:space="preserve">
<style type="text/css">
	.st0{fill:#F6B448;}
	.st1{fill:#F6B24D;}
	.st2{fill:#E6E6E5;}
	.st3{fill:#9E763B;}
	.st4{fill:#F0DC0A;}
	.st5{fill:#CCCCCC;}
	.st6{fill:#F5C013;}
	.st7{fill:#ECE506;}
	.st8{fill:#F5F28D;}
	.st9{fill:#FAF7DA;}
	.st10{fill:#F0E948;}
	.st11{fill:#F5C407;}
	.st12{fill:#F8F8DF;}
	.st13{fill:#F0EC46;}
	.st14{fill:#F6F3A1;}
	.st15{fill:#F7F2A2;}
	.st16{fill:#F4EE73;}
</style>
<g>
	<path class="st0" d="M63.5,57.8c-1.1,1.8-2.9,2.6-4.8,3.3c-2.1,0.7-4.2,1.1-6.5,1.1c-1.2-0.3-2.4,0-3.5-0.3c-3-0.7-5.7-2.1-8.5-3.4
		c-0.6-0.8-1.5-1.2-2.2-1.9c-3-2.2-6.2-4.2-8.9-6.7c-5.4-5-9.5-10.7-11.7-17.9c-0.7-2.3-0.8-4.8-1.6-7.1c0-1.5,0-3,0-4.4
		c0.9-2.6,2-5,3.8-7.1c0.2-0.2,0.4-0.6,0.6-0.7c2-1.2,2.2-3.2,2.5-5.1c0.1-0.7-0.2-1.7,1-1.8c2.1-0.2,2.6,0,3.1,1.6
		c0.1,0.6,0.6,1.2-0.3,1.6c-1-0.3-0.7-1.6-1.6-1.9c-0.5-0.1-0.9,0-1,0.6c-0.1,1.1-0.7,2.1-0.6,3.2c0.1,0.8-0.3,1.3-1,1.8
		c-1.1,0.7-2,1.6-2.5,2.8c-0.9,1.4-1.7,2.9-2.1,4.6c-0.6,2.3-0.6,4.6-0.1,6.9c0.5,2.2,1,4.5,1.7,6.7c0.4,1.3,1.1,2.5,1.7,3.8
		c2.3,4.7,5.6,8.6,9.5,11.9c2.7,2.4,5.6,4.6,8.8,6.4c2.8,1.6,5.6,3,8.6,4c4.2,1.3,8.3,1.1,12.3-1c0.7-0.4,1-1.2,1.6-1.7
		C62.5,57.4,62.9,57.9,63.5,57.8z"/>
	<path class="st1" d="M26.4,9c0.9-0.2,0.4-1,0.6-1.5c0.5,0.4,0.6,0.8,0.4,1.4c-1.2,3.5-0.5,6.9,0.5,10.4c1.2,4.2,2.8,8.3,4.9,12.1
		c4.3,7.8,10.6,13.3,18.6,17.1c3.1,1.5,6.4,2.6,9.3,4.4c0.9,0.6,1.7,1.2,2.5,1.9c0,0.5,0.6,1-0.3,1.3c-0.7,0-0.8-0.6-1.3-0.9
		c-2.8-1.5-5.5-3.1-8.4-4.4c-4.2-1.8-8.2-3.9-11.7-6.9c-1.1-0.9-2.3-1.6-3.3-2.8c-2.3-2.9-4.9-5.6-6.6-8.9c-2.1-3.9-3.7-7.9-5-12.1
		c-0.1-0.3-0.1-0.7-0.1-1.1c0-0.8-0.2-1.5-0.4-2.2c-0.2-1-0.6-1.9-0.5-2.9c-0.1-0.6-0.2-1.3,0.1-1.9c0.5-0.6,0.3-1.3,0.4-2
		C26,9.6,26.1,9.2,26.4,9z"/>
	<path class="st2" d="M38,56.8c0.9,0.3,1.8,0.7,2.3,1.7c-0.1,0.1-0.2,0.2-0.3,0.3c-0.4,0.4-1.2,0.5-1.1,1.1c0.2,0.7,1,0.7,1.6,0.9
		c2.1,0.5,4.3,0.7,6.4,0.7c0.6,0,1.1,0.1,1.6,0.3c1.2,0,2.5,0.1,3.6,0.6c-2.7,0.8-5.5,0.7-8.3,0.5c-3.4-0.2-6.9-0.3-10.1-1.8
		c-0.5-0.2-1.2-0.5-1.2-1.2c0-0.7,0.6-1,1.2-1.2c1-0.5,2.1-0.7,3.1-1C37.4,57.4,37.9,57.4,38,56.8z"/>
	<path class="st3" d="M63,55.9c0.5-0.3-0.2-0.8,0.2-1.2c1,0.9,1.3,1.9,0.3,3.1c-0.6,0.2-1.5,1.2-1.3-0.5
		C62.2,56.7,62.2,56.1,63,55.9z"/>
	<path class="st4" d="M63,55.9c-0.7,0.2-0.1,1.2-0.8,1.4c-0.8,2.2-3,2.6-4.8,3.2c-1.4,0.4-2.9,0.9-4.5,0.7c-2.3-0.4-4.5-0.7-6.7-1.5
		c-4.4-1.5-8.3-3.9-11.9-6.6c-3.6-2.8-7-5.8-9.8-9.5c-2-2.7-3.6-5.6-5-8.6c-0.7-1.5-1.1-3.2-1.5-4.9c-0.7-2.7-1.3-5.4-1-8.1
		c0.3-2.3,0.9-4.6,2.7-6.4c0.7-0.9,1.7-1.4,2.6-2c0.8-0.5,1.3-1.1,1.5-2c0.2-1.2,0.7-2.3,0.6-3.5c0-0.6,0.4-1,0.9-1.3
		c0.8,0.5,1.1,1.3,1.1,2.2c0,0.4,0,0.7,0,1.1c-0.6,0.5,0.1,1.4-0.5,2c0,0.6-0.2,1.3,0.2,1.9c-0.8,0.4-1.6,0.9-1.8,1.9
		c-0.6,1.2-0.1,2.4-0.3,3.6c0,0.8-0.1,1.6,0.3,2.3c0.9,2.7,1.7,5.5,2.8,8.2c1.7,3.8,4.1,7.3,6.8,10.5c1.2,1.4,2.7,2.6,4,3.9
		c1.3,1.4,2.9,2.5,4.6,3.4c1.3,1.2,3,1.8,4.5,2.7c1.6,1.2,3.6,1.5,5.5,2.1c0.5,0.2,0.8,0,1.1-0.3c1.4,0.1,2.6,0.7,3.9,1.2
		c0.6,0.2,1,0.8,0.7,1.4c-0.3,0.7-0.9,0.2-1.3,0.1c-0.6-0.1-1.1-0.4-1.7-0.5c1.6,0.9,3.4,1.2,5.2,1.6c0.7,0.1,0.9-0.8,1.6-1
		C62.6,55,62.4,56,63,55.9z"/>
	<path class="st5" d="M48.6,61.7c-3,0.1-6.1,0.1-9-0.9c-0.5-0.2-1.4-0.3-1.4-0.9c0-0.7,0.8-1,1.4-1.3c0.2-0.1,0.4-0.1,0.7-0.2
		c1.3-0.1,2.2,0.7,3.1,1.3C45.1,60.6,47,60.8,48.6,61.7z"/>
	<path class="st6" d="M25.3,6.8c-0.4,0.7-0.7,1.4-0.6,2.2c0.2,1.3-0.5,2.4-0.7,3.6c-0.3,1.4-2,1.5-3,2.4c-0.3,0.3-0.8,0.6-1.3,0.7
		c0.1-1.7,1.6-2.3,2.6-3.3c0.2-0.2,0.7-0.2,0.7-0.7c0-1.2,0.3-2.3,0.4-3.5C23.7,6.8,24.1,6.6,25.3,6.8z"/>
	<path class="st7" d="M61.9,55.1c-0.5,1.1-1,1.9-2.6,1.2c-1.4-0.6-3-0.7-4.4-1.3c-0.3-0.1-0.8-0.2-0.7-0.7c0.1-0.6,0.7-0.5,1-0.3
		c0.6,0.3,1.2,0.5,1.9,0.7c0.3,0.1,0.5,0.5,0.8,0.1c0.2-0.4-0.1-0.6-0.4-0.9c-0.7-0.6-1.6-0.5-2.4-0.9c-0.5-0.2-1-0.6-1.6-0.6
		c-1.2,0.5-2.1-0.2-3-0.7c-1-0.6-1.9-1-3-1.2c-1.6-0.7-3-2-4.6-2.8c-1.6-1-3.1-2.1-4.5-3.5C37,43.3,36.1,42,35,40.8
		c-1.6-1.8-3.1-3.7-4.5-5.8c-1.3-1.9-2.6-3.8-3.5-6c-1.1-2.4-2.2-4.8-2.7-7.4c0.2-1.3,0.9-1.7,2.5-1.5c0.8,1.3,1.1,2.8,1.5,4.1
		c0.5,1.6,1.4,2.9,1.9,4.5c0.9,2.6,2.4,5,4,7.1c1.7,2.3,3.6,4.7,5.9,6.7c3.9,3.3,8.2,5.9,12.9,7.8c2.9,1.2,5.4,2.8,8.2,4.1
		C61.7,54.6,61.9,54.7,61.9,55.1z"/>
	<path class="st8" d="M23.6,19.5c0-1,0-1.9,0-2.9c0-0.4-0.1-0.9,0.5-1c0.4,1.1,1.1,1.7,2.3,1.1c0.4,0.7,0.5,1.4,0.5,2.2
		c-0.8,0.6-1.9,0.4-2.7,1.1C23.8,20.4,23.8,19.7,23.6,19.5z"/>
	<path class="st9" d="M26.4,16.7c-0.4,1-1.3,0.6-1.8,0.5c-0.8-0.2-0.3-1.1-0.5-1.6c0.1-1.2,0.9-1.6,2-1.7
		C25.6,14.9,26.6,15.8,26.4,16.7z"/>
	<path class="st10" d="M23.6,19.5c0.2,0.1,0.3,0.5,0.5,0.3c0.7-1,1.8-0.8,2.8-0.8c0,0.4,0,0.8,0,1.1c-0.6,0.1-0.9,0.6-1.6,0.6
		c-0.8-0.1-0.5,0.7-0.6,1.1c-0.2,0.1-0.4,0.1-0.5,0C23.1,21.2,23.8,20.3,23.6,19.5z"/>
	<path class="st0" d="M25.9,12c0-0.7-0.1-1.3,0-2c0.1-0.6,0.3,0,0.5,0C26.2,10.7,26.8,11.6,25.9,12z"/>
	<path class="st11" d="M56.7,58.3c-2.5,0-5,0.3-7.4-0.1c-2.4-0.4-4.8-0.9-7.1-2c-3.5-1.6-6.9-3.5-9.8-6c-2.7-2.3-5.3-4.9-7.4-7.8
		c-1.4-1.9-2.5-4-3.6-6c-1.3-2.2-1.7-4.8-2.3-7.2c-0.7-2.8-0.6-5.4,0-8.1c0.2-1.1-0.1-2.2,0.6-3.2c0.2-0.3,0.1-0.7,0.5-0.7
		c0.5,0.1,0.4,0.6,0.3,0.9c-0.5,2.1,0.1,4.1,0.2,6.1c0.2,2.8,1.3,5.4,2.3,7.9c2,5.4,5.3,10,9.2,14.1c3.9,4.1,8.5,7.1,13.8,9.1
		c3.4,1.4,7,2,10.7,2.6C56.7,58.1,56.7,58.2,56.7,58.3z"/>
	<path class="st12" d="M27.4,29c0.7,2,2,3.7,3.1,5.4c1.9,2.9,4.2,5.6,6.5,8.2c0.5,0.5,1.3,0.7,1.6,1.4c0.2,0.9-0.3,0.7-0.8,0.5
		c-4.6-3.7-7.8-8.4-10.6-13.5c-0.2-0.3-0.2-0.6-0.2-0.9C26.7,29.1,26.7,29,27.4,29z"/>
	<path class="st13" d="M47.5,50.1c1.1-0.1,2.1,0.4,2.9,1c1,0.7,2.1,0.9,3.2,1.2c0.1,0.7-0.2,0.9-0.9,0.7c-1.9-0.6-3.8-0.9-5.5-1.9
		C47,51,47,50.8,46.9,50.6C47,50.3,47.2,50.2,47.5,50.1z"/>
	<path class="st14" d="M37.7,44.5c0.4-0.1,0.8,0,0.8-0.5c1.5,1.1,3,2.2,4.4,3.3c0.2,0.7-0.1,0.7-0.6,0.6
		C40.5,47.3,39.1,45.9,37.7,44.5z"/>
	<path class="st15" d="M27.4,29c-0.7,0.1-0.4,0.7-0.5,1.1c-1.2-1.8-1.5-3.9-2.2-5.8c-0.3-0.8-0.7-1.6-0.6-2.5c0.2,0,0.4,0,0.5,0
		C25.3,24.3,26.4,26.6,27.4,29z"/>
	<path class="st16" d="M42.4,47.9c0.3-0.1,0.6-0.2,0.6-0.6c1.6,0.6,3,1.8,4.4,2.8c-0.1,0.3-0.3,0.4-0.5,0.5
		C45.3,49.9,43.6,49.3,42.4,47.9z"/>
</g>
</svg>
