<?xml version="1.0" encoding="utf-8"?>
<!-- Generator: Adobe Illustrator 22.1.0, SVG Export Plug-In . SVG Version: 6.00 Build 0)  -->
<svg version="1.1" id="Layer_1" xmlns="http://www.w3.org/2000/svg" xmlns:xlink="http://www.w3.org/1999/xlink" x="0px" y="0px"
	 viewBox="0 0 70 70" style="enable-background:new 0 0 70 70;" xml:space="preserve">
<style type="text/css">
	.st0{fill:#F6B448;}
	.st1{fill:#F6B24D;}
	.st2{fill:#E6E6E5;}
	.st3{fill:#9E763B;}
	.st4{fill:#F0DC0A;}
	.st5{fill:#CCCCCC;}
	.st6{fill:#F5C013;}
	.st7{fill:#ECE506;}
	.st8{fill:#F5F28D;}
	.st9{fill:#FAF7DA;}
	.st10{fill:#F0E948;}
	.st11{fill:#F5C407;}
	.st12{fill:#F8F8DF;}
	.st13{fill:#F0EC46;}
	.st14{fill:#F6F3A1;}
	.st15{fill:#F7F2A2;}
	.st16{fill:#F4EE73;}
</style>
<g>
	<path class="st0" d="M61.1,55.4c-1,1.7-2.6,2.4-4.3,3c-1.9,0.7-3.8,1-5.8,1c-1-0.3-2.1,0-3.2-0.2c-2.7-0.6-5.1-1.9-7.6-3
		c-0.5-0.7-1.4-1-1.9-1.7c-2.7-1.9-5.5-3.7-8-6c-4.8-4.5-8.5-9.6-10.5-16c-0.6-2.1-0.7-4.3-1.4-6.3c0-1.3,0-2.6,0-4
		c0.8-2.3,1.8-4.5,3.4-6.3c0.2-0.2,0.3-0.5,0.6-0.6c1.8-1.1,2-2.8,2.3-4.6c0.1-0.6-0.1-1.5,0.9-1.6c1.9-0.2,2.3,0,2.8,1.4
		c0.1,0.5,0.5,1.1-0.3,1.5c-0.9-0.2-0.6-1.4-1.5-1.7c-0.5-0.1-0.8,0-0.9,0.6c-0.1,1-0.6,1.9-0.5,2.9c0.1,0.7-0.3,1.2-0.9,1.6
		c-1,0.6-1.8,1.4-2.3,2.5c-0.8,1.3-1.5,2.6-1.9,4.1c-0.6,2.1-0.5,4.1,0,6.2c0.4,2,0.9,4,1.5,6c0.4,1.2,1,2.3,1.5,3.4
		c2,4.2,5,7.7,8.5,10.7c2.5,2.1,5,4.1,7.9,5.7c2.5,1.4,5,2.7,7.7,3.6c3.8,1.1,7.4,1,11-0.9c0.7-0.4,0.9-1,1.4-1.5
		C60.1,55,60.5,55.4,61.1,55.4z"/>
	<path class="st1" d="M27.8,11.7c0.8-0.2,0.3-0.9,0.5-1.3c0.4,0.3,0.5,0.8,0.4,1.2c-1.1,3.2-0.4,6.2,0.5,9.3
		c1.1,3.8,2.5,7.4,4.4,10.8c3.8,7,9.5,11.9,16.7,15.3c2.8,1.3,5.7,2.3,8.3,3.9c0.8,0.5,1.5,1.1,2.2,1.7c0,0.4,0.6,0.9-0.2,1.2
		c-0.6,0-0.7-0.6-1.1-0.8c-2.5-1.4-4.9-2.8-7.6-3.9c-3.8-1.6-7.4-3.5-10.5-6.2c-1-0.8-2.1-1.5-2.9-2.5c-2.1-2.6-4.3-5-5.9-8
		c-1.8-3.5-3.3-7.1-4.5-10.8C28,21.3,28,21,28,20.7c0-0.7-0.2-1.3-0.4-2c-0.1-0.9-0.6-1.7-0.5-2.6c-0.1-0.6-0.2-1.1,0-1.7
		c0.4-0.5,0.3-1.2,0.3-1.8C27.5,12.2,27.5,11.9,27.8,11.7z"/>
	<path class="st2" d="M38.2,54.4c0.8,0.3,1.6,0.6,2,1.5c-0.1,0.1-0.2,0.2-0.2,0.3c-0.3,0.3-1.1,0.4-1,1c0.1,0.6,0.9,0.7,1.4,0.8
		c1.9,0.5,3.8,0.6,5.8,0.6c0.5,0,1,0,1.5,0.2c1.1,0,2.2,0.1,3.2,0.5c-2.4,0.7-5,0.7-7.4,0.5c-3.1-0.2-6.2-0.3-9-1.6
		c-0.5-0.2-1.1-0.4-1.1-1c0-0.6,0.6-0.9,1-1.1c0.9-0.5,1.9-0.6,2.8-0.9C37.7,55,38.2,55,38.2,54.4z"/>
	<path class="st3" d="M60.6,53.7c0.5-0.3-0.2-0.7,0.2-1c0.9,0.8,1.2,1.7,0.3,2.7c-0.5,0.2-1.3,1.1-1.2-0.5
		C59.9,54.3,59.9,53.8,60.6,53.7z"/>
	<path class="st4" d="M60.6,53.7c-0.6,0.2-0.1,1-0.7,1.3c-0.7,2-2.6,2.4-4.3,2.9c-1.3,0.4-2.6,0.8-4.1,0.6c-2-0.3-4-0.7-6-1.3
		c-3.9-1.3-7.4-3.5-10.6-5.9c-3.2-2.5-6.3-5.2-8.8-8.5c-1.8-2.4-3.2-5-4.5-7.7c-0.6-1.3-1-2.9-1.3-4.4c-0.6-2.4-1.2-4.8-0.9-7.2
		c0.3-2.1,0.8-4.1,2.5-5.7c0.6-0.8,1.5-1.3,2.3-1.8c0.7-0.4,1.2-1,1.3-1.8c0.2-1.1,0.6-2.1,0.5-3.2c0-0.6,0.4-0.9,0.8-1.2
		c0.7,0.5,0.9,1.2,1,2c0,0.3,0,0.6,0,1c-0.6,0.5,0.1,1.3-0.5,1.8c0,0.6-0.2,1.2,0.2,1.7c-0.7,0.4-1.4,0.8-1.6,1.7
		c-0.5,1-0.1,2.2-0.2,3.2c0,0.7-0.1,1.4,0.3,2c0.8,2.5,1.5,4.9,2.5,7.3c1.6,3.4,3.6,6.5,6.1,9.4c1.1,1.3,2.4,2.4,3.6,3.5
		c1.2,1.3,2.6,2.3,4.1,3.1c1.2,1,2.7,1.6,4,2.5c1.5,1.1,3.2,1.3,4.9,1.9c0.4,0.1,0.7,0,1-0.3c1.2,0.1,2.4,0.6,3.5,1.1
		c0.5,0.2,0.9,0.7,0.6,1.3c-0.3,0.6-0.8,0.2-1.2,0.1c-0.5-0.1-1-0.3-1.5-0.4c1.4,0.8,3.1,1.1,4.7,1.4c0.6,0.1,0.8-0.8,1.4-0.9
		C60.2,52.8,60,53.7,60.6,53.7z"/>
	<path class="st5" d="M47.7,58.8c-2.7,0.1-5.4,0.1-8.1-0.8c-0.5-0.2-1.2-0.2-1.3-0.8c0-0.7,0.7-0.9,1.3-1.2c0.2-0.1,0.4-0.1,0.6-0.2
		c1.1-0.1,1.9,0.7,2.8,1.1C44.5,57.9,46.2,58,47.7,58.8z"/>
	<path class="st6" d="M26.8,9.7c-0.4,0.6-0.6,1.2-0.5,2c0.2,1.1-0.4,2.1-0.6,3.2c-0.2,1.2-1.8,1.4-2.7,2.2c-0.3,0.2-0.7,0.5-1.2,0.6
		c0.1-1.5,1.4-2.1,2.3-2.9c0.2-0.2,0.6-0.2,0.6-0.6c0-1,0.2-2.1,0.4-3.1C25.4,9.7,25.8,9.5,26.8,9.7z"/>
	<path class="st7" d="M59.6,52.9c-0.5,1-0.9,1.7-2.3,1.1c-1.2-0.5-2.7-0.6-3.9-1.1c-0.3-0.1-0.7-0.2-0.6-0.6
		c0.1-0.5,0.7-0.4,0.9-0.3c0.6,0.3,1.1,0.4,1.7,0.6c0.2,0.1,0.5,0.5,0.7,0.1c0.2-0.3-0.1-0.6-0.3-0.8c-0.6-0.5-1.4-0.5-2.2-0.8
		c-0.4-0.2-0.9-0.5-1.4-0.6c-1,0.5-1.9-0.1-2.7-0.6c-0.9-0.5-1.7-0.9-2.7-1.1c-1.5-0.7-2.7-1.8-4.1-2.5c-1.5-0.9-2.8-1.9-4-3.1
		c-1.3-0.7-2.1-1.9-3.1-3c-1.5-1.6-2.8-3.3-4-5.2c-1.1-1.7-2.3-3.4-3.1-5.3c-1-2.1-1.9-4.3-2.4-6.6c0.2-1.1,0.8-1.5,2.2-1.4
		c0.7,1.1,1,2.5,1.4,3.7c0.4,1.4,1.2,2.6,1.7,4c0.8,2.3,2.2,4.5,3.6,6.4c1.6,2.1,3.2,4.2,5.3,6c3.5,2.9,7.4,5.3,11.6,7
		c2.6,1,4.9,2.5,7.4,3.7C59.4,52.5,59.6,52.6,59.6,52.9z"/>
	<path class="st8" d="M25.4,21.1c0-0.9,0-1.7,0-2.6c0-0.4,0-0.8,0.4-0.9c0.4,1,1,1.5,2.1,1c0.3,0.6,0.5,1.3,0.4,2
		c-0.7,0.5-1.7,0.3-2.4,1C25.5,21.8,25.5,21.3,25.4,21.1z"/>
	<path class="st9" d="M27.9,18.6c-0.3,0.9-1.1,0.6-1.6,0.4c-0.7-0.2-0.2-1-0.4-1.5c0.1-1.1,0.8-1.5,1.8-1.5
		C27.1,17,28,17.7,27.9,18.6z"/>
	<path class="st10" d="M25.4,21.1c0.2,0.1,0.3,0.5,0.5,0.2c0.6-0.9,1.6-0.7,2.5-0.7c0,0.3,0,0.7,0,1c-0.5,0.1-0.8,0.5-1.4,0.5
		c-0.7,0-0.5,0.6-0.6,1c-0.2,0.1-0.3,0.1-0.5,0C24.9,22.6,25.5,21.7,25.4,21.1z"/>
	<path class="st0" d="M27.3,14.4c0-0.6-0.1-1.2,0-1.8c0.1-0.5,0.3,0,0.4,0C27.7,13.2,28.2,14,27.3,14.4z"/>
	<path class="st11" d="M55,55.8c-2.2,0-4.4,0.3-6.6-0.1c-2.2-0.3-4.3-0.8-6.4-1.8c-3.2-1.4-6.2-3.1-8.8-5.4c-2.4-2.1-4.7-4.4-6.6-7
		c-1.2-1.7-2.2-3.5-3.2-5.4c-1.2-2-1.5-4.3-2.1-6.5c-0.6-2.5-0.5-4.8,0-7.3c0.2-0.9-0.1-2,0.5-2.9C22,19.4,22,19,22.3,19
		c0.5,0.1,0.3,0.6,0.3,0.8c-0.5,1.9,0.1,3.7,0.2,5.5c0.2,2.5,1.2,4.8,2,7.1c1.8,4.8,4.7,8.9,8.3,12.6c3.5,3.7,7.6,6.3,12.3,8.2
		c3.1,1.2,6.3,1.8,9.5,2.3C55,55.6,55,55.7,55,55.8z"/>
	<path class="st12" d="M28.8,29.6c0.7,1.8,1.8,3.3,2.8,4.8c1.7,2.6,3.7,5,5.8,7.3c0.4,0.5,1.1,0.6,1.4,1.3c0.2,0.8-0.3,0.6-0.8,0.5
		c-4.1-3.3-7-7.5-9.5-12.1c-0.2-0.3-0.1-0.5-0.2-0.8C28.1,29.6,28.1,29.6,28.8,29.6z"/>
	<path class="st13" d="M46.7,48.4c1-0.1,1.8,0.4,2.6,0.9c0.9,0.6,1.9,0.8,2.9,1.1c0.1,0.6-0.2,0.8-0.8,0.6c-1.7-0.5-3.4-0.8-4.9-1.7
		c-0.1-0.1-0.2-0.3-0.2-0.4C46.2,48.7,46.4,48.5,46.7,48.4z"/>
	<path class="st14" d="M38,43.5c0.3-0.1,0.7,0,0.8-0.5c1.3,1,2.6,2,4,3c0.2,0.6-0.1,0.6-0.5,0.5C40.5,45.9,39.2,44.7,38,43.5z"/>
	<path class="st15" d="M28.8,29.6c-0.7,0.1-0.3,0.6-0.4,1c-1.1-1.6-1.4-3.4-1.9-5.2c-0.2-0.7-0.6-1.4-0.5-2.3c0.2,0,0.3,0,0.5,0
		C26.9,25.4,27.8,27.4,28.8,29.6z"/>
	<path class="st16" d="M42.2,46.5c0.3-0.1,0.5-0.2,0.5-0.5c1.5,0.6,2.7,1.6,4,2.5c-0.1,0.2-0.3,0.4-0.5,0.5
		C44.8,48.3,43.2,47.7,42.2,46.5z"/>
</g>
</svg>
